<ttFont>
    <TTGlyph name="A" xMin="-95" yMin="-76" xMax="760" yMax="691">
      <contour>
        <pt x="746" y="298" on="1"/>
        <pt x="741" y="238" on="1"/>
        <pt x="718" y="240" on="0"/>
        <pt x="665" y="240" on="0"/>
        <pt x="647" y="239" on="1"/>
        <pt x="633" y="129" on="0"/>
        <pt x="629" y="0" on="1"/>
        <pt x="559" y="0" on="1"/>
        <pt x="553" y="26" on="0"/>
        <pt x="553" y="112" on="0"/>
        <pt x="558" y="175" on="0"/>
        <pt x="566" y="237" on="0"/>
        <pt x="566" y="242" on="1"/>
        <pt x="552" y="243" on="0"/>
        <pt x="448" y="243" on="0"/>
        <pt x="428" y="241" on="1"/>
        <pt x="312" y="85" on="0"/>
        <pt x="116" y="-76" on="0"/>
        <pt x="18" y="-76" on="1"/>
        <pt x="-30" y="-76" on="0"/>
        <pt x="-95" y="-18" on="0"/>
        <pt x="-95" y="30" on="1"/>
        <pt x="-95" y="121" on="0"/>
        <pt x="182" y="271" on="0"/>
        <pt x="402" y="297" on="1"/>
        <pt x="428" y="337" on="0"/>
        <pt x="570" y="504" on="0"/>
        <pt x="639" y="566" on="1"/>
        <pt x="669" y="636" on="0"/>
        <pt x="704" y="691" on="0"/>
        <pt x="738" y="691" on="0"/>
        <pt x="760" y="665" on="0"/>
        <pt x="760" y="624" on="0"/>
        <pt x="715" y="545" on="0"/>
        <pt x="667" y="380" on="0"/>
        <pt x="658" y="307" on="1"/>
        <pt x="710" y="307" on="0"/>
      </contour>
      <contour>
        <pt x="236" y="89" on="1"/>
        <pt x="319" y="168" on="0"/>
        <pt x="361" y="239" on="1"/>
        <pt x="193" y="229" on="0"/>
        <pt x="10" y="123" on="0"/>
        <pt x="10" y="63" on="1"/>
        <pt x="10" y="37" on="0"/>
        <pt x="45" y="7" on="0"/>
        <pt x="74" y="7" on="1"/>
        <pt x="152" y="7" on="0"/>
      </contour>
      <contour>
        <pt x="578" y="307" on="1"/>
        <pt x="585" y="341" on="0"/>
        <pt x="608" y="444" on="0"/>
        <pt x="610" y="453" on="1"/>
        <pt x="562" y="407" on="0"/>
        <pt x="524" y="364" on="0"/>
        <pt x="476" y="303" on="1"/>
        <pt x="493" y="304" on="0"/>
        <pt x="542" y="305" on="0"/>
        <pt x="574" y="307" on="0"/>
      </contour>
    </TTGlyph>
    <TTGlyph name="AE" xMin="-85" yMin="-127" xMax="1178" yMax="691">
      <contour>
        <pt x="1178" y="575" on="1"/>
        <pt x="1178" y="525" on="0"/>
        <pt x="1083" y="447" on="0"/>
        <pt x="960" y="411" on="0"/>
        <pt x="903" y="411" on="1"/>
        <pt x="888" y="411" on="0"/>
        <pt x="881" y="412" on="1"/>
        <pt x="881" y="446" on="1"/>
        <pt x="883" y="446" on="0"/>
        <pt x="995" y="465" on="0"/>
        <pt x="1072" y="513" on="0"/>
        <pt x="1072" y="543" on="1"/>
        <pt x="1072" y="579" on="0"/>
        <pt x="1018" y="579" on="1"/>
        <pt x="945" y="579" on="0"/>
        <pt x="815" y="479" on="0"/>
        <pt x="815" y="369" on="0"/>
        <pt x="883" y="353" on="1"/>
        <pt x="898" y="349" on="0"/>
        <pt x="908" y="341" on="0"/>
        <pt x="908" y="321" on="0"/>
        <pt x="889" y="308" on="0"/>
        <pt x="855" y="296" on="1"/>
        <pt x="671" y="233" on="0"/>
        <pt x="671" y="100" on="1"/>
        <pt x="671" y="73" on="0"/>
        <pt x="681" y="54" on="1"/>
        <pt x="742" y="132" on="0"/>
        <pt x="936" y="230" on="0"/>
        <pt x="1026" y="230" on="1"/>
        <pt x="1073" y="230" on="0"/>
        <pt x="1129" y="189" on="0"/>
        <pt x="1129" y="153" on="1"/>
        <pt x="1129" y="97" on="0"/>
        <pt x="1025" y="-15" on="0"/>
        <pt x="860" y="-86" on="0"/>
        <pt x="696" y="-86" on="0"/>
        <pt x="650" y="-56" on="1"/>
        <pt x="649" y="-57" on="0"/>
        <pt x="642" y="-72" on="1"/>
        <pt x="621" y="-111" on="0"/>
        <pt x="607" y="-127" on="1"/>
        <pt x="574" y="-113" on="1"/>
        <pt x="581" y="-85" on="0"/>
        <pt x="615" y="-28" on="1"/>
        <pt x="561" y="12" on="0"/>
        <pt x="561" y="116" on="1"/>
        <pt x="561" y="167" on="0"/>
        <pt x="576" y="242" on="1"/>
        <pt x="562" y="243" on="0"/>
        <pt x="458" y="243" on="0"/>
        <pt x="438" y="241" on="1"/>
        <pt x="322" y="85" on="0"/>
        <pt x="126" y="-76" on="0"/>
        <pt x="28" y="-76" on="1"/>
        <pt x="-20" y="-76" on="0"/>
        <pt x="-85" y="-18" on="0"/>
        <pt x="-85" y="30" on="1"/>
        <pt x="-85" y="121" on="0"/>
        <pt x="192" y="271" on="0"/>
        <pt x="412" y="297" on="1"/>
        <pt x="438" y="337" on="0"/>
        <pt x="580" y="504" on="0"/>
        <pt x="649" y="566" on="1"/>
        <pt x="679" y="636" on="0"/>
        <pt x="714" y="691" on="0"/>
        <pt x="748" y="691" on="0"/>
        <pt x="770" y="665" on="0"/>
        <pt x="770" y="624" on="0"/>
        <pt x="751" y="591" on="1"/>
        <pt x="692" y="487" on="0"/>
        <pt x="658" y="246" on="1"/>
        <pt x="704" y="283" on="0"/>
        <pt x="768" y="308" on="1"/>
        <pt x="721" y="347" on="0"/>
        <pt x="721" y="389" on="1"/>
        <pt x="721" y="446" on="0"/>
        <pt x="841" y="565" on="0"/>
        <pt x="1014" y="639" on="0"/>
        <pt x="1090" y="639" on="1"/>
        <pt x="1130" y="639" on="0"/>
        <pt x="1178" y="604" on="0"/>
      </contour>
      <contour>
        <pt x="246" y="89" on="1"/>
        <pt x="329" y="168" on="0"/>
        <pt x="371" y="239" on="1"/>
        <pt x="203" y="229" on="0"/>
        <pt x="20" y="123" on="0"/>
        <pt x="20" y="63" on="1"/>
        <pt x="20" y="37" on="0"/>
        <pt x="55" y="7" on="0"/>
        <pt x="84" y="7" on="1"/>
        <pt x="162" y="7" on="0"/>
      </contour>
      <contour>
        <pt x="968" y="170" on="1"/>
        <pt x="909" y="170" on="0"/>
        <pt x="752" y="80" on="0"/>
        <pt x="703" y="18" on="1"/>
        <pt x="743" y="-27" on="0"/>
        <pt x="890" y="-27" on="0"/>
        <pt x="1031" y="68" on="0"/>
        <pt x="1031" y="123" on="1"/>
        <pt x="1031" y="145" on="0"/>
        <pt x="997" y="170" on="0"/>
      </contour>
      <contour>
        <pt x="588" y="307" on="1"/>
        <pt x="595" y="341" on="0"/>
        <pt x="618" y="444" on="0"/>
        <pt x="620" y="453" on="1"/>
        <pt x="572" y="407" on="0"/>
        <pt x="534" y="364" on="0"/>
        <pt x="486" y="303" on="1"/>
        <pt x="503" y="304" on="0"/>
        <pt x="552" y="305" on="0"/>
        <pt x="584" y="307" on="0"/>
      </contour>
    </TTGlyph>
    <TTGlyph name="AEacute" xMin="-85" yMin="-127" xMax="1178" yMax="792">
      <contour>
        <pt x="1178" y="575" on="1"/>
        <pt x="1178" y="525" on="0"/>
        <pt x="1083" y="447" on="0"/>
        <pt x="960" y="411" on="0"/>
        <pt x="903" y="411" on="1"/>
        <pt x="888" y="411" on="0"/>
        <pt x="881" y="412" on="1"/>
        <pt x="881" y="446" on="1"/>
        <pt x="883" y="446" on="0"/>
        <pt x="995" y="465" on="0"/>
        <pt x="1072" y="513" on="0"/>
        <pt x="1072" y="543" on="1"/>
        <pt x="1072" y="579" on="0"/>
        <pt x="1018" y="579" on="1"/>
        <pt x="945" y="579" on="0"/>
        <pt x="815" y="479" on="0"/>
        <pt x="815" y="369" on="0"/>
        <pt x="883" y="353" on="1"/>
        <pt x="898" y="349" on="0"/>
        <pt x="908" y="341" on="0"/>
        <pt x="908" y="321" on="0"/>
        <pt x="889" y="308" on="0"/>
        <pt x="855" y="296" on="1"/>
        <pt x="671" y="233" on="0"/>
        <pt x="671" y="100" on="1"/>
        <pt x="671" y="73" on="0"/>
        <pt x="681" y="54" on="1"/>
        <pt x="742" y="132" on="0"/>
        <pt x="936" y="230" on="0"/>
        <pt x="1026" y="230" on="1"/>
        <pt x="1073" y="230" on="0"/>
        <pt x="1129" y="189" on="0"/>
        <pt x="1129" y="153" on="1"/>
        <pt x="1129" y="97" on="0"/>
        <pt x="1025" y="-15" on="0"/>
        <pt x="860" y="-86" on="0"/>
        <pt x="696" y="-86" on="0"/>
        <pt x="650" y="-56" on="1"/>
        <pt x="649" y="-57" on="0"/>
        <pt x="642" y="-72" on="1"/>
        <pt x="621" y="-111" on="0"/>
        <pt x="607" y="-127" on="1"/>
        <pt x="574" y="-113" on="1"/>
        <pt x="581" y="-85" on="0"/>
        <pt x="615" y="-28" on="1"/>
        <pt x="561" y="12" on="0"/>
        <pt x="561" y="116" on="1"/>
        <pt x="561" y="167" on="0"/>
        <pt x="576" y="242" on="1"/>
        <pt x="562" y="243" on="0"/>
        <pt x="458" y="243" on="0"/>
        <pt x="438" y="241" on="1"/>
        <pt x="322" y="85" on="0"/>
        <pt x="126" y="-76" on="0"/>
        <pt x="28" y="-76" on="1"/>
        <pt x="-20" y="-76" on="0"/>
        <pt x="-85" y="-18" on="0"/>
        <pt x="-85" y="30" on="1"/>
        <pt x="-85" y="121" on="0"/>
        <pt x="192" y="271" on="0"/>
        <pt x="412" y="297" on="1"/>
        <pt x="438" y="337" on="0"/>
        <pt x="580" y="504" on="0"/>
        <pt x="649" y="566" on="1"/>
        <pt x="679" y="636" on="0"/>
        <pt x="714" y="691" on="0"/>
        <pt x="748" y="691" on="0"/>
        <pt x="770" y="665" on="0"/>
        <pt x="770" y="624" on="0"/>
        <pt x="751" y="591" on="1"/>
        <pt x="692" y="487" on="0"/>
        <pt x="658" y="246" on="1"/>
        <pt x="704" y="283" on="0"/>
        <pt x="768" y="308" on="1"/>
        <pt x="721" y="347" on="0"/>
        <pt x="721" y="389" on="1"/>
        <pt x="721" y="446" on="0"/>
        <pt x="841" y="565" on="0"/>
        <pt x="1014" y="639" on="0"/>
        <pt x="1090" y="639" on="1"/>
        <pt x="1130" y="639" on="0"/>
        <pt x="1178" y="604" on="0"/>
      </contour>
      <contour>
        <pt x="246" y="89" on="1"/>
        <pt x="329" y="168" on="0"/>
        <pt x="371" y="239" on="1"/>
        <pt x="203" y="229" on="0"/>
        <pt x="20" y="123" on="0"/>
        <pt x="20" y="63" on="1"/>
        <pt x="20" y="37" on="0"/>
        <pt x="55" y="7" on="0"/>
        <pt x="84" y="7" on="1"/>
        <pt x="162" y="7" on="0"/>
      </contour>
      <contour>
        <pt x="968" y="170" on="1"/>
        <pt x="909" y="170" on="0"/>
        <pt x="752" y="80" on="0"/>
        <pt x="703" y="18" on="1"/>
        <pt x="743" y="-27" on="0"/>
        <pt x="890" y="-27" on="0"/>
        <pt x="1031" y="68" on="0"/>
        <pt x="1031" y="123" on="1"/>
        <pt x="1031" y="145" on="0"/>
        <pt x="997" y="170" on="0"/>
      </contour>
      <contour>
        <pt x="588" y="307" on="1"/>
        <pt x="595" y="341" on="0"/>
        <pt x="618" y="444" on="0"/>
        <pt x="620" y="453" on="1"/>
        <pt x="572" y="407" on="0"/>
        <pt x="534" y="364" on="0"/>
        <pt x="486" y="303" on="1"/>
        <pt x="503" y="304" on="0"/>
        <pt x="552" y="305" on="0"/>
        <pt x="584" y="307" on="0"/>
      </contour>
      <contour>
        <pt x="1019" y="752" on="1"/>
        <pt x="848" y="696" on="1"/>
        <pt x="819" y="714" on="1"/>
        <pt x="951" y="792" on="1"/>
      </contour>
    </TTGlyph>
    <TTGlyph name="Aacute" xMin="-85" yMin="-76" xMax="794" yMax="817">
      <contour>
        <pt x="756" y="298" on="1"/>
        <pt x="751" y="238" on="1"/>
        <pt x="728" y="240" on="0"/>
        <pt x="675" y="240" on="0"/>
        <pt x="657" y="239" on="1"/>
        <pt x="643" y="129" on="0"/>
        <pt x="639" y="0" on="1"/>
        <pt x="569" y="0" on="1"/>
        <pt x="563" y="26" on="0"/>
        <pt x="563" y="112" on="0"/>
        <pt x="568" y="175" on="0"/>
        <pt x="576" y="237" on="0"/>
        <pt x="576" y="242" on="1"/>
        <pt x="562" y="243" on="0"/>
        <pt x="458" y="243" on="0"/>
        <pt x="438" y="241" on="1"/>
        <pt x="322" y="85" on="0"/>
        <pt x="126" y="-76" on="0"/>
        <pt x="28" y="-76" on="1"/>
        <pt x="-20" y="-76" on="0"/>
        <pt x="-85" y="-18" on="0"/>
        <pt x="-85" y="30" on="1"/>
        <pt x="-85" y="121" on="0"/>
        <pt x="192" y="271" on="0"/>
        <pt x="412" y="297" on="1"/>
        <pt x="438" y="337" on="0"/>
        <pt x="580" y="504" on="0"/>
        <pt x="649" y="566" on="1"/>
        <pt x="679" y="636" on="0"/>
        <pt x="714" y="691" on="0"/>
        <pt x="748" y="691" on="0"/>
        <pt x="770" y="665" on="0"/>
        <pt x="770" y="624" on="0"/>
        <pt x="725" y="545" on="0"/>
        <pt x="677" y="380" on="0"/>
        <pt x="668" y="307" on="1"/>
        <pt x="720" y="307" on="0"/>
      </contour>
      <contour>
        <pt x="246" y="89" on="1"/>
        <pt x="329" y="168" on="0"/>
        <pt x="371" y="239" on="1"/>
        <pt x="203" y="229" on="0"/>
        <pt x="20" y="123" on="0"/>
        <pt x="20" y="63" on="1"/>
        <pt x="20" y="37" on="0"/>
        <pt x="55" y="7" on="0"/>
        <pt x="84" y="7" on="1"/>
        <pt x="162" y="7" on="0"/>
      </contour>
      <contour>
        <pt x="588" y="307" on="1"/>
        <pt x="595" y="341" on="0"/>
        <pt x="618" y="444" on="0"/>
        <pt x="620" y="453" on="1"/>
        <pt x="572" y="407" on="0"/>
        <pt x="534" y="364" on="0"/>
        <pt x="486" y="303" on="1"/>
        <pt x="503" y="304" on="0"/>
        <pt x="552" y="305" on="0"/>
        <pt x="584" y="307" on="0"/>
      </contour>
      <contour>
        <pt x="794" y="777" on="1"/>
        <pt x="623" y="721" on="1"/>
        <pt x="594" y="739" on="1"/>
        <pt x="726" y="817" on="1"/>
      </contour>
    </TTGlyph>
    <TTGlyph name="Abreve" xMin="-85" yMin="-76" xMax="781" yMax="813">
      <contour>
        <pt x="756" y="298" on="1"/>
        <pt x="751" y="238" on="1"/>
        <pt x="728" y="240" on="0"/>
        <pt x="675" y="240" on="0"/>
        <pt x="657" y="239" on="1"/>
        <pt x="643" y="129" on="0"/>
        <pt x="639" y="0" on="1"/>
        <pt x="569" y="0" on="1"/>
        <pt x="563" y="26" on="0"/>
        <pt x="563" y="112" on="0"/>
        <pt x="568" y="175" on="0"/>
        <pt x="576" y="237" on="0"/>
        <pt x="576" y="242" on="1"/>
        <pt x="562" y="243" on="0"/>
        <pt x="458" y="243" on="0"/>
        <pt x="438" y="241" on="1"/>
        <pt x="322" y="85" on="0"/>
        <pt x="126" y="-76" on="0"/>
        <pt x="28" y="-76" on="1"/>
        <pt x="-20" y="-76" on="0"/>
        <pt x="-85" y="-18" on="0"/>
        <pt x="-85" y="30" on="1"/>
        <pt x="-85" y="121" on="0"/>
        <pt x="192" y="271" on="0"/>
        <pt x="412" y="297" on="1"/>
        <pt x="438" y="337" on="0"/>
        <pt x="580" y="504" on="0"/>
        <pt x="649" y="566" on="1"/>
        <pt x="679" y="636" on="0"/>
        <pt x="714" y="691" on="0"/>
        <pt x="748" y="691" on="0"/>
        <pt x="770" y="665" on="0"/>
        <pt x="770" y="624" on="0"/>
        <pt x="725" y="545" on="0"/>
        <pt x="677" y="380" on="0"/>
        <pt x="668" y="307" on="1"/>
        <pt x="720" y="307" on="0"/>
      </contour>
      <contour>
        <pt x="246" y="89" on="1"/>
        <pt x="329" y="168" on="0"/>
        <pt x="371" y="239" on="1"/>
        <pt x="203" y="229" on="0"/>
        <pt x="20" y="123" on="0"/>
        <pt x="20" y="63" on="1"/>
        <pt x="20" y="37" on="0"/>
        <pt x="55" y="7" on="0"/>
        <pt x="84" y="7" on="1"/>
        <pt x="162" y="7" on="0"/>
      </contour>
      <contour>
        <pt x="588" y="307" on="1"/>
        <pt x="595" y="341" on="0"/>
        <pt x="618" y="444" on="0"/>
        <pt x="620" y="453" on="1"/>
        <pt x="572" y="407" on="0"/>
        <pt x="534" y="364" on="0"/>
        <pt x="486" y="303" on="1"/>
        <pt x="503" y="304" on="0"/>
        <pt x="552" y="305" on="0"/>
        <pt x="584" y="307" on="0"/>
      </contour>
      <contour>
        <pt x="751" y="810" on="1"/>
        <pt x="781" y="794" on="1"/>
        <pt x="761" y="763" on="0"/>
        <pt x="698" y="715" on="0"/>
        <pt x="636" y="715" on="0"/>
        <pt x="568" y="762" on="0"/>
        <pt x="547" y="786" on="1"/>
        <pt x="579" y="813" on="1"/>
        <pt x="631" y="762" on="0"/>
        <pt x="664" y="762" on="1"/>
        <pt x="715" y="762" on="0"/>
      </contour>
    </TTGlyph>
    <TTGlyph name="Acircumflex" xMin="-85" yMin="-76" xMax="826" yMax="864">
      <contour>
        <pt x="756" y="298" on="1"/>
        <pt x="751" y="238" on="1"/>
        <pt x="728" y="240" on="0"/>
        <pt x="675" y="240" on="0"/>
        <pt x="657" y="239" on="1"/>
        <pt x="643" y="129" on="0"/>
        <pt x="639" y="0" on="1"/>
        <pt x="569" y="0" on="1"/>
        <pt x="563" y="26" on="0"/>
        <pt x="563" y="112" on="0"/>
        <pt x="568" y="175" on="0"/>
        <pt x="576" y="237" on="0"/>
        <pt x="576" y="242" on="1"/>
        <pt x="562" y="243" on="0"/>
        <pt x="458" y="243" on="0"/>
        <pt x="438" y="241" on="1"/>
        <pt x="322" y="85" on="0"/>
        <pt x="126" y="-76" on="0"/>
        <pt x="28" y="-76" on="1"/>
        <pt x="-20" y="-76" on="0"/>
        <pt x="-85" y="-18" on="0"/>
        <pt x="-85" y="30" on="1"/>
        <pt x="-85" y="121" on="0"/>
        <pt x="192" y="271" on="0"/>
        <pt x="412" y="297" on="1"/>
        <pt x="438" y="337" on="0"/>
        <pt x="580" y="504" on="0"/>
        <pt x="649" y="566" on="1"/>
        <pt x="679" y="636" on="0"/>
        <pt x="714" y="691" on="0"/>
        <pt x="748" y="691" on="0"/>
        <pt x="770" y="665" on="0"/>
        <pt x="770" y="624" on="0"/>
        <pt x="725" y="545" on="0"/>
        <pt x="677" y="380" on="0"/>
        <pt x="668" y="307" on="1"/>
        <pt x="720" y="307" on="0"/>
      </contour>
      <contour>
        <pt x="246" y="89" on="1"/>
        <pt x="329" y="168" on="0"/>
        <pt x="371" y="239" on="1"/>
        <pt x="203" y="229" on="0"/>
        <pt x="20" y="123" on="0"/>
        <pt x="20" y="63" on="1"/>
        <pt x="20" y="37" on="0"/>
        <pt x="55" y="7" on="0"/>
        <pt x="84" y="7" on="1"/>
        <pt x="162" y="7" on="0"/>
      </contour>
      <contour>
        <pt x="588" y="307" on="1"/>
        <pt x="595" y="341" on="0"/>
        <pt x="618" y="444" on="0"/>
        <pt x="620" y="453" on="1"/>
        <pt x="572" y="407" on="0"/>
        <pt x="534" y="364" on="0"/>
        <pt x="486" y="303" on="1"/>
        <pt x="503" y="304" on="0"/>
        <pt x="552" y="305" on="0"/>
        <pt x="584" y="307" on="0"/>
      </contour>
      <contour>
        <pt x="550" y="750" on="1"/>
        <pt x="697" y="864" on="1"/>
        <pt x="805" y="778" on="0"/>
        <pt x="826" y="756" on="1"/>
        <pt x="796" y="732" on="1"/>
        <pt x="711" y="783" on="0"/>
        <pt x="693" y="796" on="1"/>
        <pt x="594" y="726" on="1"/>
      </contour>
    </TTGlyph>
    <TTGlyph name="Adieresis" xMin="-85" yMin="-76" xMax="789" yMax="830">
      <contour>
        <pt x="756" y="298" on="1"/>
        <pt x="751" y="238" on="1"/>
        <pt x="728" y="240" on="0"/>
        <pt x="675" y="240" on="0"/>
        <pt x="657" y="239" on="1"/>
        <pt x="643" y="129" on="0"/>
        <pt x="639" y="0" on="1"/>
        <pt x="569" y="0" on="1"/>
        <pt x="563" y="26" on="0"/>
        <pt x="563" y="112" on="0"/>
        <pt x="568" y="175" on="0"/>
        <pt x="576" y="237" on="0"/>
        <pt x="576" y="242" on="1"/>
        <pt x="562" y="243" on="0"/>
        <pt x="458" y="243" on="0"/>
        <pt x="438" y="241" on="1"/>
        <pt x="322" y="85" on="0"/>
        <pt x="126" y="-76" on="0"/>
        <pt x="28" y="-76" on="1"/>
        <pt x="-20" y="-76" on="0"/>
        <pt x="-85" y="-18" on="0"/>
        <pt x="-85" y="30" on="1"/>
        <pt x="-85" y="121" on="0"/>
        <pt x="192" y="271" on="0"/>
        <pt x="412" y="297" on="1"/>
        <pt x="438" y="337" on="0"/>
        <pt x="580" y="504" on="0"/>
        <pt x="649" y="566" on="1"/>
        <pt x="679" y="636" on="0"/>
        <pt x="714" y="691" on="0"/>
        <pt x="748" y="691" on="0"/>
        <pt x="770" y="665" on="0"/>
        <pt x="770" y="624" on="0"/>
        <pt x="725" y="545" on="0"/>
        <pt x="677" y="380" on="0"/>
        <pt x="668" y="307" on="1"/>
        <pt x="720" y="307" on="0"/>
      </contour>
      <contour>
        <pt x="246" y="89" on="1"/>
        <pt x="329" y="168" on="0"/>
        <pt x="371" y="239" on="1"/>
        <pt x="203" y="229" on="0"/>
        <pt x="20" y="123" on="0"/>
        <pt x="20" y="63" on="1"/>
        <pt x="20" y="37" on="0"/>
        <pt x="55" y="7" on="0"/>
        <pt x="84" y="7" on="1"/>
        <pt x="162" y="7" on="0"/>
      </contour>
      <contour>
        <pt x="588" y="307" on="1"/>
        <pt x="595" y="341" on="0"/>
        <pt x="618" y="444" on="0"/>
        <pt x="620" y="453" on="1"/>
        <pt x="572" y="407" on="0"/>
        <pt x="534" y="364" on="0"/>
        <pt x="486" y="303" on="1"/>
        <pt x="503" y="304" on="0"/>
        <pt x="552" y="305" on="0"/>
        <pt x="584" y="307" on="0"/>
      </contour>
      <contour>
        <pt x="606" y="751" on="0"/>
        <pt x="583" y="774" on="0"/>
        <pt x="583" y="807" on="0"/>
        <pt x="606" y="830" on="0"/>
        <pt x="638" y="830" on="0"/>
        <pt x="662" y="806" on="0"/>
        <pt x="662" y="774" on="0"/>
        <pt x="639" y="751" on="0"/>
      </contour>
      <contour>
        <pt x="732" y="751" on="0"/>
        <pt x="710" y="774" on="0"/>
        <pt x="710" y="807" on="0"/>
        <pt x="733" y="830" on="0"/>
        <pt x="766" y="830" on="0"/>
        <pt x="789" y="806" on="0"/>
        <pt x="789" y="774" on="0"/>
        <pt x="766" y="751" on="0"/>
      </contour>
    </TTGlyph>
    <TTGlyph name="Agrave" xMin="-85" yMin="-76" xMax="806" yMax="822">
      <contour>
        <pt x="756" y="298" on="1"/>
        <pt x="751" y="238" on="1"/>
        <pt x="728" y="240" on="0"/>
        <pt x="675" y="240" on="0"/>
        <pt x="657" y="239" on="1"/>
        <pt x="643" y="129" on="0"/>
        <pt x="639" y="0" on="1"/>
        <pt x="569" y="0" on="1"/>
        <pt x="563" y="26" on="0"/>
        <pt x="563" y="112" on="0"/>
        <pt x="568" y="175" on="0"/>
        <pt x="576" y="237" on="0"/>
        <pt x="576" y="242" on="1"/>
        <pt x="562" y="243" on="0"/>
        <pt x="458" y="243" on="0"/>
        <pt x="438" y="241" on="1"/>
        <pt x="322" y="85" on="0"/>
        <pt x="126" y="-76" on="0"/>
        <pt x="28" y="-76" on="1"/>
        <pt x="-20" y="-76" on="0"/>
        <pt x="-85" y="-18" on="0"/>
        <pt x="-85" y="30" on="1"/>
        <pt x="-85" y="121" on="0"/>
        <pt x="192" y="271" on="0"/>
        <pt x="412" y="297" on="1"/>
        <pt x="438" y="337" on="0"/>
        <pt x="580" y="504" on="0"/>
        <pt x="649" y="566" on="1"/>
        <pt x="679" y="636" on="0"/>
        <pt x="714" y="691" on="0"/>
        <pt x="748" y="691" on="0"/>
        <pt x="770" y="665" on="0"/>
        <pt x="770" y="624" on="0"/>
        <pt x="725" y="545" on="0"/>
        <pt x="677" y="380" on="0"/>
        <pt x="668" y="307" on="1"/>
        <pt x="720" y="307" on="0"/>
      </contour>
      <contour>
        <pt x="246" y="89" on="1"/>
        <pt x="329" y="168" on="0"/>
        <pt x="371" y="239" on="1"/>
        <pt x="203" y="229" on="0"/>
        <pt x="20" y="123" on="0"/>
        <pt x="20" y="63" on="1"/>
        <pt x="20" y="37" on="0"/>
        <pt x="55" y="7" on="0"/>
        <pt x="84" y="7" on="1"/>
        <pt x="162" y="7" on="0"/>
      </contour>
      <contour>
        <pt x="588" y="307" on="1"/>
        <pt x="595" y="341" on="0"/>
        <pt x="618" y="444" on="0"/>
        <pt x="620" y="453" on="1"/>
        <pt x="572" y="407" on="0"/>
        <pt x="534" y="364" on="0"/>
        <pt x="486" y="303" on="1"/>
        <pt x="503" y="304" on="0"/>
        <pt x="552" y="305" on="0"/>
        <pt x="584" y="307" on="0"/>
      </contour>
      <contour>
        <pt x="777" y="726" on="1"/>
        <pt x="606" y="782" on="1"/>
        <pt x="674" y="822" on="1"/>
        <pt x="806" y="744" on="1"/>
      </contour>
    </TTGlyph>
    <TTGlyph name="Amacron" xMin="-100" yMin="-76" xMax="755" yMax="779">
      <contour>
        <pt x="741" y="298" on="1"/>
        <pt x="736" y="238" on="1"/>
        <pt x="713" y="240" on="0"/>
        <pt x="660" y="240" on="0"/>
        <pt x="642" y="239" on="1"/>
        <pt x="628" y="129" on="0"/>
        <pt x="624" y="0" on="1"/>
        <pt x="554" y="0" on="1"/>
        <pt x="548" y="26" on="0"/>
        <pt x="548" y="112" on="0"/>
        <pt x="553" y="175" on="0"/>
        <pt x="561" y="237" on="0"/>
        <pt x="561" y="242" on="1"/>
        <pt x="547" y="243" on="0"/>
        <pt x="443" y="243" on="0"/>
        <pt x="423" y="241" on="1"/>
        <pt x="307" y="85" on="0"/>
        <pt x="111" y="-76" on="0"/>
        <pt x="13" y="-76" on="1"/>
        <pt x="-35" y="-76" on="0"/>
        <pt x="-100" y="-18" on="0"/>
        <pt x="-100" y="30" on="1"/>
        <pt x="-100" y="121" on="0"/>
        <pt x="177" y="271" on="0"/>
        <pt x="397" y="297" on="1"/>
        <pt x="423" y="337" on="0"/>
        <pt x="565" y="504" on="0"/>
        <pt x="634" y="566" on="1"/>
        <pt x="664" y="636" on="0"/>
        <pt x="699" y="691" on="0"/>
        <pt x="733" y="691" on="0"/>
        <pt x="755" y="665" on="0"/>
        <pt x="755" y="624" on="0"/>
        <pt x="710" y="545" on="0"/>
        <pt x="662" y="380" on="0"/>
        <pt x="653" y="307" on="1"/>
        <pt x="705" y="307" on="0"/>
      </contour>
      <contour>
        <pt x="231" y="89" on="1"/>
        <pt x="314" y="168" on="0"/>
        <pt x="356" y="239" on="1"/>
        <pt x="188" y="229" on="0"/>
        <pt x="5" y="123" on="0"/>
        <pt x="5" y="63" on="1"/>
        <pt x="5" y="37" on="0"/>
        <pt x="40" y="7" on="0"/>
        <pt x="69" y="7" on="1"/>
        <pt x="147" y="7" on="0"/>
      </contour>
      <contour>
        <pt x="573" y="307" on="1"/>
        <pt x="580" y="341" on="0"/>
        <pt x="603" y="444" on="0"/>
        <pt x="605" y="453" on="1"/>
        <pt x="557" y="407" on="0"/>
        <pt x="519" y="364" on="0"/>
        <pt x="471" y="303" on="1"/>
        <pt x="488" y="304" on="0"/>
        <pt x="537" y="305" on="0"/>
        <pt x="569" y="307" on="0"/>
      </contour>
      <contour>
        <pt x="732" y="779" on="1"/>
        <pt x="732" y="743" on="1"/>
        <pt x="555" y="737" on="1"/>
        <pt x="546" y="768" on="1"/>
        <pt x="579" y="775" on="0"/>
      </contour>
    </TTGlyph>
    <TTGlyph name="Aogonek" xMin="-85" yMin="-188" xMax="770" yMax="691">
      <contour>
        <pt x="683" y="-70" on="1"/>
        <pt x="703" y="-86" on="1"/>
        <pt x="673" y="-126" on="0"/>
        <pt x="568" y="-188" on="0"/>
        <pt x="505" y="-188" on="0"/>
        <pt x="472" y="-161" on="0"/>
        <pt x="472" y="-142" on="1"/>
        <pt x="472" y="-103" on="0"/>
        <pt x="530" y="-10" on="0"/>
        <pt x="565" y="22" on="1"/>
        <pt x="563" y="44" on="0"/>
        <pt x="563" y="112" on="0"/>
        <pt x="568" y="175" on="0"/>
        <pt x="576" y="237" on="0"/>
        <pt x="576" y="242" on="1"/>
        <pt x="562" y="243" on="0"/>
        <pt x="458" y="243" on="0"/>
        <pt x="438" y="241" on="1"/>
        <pt x="322" y="85" on="0"/>
        <pt x="126" y="-76" on="0"/>
        <pt x="28" y="-76" on="1"/>
        <pt x="-20" y="-76" on="0"/>
        <pt x="-85" y="-18" on="0"/>
        <pt x="-85" y="30" on="1"/>
        <pt x="-85" y="121" on="0"/>
        <pt x="192" y="271" on="0"/>
        <pt x="412" y="297" on="1"/>
        <pt x="438" y="337" on="0"/>
        <pt x="580" y="504" on="0"/>
        <pt x="649" y="566" on="1"/>
        <pt x="679" y="636" on="0"/>
        <pt x="714" y="691" on="0"/>
        <pt x="748" y="691" on="0"/>
        <pt x="770" y="665" on="0"/>
        <pt x="770" y="624" on="0"/>
        <pt x="725" y="545" on="0"/>
        <pt x="677" y="380" on="0"/>
        <pt x="668" y="307" on="1"/>
        <pt x="720" y="307" on="0"/>
        <pt x="756" y="298" on="1"/>
        <pt x="751" y="238" on="1"/>
        <pt x="728" y="240" on="0"/>
        <pt x="675" y="240" on="0"/>
        <pt x="657" y="239" on="1"/>
        <pt x="643" y="129" on="0"/>
        <pt x="639" y="0" on="1"/>
        <pt x="600" y="0" on="1"/>
        <pt x="558" y="-58" on="0"/>
        <pt x="558" y="-87" on="1"/>
        <pt x="558" y="-95" on="0"/>
        <pt x="572" y="-111" on="0"/>
        <pt x="588" y="-111" on="1"/>
        <pt x="624" y="-111" on="0"/>
      </contour>
      <contour>
        <pt x="246" y="89" on="1"/>
        <pt x="329" y="168" on="0"/>
        <pt x="371" y="239" on="1"/>
        <pt x="203" y="229" on="0"/>
        <pt x="20" y="123" on="0"/>
        <pt x="20" y="63" on="1"/>
        <pt x="20" y="37" on="0"/>
        <pt x="55" y="7" on="0"/>
        <pt x="84" y="7" on="1"/>
        <pt x="162" y="7" on="0"/>
      </contour>
      <contour>
        <pt x="588" y="307" on="1"/>
        <pt x="595" y="341" on="0"/>
        <pt x="618" y="444" on="0"/>
        <pt x="620" y="453" on="1"/>
        <pt x="572" y="407" on="0"/>
        <pt x="534" y="364" on="0"/>
        <pt x="486" y="303" on="1"/>
        <pt x="503" y="304" on="0"/>
        <pt x="552" y="305" on="0"/>
        <pt x="584" y="307" on="0"/>
      </contour>
    </TTGlyph>
    <TTGlyph name="Aring" xMin="-85" yMin="-76" xMax="774" yMax="845">
      <contour>
        <pt x="756" y="298" on="1"/>
        <pt x="751" y="238" on="1"/>
        <pt x="728" y="240" on="0"/>
        <pt x="675" y="240" on="0"/>
        <pt x="657" y="239" on="1"/>
        <pt x="643" y="129" on="0"/>
        <pt x="639" y="0" on="1"/>
        <pt x="569" y="0" on="1"/>
        <pt x="563" y="26" on="0"/>
        <pt x="563" y="112" on="0"/>
        <pt x="568" y="175" on="0"/>
        <pt x="576" y="237" on="0"/>
        <pt x="576" y="242" on="1"/>
        <pt x="562" y="243" on="0"/>
        <pt x="458" y="243" on="0"/>
        <pt x="438" y="241" on="1"/>
        <pt x="322" y="85" on="0"/>
        <pt x="126" y="-76" on="0"/>
        <pt x="28" y="-76" on="1"/>
        <pt x="-20" y="-76" on="0"/>
        <pt x="-85" y="-18" on="0"/>
        <pt x="-85" y="30" on="1"/>
        <pt x="-85" y="121" on="0"/>
        <pt x="192" y="271" on="0"/>
        <pt x="412" y="297" on="1"/>
        <pt x="438" y="337" on="0"/>
        <pt x="580" y="504" on="0"/>
        <pt x="649" y="566" on="1"/>
        <pt x="679" y="636" on="0"/>
        <pt x="714" y="691" on="0"/>
        <pt x="748" y="691" on="0"/>
        <pt x="770" y="665" on="0"/>
        <pt x="770" y="624" on="0"/>
        <pt x="725" y="545" on="0"/>
        <pt x="677" y="380" on="0"/>
        <pt x="668" y="307" on="1"/>
        <pt x="720" y="307" on="0"/>
      </contour>
      <contour>
        <pt x="246" y="89" on="1"/>
        <pt x="329" y="168" on="0"/>
        <pt x="371" y="239" on="1"/>
        <pt x="203" y="229" on="0"/>
        <pt x="20" y="123" on="0"/>
        <pt x="20" y="63" on="1"/>
        <pt x="20" y="37" on="0"/>
        <pt x="55" y="7" on="0"/>
        <pt x="84" y="7" on="1"/>
        <pt x="162" y="7" on="0"/>
      </contour>
      <contour>
        <pt x="588" y="307" on="1"/>
        <pt x="595" y="341" on="0"/>
        <pt x="618" y="444" on="0"/>
        <pt x="620" y="453" on="1"/>
        <pt x="572" y="407" on="0"/>
        <pt x="534" y="364" on="0"/>
        <pt x="486" y="303" on="1"/>
        <pt x="503" y="304" on="0"/>
        <pt x="552" y="305" on="0"/>
        <pt x="584" y="307" on="0"/>
      </contour>
      <contour>
        <pt x="743" y="845" on="0"/>
        <pt x="774" y="819" on="0"/>
        <pt x="774" y="766" on="0"/>
        <pt x="722" y="720" on="0"/>
        <pt x="662" y="720" on="0"/>
        <pt x="631" y="747" on="0"/>
        <pt x="631" y="801" on="0"/>
        <pt x="682" y="845" on="0"/>
      </contour>
      <contour>
        <pt x="709" y="740" on="0"/>
        <pt x="735" y="778" on="0"/>
        <pt x="735" y="826" on="0"/>
        <pt x="714" y="826" on="1"/>
        <pt x="697" y="826" on="0"/>
        <pt x="669" y="787" on="0"/>
        <pt x="669" y="740" on="0"/>
        <pt x="693" y="740" on="1"/>
      </contour>
    </TTGlyph>
    <TTGlyph name="Atilde" xMin="-85" yMin="-76" xMax="816" yMax="843">
      <contour>
        <pt x="756" y="298" on="1"/>
        <pt x="751" y="238" on="1"/>
        <pt x="728" y="240" on="0"/>
        <pt x="675" y="240" on="0"/>
        <pt x="657" y="239" on="1"/>
        <pt x="643" y="129" on="0"/>
        <pt x="639" y="0" on="1"/>
        <pt x="569" y="0" on="1"/>
        <pt x="563" y="26" on="0"/>
        <pt x="563" y="112" on="0"/>
        <pt x="568" y="175" on="0"/>
        <pt x="576" y="237" on="0"/>
        <pt x="576" y="242" on="1"/>
        <pt x="562" y="243" on="0"/>
        <pt x="458" y="243" on="0"/>
        <pt x="438" y="241" on="1"/>
        <pt x="322" y="85" on="0"/>
        <pt x="126" y="-76" on="0"/>
        <pt x="28" y="-76" on="1"/>
        <pt x="-20" y="-76" on="0"/>
        <pt x="-85" y="-18" on="0"/>
        <pt x="-85" y="30" on="1"/>
        <pt x="-85" y="121" on="0"/>
        <pt x="192" y="271" on="0"/>
        <pt x="412" y="297" on="1"/>
        <pt x="438" y="337" on="0"/>
        <pt x="580" y="504" on="0"/>
        <pt x="649" y="566" on="1"/>
        <pt x="679" y="636" on="0"/>
        <pt x="714" y="691" on="0"/>
        <pt x="748" y="691" on="0"/>
        <pt x="770" y="665" on="0"/>
        <pt x="770" y="624" on="0"/>
        <pt x="725" y="545" on="0"/>
        <pt x="677" y="380" on="0"/>
        <pt x="668" y="307" on="1"/>
        <pt x="720" y="307" on="0"/>
      </contour>
      <contour>
        <pt x="246" y="89" on="1"/>
        <pt x="329" y="168" on="0"/>
        <pt x="371" y="239" on="1"/>
        <pt x="203" y="229" on="0"/>
        <pt x="20" y="123" on="0"/>
        <pt x="20" y="63" on="1"/>
        <pt x="20" y="37" on="0"/>
        <pt x="55" y="7" on="0"/>
        <pt x="84" y="7" on="1"/>
        <pt x="162" y="7" on="0"/>
      </contour>
      <contour>
        <pt x="588" y="307" on="1"/>
        <pt x="595" y="341" on="0"/>
        <pt x="618" y="444" on="0"/>
        <pt x="620" y="453" on="1"/>
        <pt x="572" y="407" on="0"/>
        <pt x="534" y="364" on="0"/>
        <pt x="486" y="303" on="1"/>
        <pt x="503" y="304" on="0"/>
        <pt x="552" y="305" on="0"/>
        <pt x="584" y="307" on="0"/>
      </contour>
      <contour>
        <pt x="793" y="816" on="1"/>
        <pt x="816" y="797" on="1"/>
        <pt x="797" y="767" on="0"/>
        <pt x="748" y="725" on="0"/>
        <pt x="707" y="725" on="0"/>
        <pt x="659" y="794" on="0"/>
        <pt x="639" y="794" on="1"/>
        <pt x="629" y="794" on="0"/>
        <pt x="609" y="780" on="0"/>
        <pt x="598" y="772" on="0"/>
        <pt x="578" y="756" on="0"/>
        <pt x="572" y="752" on="1"/>
        <pt x="544" y="778" on="1"/>
        <pt x="618" y="843" on="0"/>
        <pt x="669" y="843" on="0"/>
        <pt x="727" y="773" on="0"/>
        <pt x="742" y="773" on="1"/>
        <pt x="752" y="773" on="0"/>
        <pt x="785" y="809" on="0"/>
      </contour>
    </TTGlyph>
    <TTGlyph name="B" xMin="30" yMin="-183" xMax="637" yMax="638">
      <contour>
        <pt x="637" y="181" on="1"/>
        <pt x="636" y="142" on="1"/>
        <pt x="581" y="140" on="1"/>
        <pt x="569" y="70" on="0"/>
        <pt x="516" y="-16" on="0"/>
        <pt x="392" y="-116" on="0"/>
        <pt x="219" y="-183" on="0"/>
        <pt x="103" y="-183" on="0"/>
        <pt x="43" y="-136" on="0"/>
        <pt x="43" y="-98" on="1"/>
        <pt x="43" y="-40" on="0"/>
        <pt x="180" y="77" on="0"/>
        <pt x="375" y="156" on="0"/>
        <pt x="471" y="170" on="1"/>
        <pt x="456" y="195" on="0"/>
        <pt x="395" y="227" on="0"/>
        <pt x="322" y="247" on="1"/>
        <pt x="282" y="258" on="0"/>
        <pt x="282" y="283" on="1"/>
        <pt x="282" y="298" on="0"/>
        <pt x="307" y="323" on="0"/>
        <pt x="366" y="358" on="0"/>
        <pt x="419" y="395" on="0"/>
        <pt x="484" y="447" on="0"/>
        <pt x="528" y="503" on="0"/>
        <pt x="528" y="524" on="1"/>
        <pt x="528" y="559" on="0"/>
        <pt x="493" y="559" on="1"/>
        <pt x="466" y="559" on="0"/>
        <pt x="373" y="508" on="0"/>
        <pt x="328" y="468" on="1"/>
        <pt x="285" y="332" on="1"/>
        <pt x="240" y="189" on="0"/>
        <pt x="131" y="31" on="0"/>
        <pt x="82" y="31" on="1"/>
        <pt x="30" y="31" on="0"/>
        <pt x="30" y="159" on="0"/>
        <pt x="154" y="358" on="0"/>
        <pt x="264" y="463" on="1"/>
        <pt x="264" y="464" on="0"/>
        <pt x="275" y="499" on="0"/>
        <pt x="280" y="517" on="1"/>
        <pt x="297" y="571" on="0"/>
        <pt x="306" y="586" on="1"/>
        <pt x="355" y="578" on="1"/>
        <pt x="355" y="559" on="0"/>
        <pt x="347" y="533" on="1"/>
        <pt x="403" y="575" on="0"/>
        <pt x="528" y="638" on="0"/>
        <pt x="587" y="638" on="0"/>
        <pt x="623" y="601" on="0"/>
        <pt x="623" y="530" on="0"/>
        <pt x="556" y="438" on="0"/>
        <pt x="506" y="401" on="1"/>
        <pt x="415" y="333" on="0"/>
        <pt x="351" y="303" on="1"/>
        <pt x="455" y="287" on="0"/>
        <pt x="551" y="234" on="0"/>
        <pt x="573" y="181" on="1"/>
      </contour>
      <contour>
        <pt x="151" y="158" on="1"/>
        <pt x="221" y="271" on="0"/>
        <pt x="244" y="390" on="1"/>
        <pt x="190" y="331" on="0"/>
        <pt x="102" y="179" on="0"/>
        <pt x="102" y="145" on="1"/>
        <pt x="102" y="124" on="0"/>
        <pt x="131" y="124" on="0"/>
      </contour>
      <contour>
        <pt x="383" y="-56" on="1"/>
        <pt x="432" y="-23" on="0"/>
        <pt x="490" y="59" on="0"/>
        <pt x="490" y="95" on="1"/>
        <pt x="490" y="112" on="0"/>
        <pt x="485" y="129" on="1"/>
        <pt x="335" y="111" on="0"/>
        <pt x="141" y="-10" on="0"/>
        <pt x="141" y="-65" on="1"/>
        <pt x="141" y="-89" on="0"/>
        <pt x="179" y="-118" on="0"/>
        <pt x="212" y="-118" on="1"/>
        <pt x="293" y="-118" on="0"/>
      </contour>
    </TTGlyph>
    <TTGlyph name="C" xMin="30" yMin="-10" xMax="578" yMax="632">
      <contour>
        <pt x="500" y="632" on="1"/>
        <pt x="537" y="632" on="0"/>
        <pt x="578" y="591" on="0"/>
        <pt x="578" y="556" on="1"/>
        <pt x="578" y="478" on="0"/>
        <pt x="392" y="345" on="0"/>
        <pt x="273" y="345" on="1"/>
        <pt x="221" y="345" on="0"/>
        <pt x="163" y="360" on="1"/>
        <pt x="125" y="298" on="0"/>
        <pt x="125" y="153" on="0"/>
        <pt x="205" y="64" on="0"/>
        <pt x="282" y="64" on="1"/>
        <pt x="420" y="64" on="0"/>
        <pt x="463" y="225" on="1"/>
        <pt x="510" y="225" on="1"/>
        <pt x="499" y="132" on="0"/>
        <pt x="346" y="-10" on="0"/>
        <pt x="221" y="-10" on="1"/>
        <pt x="155" y="-10" on="0"/>
        <pt x="41" y="87" on="0"/>
        <pt x="41" y="271" on="0"/>
        <pt x="111" y="380" on="1"/>
        <pt x="60" y="410" on="0"/>
        <pt x="30" y="454" on="1"/>
        <pt x="57" y="484" on="1"/>
        <pt x="64" y="477" on="0"/>
        <pt x="76" y="463" on="1"/>
        <pt x="99" y="436" on="0"/>
        <pt x="138" y="416" on="1"/>
        <pt x="197" y="498" on="0"/>
        <pt x="422" y="632" on="0"/>
      </contour>
      <contour>
        <pt x="270" y="385" on="1"/>
        <pt x="357" y="385" on="0"/>
        <pt x="489" y="467" on="0"/>
        <pt x="489" y="522" on="1"/>
        <pt x="489" y="541" on="0"/>
        <pt x="462" y="564" on="0"/>
        <pt x="441" y="564" on="1"/>
        <pt x="380" y="564" on="0"/>
        <pt x="230" y="467" on="0"/>
        <pt x="186" y="399" on="1"/>
        <pt x="222" y="385" on="0"/>
      </contour>
    </TTGlyph>
    <TTGlyph name="Cacute" xMin="40" yMin="-10" xMax="588" yMax="764">
      <contour>
        <pt x="510" y="632" on="1"/>
        <pt x="547" y="632" on="0"/>
        <pt x="588" y="591" on="0"/>
        <pt x="588" y="556" on="1"/>
        <pt x="588" y="478" on="0"/>
        <pt x="402" y="345" on="0"/>
        <pt x="283" y="345" on="1"/>
        <pt x="231" y="345" on="0"/>
        <pt x="173" y="360" on="1"/>
        <pt x="135" y="298" on="0"/>
        <pt x="135" y="153" on="0"/>
        <pt x="215" y="64" on="0"/>
        <pt x="292" y="64" on="1"/>
        <pt x="430" y="64" on="0"/>
        <pt x="473" y="225" on="1"/>
        <pt x="520" y="225" on="1"/>
        <pt x="509" y="132" on="0"/>
        <pt x="356" y="-10" on="0"/>
        <pt x="231" y="-10" on="1"/>
        <pt x="165" y="-10" on="0"/>
        <pt x="51" y="87" on="0"/>
        <pt x="51" y="271" on="0"/>
        <pt x="121" y="380" on="1"/>
        <pt x="70" y="410" on="0"/>
        <pt x="40" y="454" on="1"/>
        <pt x="67" y="484" on="1"/>
        <pt x="74" y="477" on="0"/>
        <pt x="86" y="463" on="1"/>
        <pt x="109" y="436" on="0"/>
        <pt x="148" y="416" on="1"/>
        <pt x="207" y="498" on="0"/>
        <pt x="432" y="632" on="0"/>
      </contour>
      <contour>
        <pt x="280" y="385" on="1"/>
        <pt x="367" y="385" on="0"/>
        <pt x="499" y="467" on="0"/>
        <pt x="499" y="522" on="1"/>
        <pt x="499" y="541" on="0"/>
        <pt x="472" y="564" on="0"/>
        <pt x="451" y="564" on="1"/>
        <pt x="390" y="564" on="0"/>
        <pt x="240" y="467" on="0"/>
        <pt x="196" y="399" on="1"/>
        <pt x="232" y="385" on="0"/>
      </contour>
      <contour>
        <pt x="524" y="724" on="1"/>
        <pt x="353" y="668" on="1"/>
        <pt x="324" y="686" on="1"/>
        <pt x="456" y="764" on="1"/>
      </contour>
    </TTGlyph>
    <TTGlyph name="Ccaron" xMin="40" yMin="-10" xMax="588" yMax="803">
      <contour>
        <pt x="510" y="632" on="1"/>
        <pt x="547" y="632" on="0"/>
        <pt x="588" y="591" on="0"/>
        <pt x="588" y="556" on="1"/>
        <pt x="588" y="478" on="0"/>
        <pt x="402" y="345" on="0"/>
        <pt x="283" y="345" on="1"/>
        <pt x="231" y="345" on="0"/>
        <pt x="173" y="360" on="1"/>
        <pt x="135" y="298" on="0"/>
        <pt x="135" y="153" on="0"/>
        <pt x="215" y="64" on="0"/>
        <pt x="292" y="64" on="1"/>
        <pt x="430" y="64" on="0"/>
        <pt x="473" y="225" on="1"/>
        <pt x="520" y="225" on="1"/>
        <pt x="509" y="132" on="0"/>
        <pt x="356" y="-10" on="0"/>
        <pt x="231" y="-10" on="1"/>
        <pt x="165" y="-10" on="0"/>
        <pt x="51" y="87" on="0"/>
        <pt x="51" y="271" on="0"/>
        <pt x="121" y="380" on="1"/>
        <pt x="70" y="410" on="0"/>
        <pt x="40" y="454" on="1"/>
        <pt x="67" y="484" on="1"/>
        <pt x="74" y="477" on="0"/>
        <pt x="86" y="463" on="1"/>
        <pt x="109" y="436" on="0"/>
        <pt x="148" y="416" on="1"/>
        <pt x="207" y="498" on="0"/>
        <pt x="432" y="632" on="0"/>
      </contour>
      <contour>
        <pt x="280" y="385" on="1"/>
        <pt x="367" y="385" on="0"/>
        <pt x="499" y="467" on="0"/>
        <pt x="499" y="522" on="1"/>
        <pt x="499" y="541" on="0"/>
        <pt x="472" y="564" on="0"/>
        <pt x="451" y="564" on="1"/>
        <pt x="390" y="564" on="0"/>
        <pt x="240" y="467" on="0"/>
        <pt x="196" y="399" on="1"/>
        <pt x="232" y="385" on="0"/>
      </contour>
      <contour>
        <pt x="435" y="665" on="1"/>
        <pt x="288" y="779" on="1"/>
        <pt x="332" y="803" on="1"/>
        <pt x="387" y="761" on="0"/>
        <pt x="431" y="733" on="1"/>
        <pt x="449" y="746" on="0"/>
        <pt x="534" y="797" on="1"/>
        <pt x="564" y="773" on="1"/>
        <pt x="549" y="756" on="0"/>
        <pt x="462" y="687" on="1"/>
      </contour>
    </TTGlyph>
    <TTGlyph name="Ccedilla" xMin="40" yMin="-197" xMax="588" yMax="632">
      <contour>
        <pt x="210" y="-55" on="1"/>
        <pt x="234" y="-42" on="0"/>
        <pt x="299" y="-42" on="0"/>
        <pt x="332" y="-68" on="0"/>
        <pt x="332" y="-88" on="1"/>
        <pt x="332" y="-125" on="0"/>
        <pt x="226" y="-197" on="0"/>
        <pt x="164" y="-197" on="1"/>
        <pt x="154" y="-197" on="0"/>
        <pt x="140" y="-194" on="1"/>
        <pt x="141" y="-170" on="1"/>
        <pt x="192" y="-170" on="0"/>
        <pt x="262" y="-126" on="0"/>
        <pt x="262" y="-102" on="1"/>
        <pt x="262" y="-94" on="0"/>
        <pt x="247" y="-82" on="0"/>
        <pt x="226" y="-82" on="0"/>
        <pt x="205" y="-96" on="1"/>
        <pt x="181" y="-109" on="0"/>
        <pt x="167" y="-109" on="0"/>
        <pt x="157" y="-101" on="0"/>
        <pt x="157" y="-96" on="1"/>
        <pt x="157" y="-79" on="0"/>
        <pt x="195" y="-6" on="1"/>
        <pt x="136" y="7" on="0"/>
        <pt x="51" y="99" on="0"/>
        <pt x="51" y="174" on="1"/>
        <pt x="51" y="271" on="0"/>
        <pt x="121" y="380" on="1"/>
        <pt x="70" y="410" on="0"/>
        <pt x="40" y="454" on="1"/>
        <pt x="67" y="484" on="1"/>
        <pt x="74" y="477" on="0"/>
        <pt x="86" y="463" on="1"/>
        <pt x="109" y="436" on="0"/>
        <pt x="148" y="416" on="1"/>
        <pt x="207" y="498" on="0"/>
        <pt x="432" y="632" on="0"/>
        <pt x="510" y="632" on="1"/>
        <pt x="547" y="632" on="0"/>
        <pt x="588" y="591" on="0"/>
        <pt x="588" y="556" on="1"/>
        <pt x="588" y="478" on="0"/>
        <pt x="402" y="345" on="0"/>
        <pt x="283" y="345" on="1"/>
        <pt x="231" y="345" on="0"/>
        <pt x="173" y="360" on="1"/>
        <pt x="135" y="298" on="0"/>
        <pt x="135" y="153" on="0"/>
        <pt x="215" y="64" on="0"/>
        <pt x="292" y="64" on="1"/>
        <pt x="430" y="64" on="0"/>
        <pt x="473" y="225" on="1"/>
        <pt x="520" y="225" on="1"/>
        <pt x="509" y="132" on="0"/>
        <pt x="356" y="-10" on="0"/>
        <pt x="231" y="-10" on="1"/>
      </contour>
      <contour>
        <pt x="280" y="385" on="1"/>
        <pt x="367" y="385" on="0"/>
        <pt x="499" y="467" on="0"/>
        <pt x="499" y="522" on="1"/>
        <pt x="499" y="541" on="0"/>
        <pt x="472" y="564" on="0"/>
        <pt x="451" y="564" on="1"/>
        <pt x="390" y="564" on="0"/>
        <pt x="240" y="467" on="0"/>
        <pt x="196" y="399" on="1"/>
        <pt x="232" y="385" on="0"/>
      </contour>
    </TTGlyph>
    <TTGlyph name="Ccircumflex" xMin="25" yMin="-10" xMax="573" yMax="789">
      <contour>
        <pt x="495" y="632" on="1"/>
        <pt x="532" y="632" on="0"/>
        <pt x="573" y="591" on="0"/>
        <pt x="573" y="556" on="1"/>
        <pt x="573" y="478" on="0"/>
        <pt x="387" y="345" on="0"/>
        <pt x="268" y="345" on="1"/>
        <pt x="216" y="345" on="0"/>
        <pt x="158" y="360" on="1"/>
        <pt x="120" y="298" on="0"/>
        <pt x="120" y="153" on="0"/>
        <pt x="200" y="64" on="0"/>
        <pt x="277" y="64" on="1"/>
        <pt x="415" y="64" on="0"/>
        <pt x="458" y="225" on="1"/>
        <pt x="505" y="225" on="1"/>
        <pt x="494" y="132" on="0"/>
        <pt x="341" y="-10" on="0"/>
        <pt x="216" y="-10" on="1"/>
        <pt x="150" y="-10" on="0"/>
        <pt x="36" y="87" on="0"/>
        <pt x="36" y="271" on="0"/>
        <pt x="106" y="380" on="1"/>
        <pt x="55" y="410" on="0"/>
        <pt x="25" y="454" on="1"/>
        <pt x="52" y="484" on="1"/>
        <pt x="59" y="477" on="0"/>
        <pt x="71" y="463" on="1"/>
        <pt x="94" y="436" on="0"/>
        <pt x="133" y="416" on="1"/>
        <pt x="192" y="498" on="0"/>
        <pt x="417" y="632" on="0"/>
      </contour>
      <contour>
        <pt x="265" y="385" on="1"/>
        <pt x="352" y="385" on="0"/>
        <pt x="484" y="467" on="0"/>
        <pt x="484" y="522" on="1"/>
        <pt x="484" y="541" on="0"/>
        <pt x="457" y="564" on="0"/>
        <pt x="436" y="564" on="1"/>
        <pt x="375" y="564" on="0"/>
        <pt x="225" y="467" on="0"/>
        <pt x="181" y="399" on="1"/>
        <pt x="217" y="385" on="0"/>
      </contour>
      <contour>
        <pt x="275" y="675" on="1"/>
        <pt x="422" y="789" on="1"/>
        <pt x="530" y="703" on="0"/>
        <pt x="551" y="681" on="1"/>
        <pt x="521" y="657" on="1"/>
        <pt x="436" y="708" on="0"/>
        <pt x="418" y="721" on="1"/>
        <pt x="319" y="651" on="1"/>
      </contour>
    </TTGlyph>
    <TTGlyph name="Cdotaccent" xMin="25" yMin="-10" xMax="573" yMax="775">
      <contour>
        <pt x="495" y="632" on="1"/>
        <pt x="532" y="632" on="0"/>
        <pt x="573" y="591" on="0"/>
        <pt x="573" y="556" on="1"/>
        <pt x="573" y="478" on="0"/>
        <pt x="387" y="345" on="0"/>
        <pt x="268" y="345" on="1"/>
        <pt x="216" y="345" on="0"/>
        <pt x="158" y="360" on="1"/>
        <pt x="120" y="298" on="0"/>
        <pt x="120" y="153" on="0"/>
        <pt x="200" y="64" on="0"/>
        <pt x="277" y="64" on="1"/>
        <pt x="415" y="64" on="0"/>
        <pt x="458" y="225" on="1"/>
        <pt x="505" y="225" on="1"/>
        <pt x="494" y="132" on="0"/>
        <pt x="341" y="-10" on="0"/>
        <pt x="216" y="-10" on="1"/>
        <pt x="150" y="-10" on="0"/>
        <pt x="36" y="87" on="0"/>
        <pt x="36" y="271" on="0"/>
        <pt x="106" y="380" on="1"/>
        <pt x="55" y="410" on="0"/>
        <pt x="25" y="454" on="1"/>
        <pt x="52" y="484" on="1"/>
        <pt x="59" y="477" on="0"/>
        <pt x="71" y="463" on="1"/>
        <pt x="94" y="436" on="0"/>
        <pt x="133" y="416" on="1"/>
        <pt x="192" y="498" on="0"/>
        <pt x="417" y="632" on="0"/>
      </contour>
      <contour>
        <pt x="265" y="385" on="1"/>
        <pt x="352" y="385" on="0"/>
        <pt x="484" y="467" on="0"/>
        <pt x="484" y="522" on="1"/>
        <pt x="484" y="541" on="0"/>
        <pt x="457" y="564" on="0"/>
        <pt x="436" y="564" on="1"/>
        <pt x="375" y="564" on="0"/>
        <pt x="225" y="467" on="0"/>
        <pt x="181" y="399" on="1"/>
        <pt x="217" y="385" on="0"/>
      </contour>
      <contour>
        <pt x="381" y="718" on="0"/>
        <pt x="381" y="752" on="0"/>
        <pt x="404" y="775" on="0"/>
        <pt x="436" y="775" on="0"/>
        <pt x="460" y="752" on="0"/>
        <pt x="460" y="719" on="0"/>
        <pt x="437" y="696" on="0"/>
        <pt x="404" y="696" on="0"/>
      </contour>
    </TTGlyph>
    <TTGlyph name="D" xMin="-10" yMin="-2" xMax="654" yMax="638">
      <contour>
        <pt x="233" y="638" on="1"/>
        <pt x="407" y="638" on="0"/>
        <pt x="654" y="432" on="0"/>
        <pt x="654" y="156" on="0"/>
        <pt x="486" y="-4" on="0"/>
        <pt x="357" y="-2" on="1"/>
        <pt x="288" y="-1" on="0"/>
        <pt x="247" y="-1" on="1"/>
        <pt x="200" y="-1" on="1"/>
        <pt x="171" y="-1" on="0"/>
        <pt x="171" y="21" on="1"/>
        <pt x="171" y="29" on="0"/>
        <pt x="188" y="62" on="1"/>
        <pt x="244" y="174" on="0"/>
        <pt x="273" y="291" on="1"/>
        <pt x="170" y="291" on="0"/>
        <pt x="-10" y="405" on="0"/>
        <pt x="-10" y="550" on="0"/>
        <pt x="126" y="638" on="0"/>
      </contour>
      <contour>
        <pt x="229" y="597" on="1"/>
        <pt x="163" y="597" on="0"/>
        <pt x="87" y="541" on="0"/>
        <pt x="87" y="432" on="0"/>
        <pt x="192" y="347" on="0"/>
        <pt x="280" y="336" on="1"/>
        <pt x="311" y="467" on="0"/>
        <pt x="316" y="505" on="1"/>
        <pt x="376" y="499" on="1"/>
        <pt x="376" y="437" on="0"/>
        <pt x="350" y="335" on="1"/>
        <pt x="358" y="335" on="0"/>
        <pt x="443" y="345" on="1"/>
        <pt x="448" y="312" on="1"/>
        <pt x="428" y="305" on="0"/>
        <pt x="337" y="291" on="1"/>
        <pt x="298" y="165" on="0"/>
        <pt x="256" y="73" on="1"/>
        <pt x="356" y="65" on="0"/>
        <pt x="489" y="65" on="0"/>
        <pt x="567" y="164" on="0"/>
        <pt x="567" y="248" on="1"/>
        <pt x="567" y="393" on="0"/>
        <pt x="369" y="597" on="0"/>
      </contour>
    </TTGlyph>
    <TTGlyph name="Dcaron" xMin="0" yMin="-2" xMax="664" yMax="795">
      <contour>
        <pt x="243" y="638" on="1"/>
        <pt x="417" y="638" on="0"/>
        <pt x="664" y="432" on="0"/>
        <pt x="664" y="156" on="0"/>
        <pt x="496" y="-4" on="0"/>
        <pt x="367" y="-2" on="1"/>
        <pt x="298" y="-1" on="0"/>
        <pt x="257" y="-1" on="1"/>
        <pt x="210" y="-1" on="1"/>
        <pt x="181" y="-1" on="0"/>
        <pt x="181" y="21" on="1"/>
        <pt x="181" y="29" on="0"/>
        <pt x="198" y="62" on="1"/>
        <pt x="254" y="174" on="0"/>
        <pt x="283" y="291" on="1"/>
        <pt x="180" y="291" on="0"/>
        <pt x="0" y="405" on="0"/>
        <pt x="0" y="550" on="0"/>
        <pt x="136" y="638" on="0"/>
      </contour>
      <contour>
        <pt x="239" y="597" on="1"/>
        <pt x="173" y="597" on="0"/>
        <pt x="97" y="541" on="0"/>
        <pt x="97" y="432" on="0"/>
        <pt x="202" y="347" on="0"/>
        <pt x="290" y="336" on="1"/>
        <pt x="321" y="467" on="0"/>
        <pt x="326" y="505" on="1"/>
        <pt x="386" y="499" on="1"/>
        <pt x="386" y="437" on="0"/>
        <pt x="360" y="335" on="1"/>
        <pt x="368" y="335" on="0"/>
        <pt x="453" y="345" on="1"/>
        <pt x="458" y="312" on="1"/>
        <pt x="438" y="305" on="0"/>
        <pt x="347" y="291" on="1"/>
        <pt x="308" y="165" on="0"/>
        <pt x="266" y="73" on="1"/>
        <pt x="366" y="65" on="0"/>
        <pt x="499" y="65" on="0"/>
        <pt x="577" y="164" on="0"/>
        <pt x="577" y="248" on="1"/>
        <pt x="577" y="393" on="0"/>
        <pt x="379" y="597" on="0"/>
      </contour>
      <contour>
        <pt x="361" y="657" on="1"/>
        <pt x="214" y="771" on="1"/>
        <pt x="258" y="795" on="1"/>
        <pt x="313" y="753" on="0"/>
        <pt x="357" y="725" on="1"/>
        <pt x="375" y="738" on="0"/>
        <pt x="460" y="789" on="1"/>
        <pt x="490" y="765" on="1"/>
        <pt x="475" y="748" on="0"/>
        <pt x="388" y="679" on="1"/>
      </contour>
    </TTGlyph>
    <TTGlyph name="Dcroat" xMin="40" yMin="-2" xMax="704" yMax="638">
      <contour>
        <pt x="283" y="638" on="1"/>
        <pt x="457" y="638" on="0"/>
        <pt x="704" y="432" on="0"/>
        <pt x="704" y="156" on="0"/>
        <pt x="536" y="-4" on="0"/>
        <pt x="407" y="-2" on="1"/>
        <pt x="338" y="-1" on="0"/>
        <pt x="297" y="-1" on="1"/>
        <pt x="250" y="-1" on="1"/>
        <pt x="221" y="-1" on="0"/>
        <pt x="221" y="21" on="1"/>
        <pt x="221" y="26" on="0"/>
        <pt x="271" y="132" on="0"/>
        <pt x="280" y="155" on="1"/>
        <pt x="171" y="139" on="1"/>
        <pt x="181" y="200" on="1"/>
        <pt x="245" y="211" on="0"/>
        <pt x="302" y="217" on="1"/>
        <pt x="314" y="252" on="0"/>
        <pt x="323" y="291" on="1"/>
        <pt x="220" y="291" on="0"/>
        <pt x="40" y="405" on="0"/>
        <pt x="40" y="550" on="0"/>
        <pt x="176" y="638" on="0"/>
      </contour>
      <contour>
        <pt x="496" y="235" on="1"/>
        <pt x="496" y="188" on="1"/>
        <pt x="345" y="165" on="1"/>
        <pt x="326" y="118" on="0"/>
        <pt x="306" y="73" on="1"/>
        <pt x="406" y="65" on="0"/>
        <pt x="539" y="65" on="0"/>
        <pt x="617" y="164" on="0"/>
        <pt x="617" y="248" on="1"/>
        <pt x="617" y="393" on="0"/>
        <pt x="419" y="597" on="0"/>
        <pt x="279" y="597" on="1"/>
        <pt x="213" y="597" on="0"/>
        <pt x="137" y="541" on="0"/>
        <pt x="137" y="432" on="0"/>
        <pt x="242" y="347" on="0"/>
        <pt x="330" y="336" on="1"/>
        <pt x="361" y="467" on="0"/>
        <pt x="366" y="505" on="1"/>
        <pt x="426" y="499" on="1"/>
        <pt x="426" y="437" on="0"/>
        <pt x="400" y="335" on="1"/>
        <pt x="408" y="335" on="0"/>
        <pt x="493" y="345" on="1"/>
        <pt x="498" y="312" on="1"/>
        <pt x="478" y="305" on="0"/>
        <pt x="387" y="291" on="1"/>
        <pt x="371" y="240" on="0"/>
        <pt x="366" y="225" on="1"/>
        <pt x="416" y="230" on="0"/>
      </contour>
    </TTGlyph>
    <TTGlyph name="E" xMin="30" yMin="-128" xMax="639" yMax="638">
      <contour>
        <pt x="639" y="574" on="1"/>
        <pt x="639" y="524" on="0"/>
        <pt x="544" y="446" on="0"/>
        <pt x="421" y="410" on="0"/>
        <pt x="364" y="410" on="1"/>
        <pt x="349" y="410" on="0"/>
        <pt x="342" y="411" on="1"/>
        <pt x="342" y="445" on="1"/>
        <pt x="344" y="445" on="0"/>
        <pt x="456" y="464" on="0"/>
        <pt x="533" y="512" on="0"/>
        <pt x="533" y="542" on="1"/>
        <pt x="533" y="578" on="0"/>
        <pt x="479" y="578" on="1"/>
        <pt x="406" y="578" on="0"/>
        <pt x="276" y="478" on="0"/>
        <pt x="276" y="368" on="0"/>
        <pt x="344" y="352" on="1"/>
        <pt x="359" y="348" on="0"/>
        <pt x="369" y="340" on="0"/>
        <pt x="369" y="320" on="0"/>
        <pt x="350" y="307" on="0"/>
        <pt x="316" y="295" on="1"/>
        <pt x="132" y="232" on="0"/>
        <pt x="132" y="99" on="1"/>
        <pt x="132" y="72" on="0"/>
        <pt x="142" y="53" on="1"/>
        <pt x="203" y="131" on="0"/>
        <pt x="397" y="229" on="0"/>
        <pt x="487" y="229" on="1"/>
        <pt x="534" y="229" on="0"/>
        <pt x="590" y="188" on="0"/>
        <pt x="590" y="152" on="1"/>
        <pt x="590" y="96" on="0"/>
        <pt x="486" y="-16" on="0"/>
        <pt x="321" y="-87" on="0"/>
        <pt x="158" y="-87" on="0"/>
        <pt x="111" y="-57" on="1"/>
        <pt x="110" y="-58" on="0"/>
        <pt x="102" y="-72" on="1"/>
        <pt x="82" y="-112" on="0"/>
        <pt x="68" y="-128" on="1"/>
        <pt x="35" y="-114" on="1"/>
        <pt x="42" y="-86" on="0"/>
        <pt x="76" y="-29" on="1"/>
        <pt x="30" y="23" on="0"/>
        <pt x="30" y="152" on="0"/>
        <pt x="135" y="269" on="0"/>
        <pt x="229" y="307" on="1"/>
        <pt x="182" y="346" on="0"/>
        <pt x="182" y="388" on="1"/>
        <pt x="182" y="445" on="0"/>
        <pt x="302" y="564" on="0"/>
        <pt x="475" y="638" on="0"/>
        <pt x="551" y="638" on="1"/>
        <pt x="591" y="638" on="0"/>
        <pt x="639" y="603" on="0"/>
      </contour>
      <contour>
        <pt x="429" y="169" on="1"/>
        <pt x="370" y="169" on="0"/>
        <pt x="213" y="79" on="0"/>
        <pt x="164" y="17" on="1"/>
        <pt x="204" y="-28" on="0"/>
        <pt x="351" y="-28" on="0"/>
        <pt x="492" y="67" on="0"/>
        <pt x="492" y="122" on="1"/>
        <pt x="492" y="144" on="0"/>
        <pt x="458" y="169" on="0"/>
      </contour>
    </TTGlyph>
    <TTGlyph name="Eacute" xMin="40" yMin="-128" xMax="649" yMax="762">
      <contour>
        <pt x="649" y="574" on="1"/>
        <pt x="649" y="524" on="0"/>
        <pt x="554" y="446" on="0"/>
        <pt x="431" y="410" on="0"/>
        <pt x="374" y="410" on="1"/>
        <pt x="359" y="410" on="0"/>
        <pt x="352" y="411" on="1"/>
        <pt x="352" y="445" on="1"/>
        <pt x="354" y="445" on="0"/>
        <pt x="466" y="464" on="0"/>
        <pt x="543" y="512" on="0"/>
        <pt x="543" y="542" on="1"/>
        <pt x="543" y="578" on="0"/>
        <pt x="489" y="578" on="1"/>
        <pt x="416" y="578" on="0"/>
        <pt x="286" y="478" on="0"/>
        <pt x="286" y="368" on="0"/>
        <pt x="354" y="352" on="1"/>
        <pt x="369" y="348" on="0"/>
        <pt x="379" y="340" on="0"/>
        <pt x="379" y="320" on="0"/>
        <pt x="360" y="307" on="0"/>
        <pt x="326" y="295" on="1"/>
        <pt x="142" y="232" on="0"/>
        <pt x="142" y="99" on="1"/>
        <pt x="142" y="72" on="0"/>
        <pt x="152" y="53" on="1"/>
        <pt x="213" y="131" on="0"/>
        <pt x="407" y="229" on="0"/>
        <pt x="497" y="229" on="1"/>
        <pt x="544" y="229" on="0"/>
        <pt x="600" y="188" on="0"/>
        <pt x="600" y="152" on="1"/>
        <pt x="600" y="96" on="0"/>
        <pt x="496" y="-16" on="0"/>
        <pt x="331" y="-87" on="0"/>
        <pt x="168" y="-87" on="0"/>
        <pt x="121" y="-57" on="1"/>
        <pt x="120" y="-58" on="0"/>
        <pt x="112" y="-72" on="1"/>
        <pt x="92" y="-112" on="0"/>
        <pt x="78" y="-128" on="1"/>
        <pt x="45" y="-114" on="1"/>
        <pt x="52" y="-86" on="0"/>
        <pt x="86" y="-29" on="1"/>
        <pt x="40" y="23" on="0"/>
        <pt x="40" y="152" on="0"/>
        <pt x="145" y="269" on="0"/>
        <pt x="239" y="307" on="1"/>
        <pt x="192" y="346" on="0"/>
        <pt x="192" y="388" on="1"/>
        <pt x="192" y="445" on="0"/>
        <pt x="312" y="564" on="0"/>
        <pt x="485" y="638" on="0"/>
        <pt x="561" y="638" on="1"/>
        <pt x="601" y="638" on="0"/>
        <pt x="649" y="603" on="0"/>
      </contour>
      <contour>
        <pt x="439" y="169" on="1"/>
        <pt x="380" y="169" on="0"/>
        <pt x="223" y="79" on="0"/>
        <pt x="174" y="17" on="1"/>
        <pt x="214" y="-28" on="0"/>
        <pt x="361" y="-28" on="0"/>
        <pt x="502" y="67" on="0"/>
        <pt x="502" y="122" on="1"/>
        <pt x="502" y="144" on="0"/>
        <pt x="468" y="169" on="0"/>
      </contour>
      <contour>
        <pt x="595" y="722" on="1"/>
        <pt x="424" y="666" on="1"/>
        <pt x="395" y="684" on="1"/>
        <pt x="527" y="762" on="1"/>
      </contour>
    </TTGlyph>
    <TTGlyph name="Ebreve" xMin="25" yMin="-128" xMax="634" yMax="783">
      <contour>
        <pt x="634" y="574" on="1"/>
        <pt x="634" y="524" on="0"/>
        <pt x="539" y="446" on="0"/>
        <pt x="416" y="410" on="0"/>
        <pt x="359" y="410" on="1"/>
        <pt x="344" y="410" on="0"/>
        <pt x="337" y="411" on="1"/>
        <pt x="337" y="445" on="1"/>
        <pt x="339" y="445" on="0"/>
        <pt x="451" y="464" on="0"/>
        <pt x="528" y="512" on="0"/>
        <pt x="528" y="542" on="1"/>
        <pt x="528" y="578" on="0"/>
        <pt x="474" y="578" on="1"/>
        <pt x="401" y="578" on="0"/>
        <pt x="271" y="478" on="0"/>
        <pt x="271" y="368" on="0"/>
        <pt x="339" y="352" on="1"/>
        <pt x="354" y="348" on="0"/>
        <pt x="364" y="340" on="0"/>
        <pt x="364" y="320" on="0"/>
        <pt x="345" y="307" on="0"/>
        <pt x="311" y="295" on="1"/>
        <pt x="127" y="232" on="0"/>
        <pt x="127" y="99" on="1"/>
        <pt x="127" y="72" on="0"/>
        <pt x="137" y="53" on="1"/>
        <pt x="198" y="131" on="0"/>
        <pt x="392" y="229" on="0"/>
        <pt x="482" y="229" on="1"/>
        <pt x="529" y="229" on="0"/>
        <pt x="585" y="188" on="0"/>
        <pt x="585" y="152" on="1"/>
        <pt x="585" y="96" on="0"/>
        <pt x="481" y="-16" on="0"/>
        <pt x="316" y="-87" on="0"/>
        <pt x="152" y="-87" on="0"/>
        <pt x="106" y="-57" on="1"/>
        <pt x="105" y="-58" on="0"/>
        <pt x="98" y="-72" on="1"/>
        <pt x="77" y="-112" on="0"/>
        <pt x="63" y="-128" on="1"/>
        <pt x="30" y="-114" on="1"/>
        <pt x="37" y="-86" on="0"/>
        <pt x="71" y="-29" on="1"/>
        <pt x="25" y="23" on="0"/>
        <pt x="25" y="152" on="0"/>
        <pt x="130" y="269" on="0"/>
        <pt x="224" y="307" on="1"/>
        <pt x="177" y="346" on="0"/>
        <pt x="177" y="388" on="1"/>
        <pt x="177" y="445" on="0"/>
        <pt x="297" y="564" on="0"/>
        <pt x="470" y="638" on="0"/>
        <pt x="546" y="638" on="1"/>
        <pt x="586" y="638" on="0"/>
        <pt x="634" y="603" on="0"/>
      </contour>
      <contour>
        <pt x="424" y="169" on="1"/>
        <pt x="365" y="169" on="0"/>
        <pt x="208" y="79" on="0"/>
        <pt x="159" y="17" on="1"/>
        <pt x="199" y="-28" on="0"/>
        <pt x="346" y="-28" on="0"/>
        <pt x="487" y="67" on="0"/>
        <pt x="487" y="122" on="1"/>
        <pt x="487" y="144" on="0"/>
        <pt x="453" y="169" on="0"/>
      </contour>
      <contour>
        <pt x="578" y="780" on="1"/>
        <pt x="608" y="764" on="1"/>
        <pt x="588" y="733" on="0"/>
        <pt x="525" y="685" on="0"/>
        <pt x="463" y="685" on="0"/>
        <pt x="395" y="732" on="0"/>
        <pt x="374" y="756" on="1"/>
        <pt x="406" y="783" on="1"/>
        <pt x="458" y="732" on="0"/>
        <pt x="491" y="732" on="1"/>
        <pt x="542" y="732" on="0"/>
      </contour>
    </TTGlyph>
    <TTGlyph name="Ecaron" xMin="40" yMin="-128" xMax="649" yMax="818">
      <contour>
        <pt x="649" y="574" on="1"/>
        <pt x="649" y="524" on="0"/>
        <pt x="554" y="446" on="0"/>
        <pt x="431" y="410" on="0"/>
        <pt x="374" y="410" on="1"/>
        <pt x="359" y="410" on="0"/>
        <pt x="352" y="411" on="1"/>
        <pt x="352" y="445" on="1"/>
        <pt x="354" y="445" on="0"/>
        <pt x="466" y="464" on="0"/>
        <pt x="543" y="512" on="0"/>
        <pt x="543" y="542" on="1"/>
        <pt x="543" y="578" on="0"/>
        <pt x="489" y="578" on="1"/>
        <pt x="416" y="578" on="0"/>
        <pt x="286" y="478" on="0"/>
        <pt x="286" y="368" on="0"/>
        <pt x="354" y="352" on="1"/>
        <pt x="369" y="348" on="0"/>
        <pt x="379" y="340" on="0"/>
        <pt x="379" y="320" on="0"/>
        <pt x="360" y="307" on="0"/>
        <pt x="326" y="295" on="1"/>
        <pt x="142" y="232" on="0"/>
        <pt x="142" y="99" on="1"/>
        <pt x="142" y="72" on="0"/>
        <pt x="152" y="53" on="1"/>
        <pt x="213" y="131" on="0"/>
        <pt x="407" y="229" on="0"/>
        <pt x="497" y="229" on="1"/>
        <pt x="544" y="229" on="0"/>
        <pt x="600" y="188" on="0"/>
        <pt x="600" y="152" on="1"/>
        <pt x="600" y="96" on="0"/>
        <pt x="496" y="-16" on="0"/>
        <pt x="331" y="-87" on="0"/>
        <pt x="168" y="-87" on="0"/>
        <pt x="121" y="-57" on="1"/>
        <pt x="120" y="-58" on="0"/>
        <pt x="112" y="-72" on="1"/>
        <pt x="92" y="-112" on="0"/>
        <pt x="78" y="-128" on="1"/>
        <pt x="45" y="-114" on="1"/>
        <pt x="52" y="-86" on="0"/>
        <pt x="86" y="-29" on="1"/>
        <pt x="40" y="23" on="0"/>
        <pt x="40" y="152" on="0"/>
        <pt x="145" y="269" on="0"/>
        <pt x="239" y="307" on="1"/>
        <pt x="192" y="346" on="0"/>
        <pt x="192" y="388" on="1"/>
        <pt x="192" y="445" on="0"/>
        <pt x="312" y="564" on="0"/>
        <pt x="485" y="638" on="0"/>
        <pt x="561" y="638" on="1"/>
        <pt x="601" y="638" on="0"/>
        <pt x="649" y="603" on="0"/>
      </contour>
      <contour>
        <pt x="439" y="169" on="1"/>
        <pt x="380" y="169" on="0"/>
        <pt x="223" y="79" on="0"/>
        <pt x="174" y="17" on="1"/>
        <pt x="214" y="-28" on="0"/>
        <pt x="361" y="-28" on="0"/>
        <pt x="502" y="67" on="0"/>
        <pt x="502" y="122" on="1"/>
        <pt x="502" y="144" on="0"/>
        <pt x="468" y="169" on="0"/>
      </contour>
      <contour>
        <pt x="494" y="680" on="1"/>
        <pt x="347" y="794" on="1"/>
        <pt x="391" y="818" on="1"/>
        <pt x="446" y="776" on="0"/>
        <pt x="490" y="748" on="1"/>
        <pt x="508" y="761" on="0"/>
        <pt x="593" y="812" on="1"/>
        <pt x="623" y="788" on="1"/>
        <pt x="608" y="771" on="0"/>
        <pt x="522" y="702" on="1"/>
      </contour>
    </TTGlyph>
    <TTGlyph name="Ecircumflex" xMin="40" yMin="-128" xMax="649" yMax="796">
      <contour>
        <pt x="649" y="574" on="1"/>
        <pt x="649" y="524" on="0"/>
        <pt x="554" y="446" on="0"/>
        <pt x="431" y="410" on="0"/>
        <pt x="374" y="410" on="1"/>
        <pt x="359" y="410" on="0"/>
        <pt x="352" y="411" on="1"/>
        <pt x="352" y="445" on="1"/>
        <pt x="354" y="445" on="0"/>
        <pt x="466" y="464" on="0"/>
        <pt x="543" y="512" on="0"/>
        <pt x="543" y="542" on="1"/>
        <pt x="543" y="578" on="0"/>
        <pt x="489" y="578" on="1"/>
        <pt x="416" y="578" on="0"/>
        <pt x="286" y="478" on="0"/>
        <pt x="286" y="368" on="0"/>
        <pt x="354" y="352" on="1"/>
        <pt x="369" y="348" on="0"/>
        <pt x="379" y="340" on="0"/>
        <pt x="379" y="320" on="0"/>
        <pt x="360" y="307" on="0"/>
        <pt x="326" y="295" on="1"/>
        <pt x="142" y="232" on="0"/>
        <pt x="142" y="99" on="1"/>
        <pt x="142" y="72" on="0"/>
        <pt x="152" y="53" on="1"/>
        <pt x="213" y="131" on="0"/>
        <pt x="407" y="229" on="0"/>
        <pt x="497" y="229" on="1"/>
        <pt x="544" y="229" on="0"/>
        <pt x="600" y="188" on="0"/>
        <pt x="600" y="152" on="1"/>
        <pt x="600" y="96" on="0"/>
        <pt x="496" y="-16" on="0"/>
        <pt x="331" y="-87" on="0"/>
        <pt x="168" y="-87" on="0"/>
        <pt x="121" y="-57" on="1"/>
        <pt x="120" y="-58" on="0"/>
        <pt x="112" y="-72" on="1"/>
        <pt x="92" y="-112" on="0"/>
        <pt x="78" y="-128" on="1"/>
        <pt x="45" y="-114" on="1"/>
        <pt x="52" y="-86" on="0"/>
        <pt x="86" y="-29" on="1"/>
        <pt x="40" y="23" on="0"/>
        <pt x="40" y="152" on="0"/>
        <pt x="145" y="269" on="0"/>
        <pt x="239" y="307" on="1"/>
        <pt x="192" y="346" on="0"/>
        <pt x="192" y="388" on="1"/>
        <pt x="192" y="445" on="0"/>
        <pt x="312" y="564" on="0"/>
        <pt x="485" y="638" on="0"/>
        <pt x="561" y="638" on="1"/>
        <pt x="601" y="638" on="0"/>
        <pt x="649" y="603" on="0"/>
      </contour>
      <contour>
        <pt x="439" y="169" on="1"/>
        <pt x="380" y="169" on="0"/>
        <pt x="223" y="79" on="0"/>
        <pt x="174" y="17" on="1"/>
        <pt x="214" y="-28" on="0"/>
        <pt x="361" y="-28" on="0"/>
        <pt x="502" y="67" on="0"/>
        <pt x="502" y="122" on="1"/>
        <pt x="502" y="144" on="0"/>
        <pt x="468" y="169" on="0"/>
      </contour>
      <contour>
        <pt x="366" y="682" on="1"/>
        <pt x="513" y="796" on="1"/>
        <pt x="621" y="710" on="0"/>
        <pt x="642" y="688" on="1"/>
        <pt x="612" y="664" on="1"/>
        <pt x="527" y="715" on="0"/>
        <pt x="509" y="728" on="1"/>
        <pt x="410" y="658" on="1"/>
      </contour>
    </TTGlyph>
    <TTGlyph name="Edieresis" xMin="40" yMin="-128" xMax="649" yMax="761">
      <contour>
        <pt x="649" y="574" on="1"/>
        <pt x="649" y="524" on="0"/>
        <pt x="554" y="446" on="0"/>
        <pt x="431" y="410" on="0"/>
        <pt x="374" y="410" on="1"/>
        <pt x="359" y="410" on="0"/>
        <pt x="352" y="411" on="1"/>
        <pt x="352" y="445" on="1"/>
        <pt x="354" y="445" on="0"/>
        <pt x="466" y="464" on="0"/>
        <pt x="543" y="512" on="0"/>
        <pt x="543" y="542" on="1"/>
        <pt x="543" y="578" on="0"/>
        <pt x="489" y="578" on="1"/>
        <pt x="416" y="578" on="0"/>
        <pt x="286" y="478" on="0"/>
        <pt x="286" y="368" on="0"/>
        <pt x="354" y="352" on="1"/>
        <pt x="369" y="348" on="0"/>
        <pt x="379" y="340" on="0"/>
        <pt x="379" y="320" on="0"/>
        <pt x="360" y="307" on="0"/>
        <pt x="326" y="295" on="1"/>
        <pt x="142" y="232" on="0"/>
        <pt x="142" y="99" on="1"/>
        <pt x="142" y="72" on="0"/>
        <pt x="152" y="53" on="1"/>
        <pt x="213" y="131" on="0"/>
        <pt x="407" y="229" on="0"/>
        <pt x="497" y="229" on="1"/>
        <pt x="544" y="229" on="0"/>
        <pt x="600" y="188" on="0"/>
        <pt x="600" y="152" on="1"/>
        <pt x="600" y="96" on="0"/>
        <pt x="496" y="-16" on="0"/>
        <pt x="331" y="-87" on="0"/>
        <pt x="168" y="-87" on="0"/>
        <pt x="121" y="-57" on="1"/>
        <pt x="120" y="-58" on="0"/>
        <pt x="112" y="-72" on="1"/>
        <pt x="92" y="-112" on="0"/>
        <pt x="78" y="-128" on="1"/>
        <pt x="45" y="-114" on="1"/>
        <pt x="52" y="-86" on="0"/>
        <pt x="86" y="-29" on="1"/>
        <pt x="40" y="23" on="0"/>
        <pt x="40" y="152" on="0"/>
        <pt x="145" y="269" on="0"/>
        <pt x="239" y="307" on="1"/>
        <pt x="192" y="346" on="0"/>
        <pt x="192" y="388" on="1"/>
        <pt x="192" y="445" on="0"/>
        <pt x="312" y="564" on="0"/>
        <pt x="485" y="638" on="0"/>
        <pt x="561" y="638" on="1"/>
        <pt x="601" y="638" on="0"/>
        <pt x="649" y="603" on="0"/>
      </contour>
      <contour>
        <pt x="439" y="169" on="1"/>
        <pt x="380" y="169" on="0"/>
        <pt x="223" y="79" on="0"/>
        <pt x="174" y="17" on="1"/>
        <pt x="214" y="-28" on="0"/>
        <pt x="361" y="-28" on="0"/>
        <pt x="502" y="67" on="0"/>
        <pt x="502" y="122" on="1"/>
        <pt x="502" y="144" on="0"/>
        <pt x="468" y="169" on="0"/>
      </contour>
      <contour>
        <pt x="409" y="704" on="0"/>
        <pt x="409" y="738" on="0"/>
        <pt x="432" y="761" on="0"/>
        <pt x="464" y="761" on="0"/>
        <pt x="488" y="738" on="0"/>
        <pt x="488" y="705" on="0"/>
        <pt x="465" y="682" on="0"/>
        <pt x="432" y="682" on="0"/>
      </contour>
      <contour>
        <pt x="536" y="704" on="0"/>
        <pt x="536" y="738" on="0"/>
        <pt x="559" y="761" on="0"/>
        <pt x="592" y="761" on="0"/>
        <pt x="615" y="738" on="0"/>
        <pt x="615" y="705" on="0"/>
        <pt x="592" y="682" on="0"/>
        <pt x="558" y="682" on="0"/>
      </contour>
    </TTGlyph>
    <TTGlyph name="Edotaccent" xMin="25" yMin="-128" xMax="634" yMax="777">
      <contour>
        <pt x="634" y="574" on="1"/>
        <pt x="634" y="524" on="0"/>
        <pt x="539" y="446" on="0"/>
        <pt x="416" y="410" on="0"/>
        <pt x="359" y="410" on="1"/>
        <pt x="344" y="410" on="0"/>
        <pt x="337" y="411" on="1"/>
        <pt x="337" y="445" on="1"/>
        <pt x="339" y="445" on="0"/>
        <pt x="451" y="464" on="0"/>
        <pt x="528" y="512" on="0"/>
        <pt x="528" y="542" on="1"/>
        <pt x="528" y="578" on="0"/>
        <pt x="474" y="578" on="1"/>
        <pt x="401" y="578" on="0"/>
        <pt x="271" y="478" on="0"/>
        <pt x="271" y="368" on="0"/>
        <pt x="339" y="352" on="1"/>
        <pt x="354" y="348" on="0"/>
        <pt x="364" y="340" on="0"/>
        <pt x="364" y="320" on="0"/>
        <pt x="345" y="307" on="0"/>
        <pt x="311" y="295" on="1"/>
        <pt x="127" y="232" on="0"/>
        <pt x="127" y="99" on="1"/>
        <pt x="127" y="72" on="0"/>
        <pt x="137" y="53" on="1"/>
        <pt x="198" y="131" on="0"/>
        <pt x="392" y="229" on="0"/>
        <pt x="482" y="229" on="1"/>
        <pt x="529" y="229" on="0"/>
        <pt x="585" y="188" on="0"/>
        <pt x="585" y="152" on="1"/>
        <pt x="585" y="96" on="0"/>
        <pt x="481" y="-16" on="0"/>
        <pt x="316" y="-87" on="0"/>
        <pt x="152" y="-87" on="0"/>
        <pt x="106" y="-57" on="1"/>
        <pt x="105" y="-58" on="0"/>
        <pt x="98" y="-72" on="1"/>
        <pt x="77" y="-112" on="0"/>
        <pt x="63" y="-128" on="1"/>
        <pt x="30" y="-114" on="1"/>
        <pt x="37" y="-86" on="0"/>
        <pt x="71" y="-29" on="1"/>
        <pt x="25" y="23" on="0"/>
        <pt x="25" y="152" on="0"/>
        <pt x="130" y="269" on="0"/>
        <pt x="224" y="307" on="1"/>
        <pt x="177" y="346" on="0"/>
        <pt x="177" y="388" on="1"/>
        <pt x="177" y="445" on="0"/>
        <pt x="297" y="564" on="0"/>
        <pt x="470" y="638" on="0"/>
        <pt x="546" y="638" on="1"/>
        <pt x="586" y="638" on="0"/>
        <pt x="634" y="603" on="0"/>
      </contour>
      <contour>
        <pt x="424" y="169" on="1"/>
        <pt x="365" y="169" on="0"/>
        <pt x="208" y="79" on="0"/>
        <pt x="159" y="17" on="1"/>
        <pt x="199" y="-28" on="0"/>
        <pt x="346" y="-28" on="0"/>
        <pt x="487" y="67" on="0"/>
        <pt x="487" y="122" on="1"/>
        <pt x="487" y="144" on="0"/>
        <pt x="453" y="169" on="0"/>
      </contour>
      <contour>
        <pt x="439" y="720" on="0"/>
        <pt x="439" y="754" on="0"/>
        <pt x="462" y="777" on="0"/>
        <pt x="494" y="777" on="0"/>
        <pt x="518" y="754" on="0"/>
        <pt x="518" y="721" on="0"/>
        <pt x="495" y="698" on="0"/>
        <pt x="462" y="698" on="0"/>
      </contour>
    </TTGlyph>
    <TTGlyph name="Egrave" xMin="40" yMin="-128" xMax="649" yMax="779">
      <contour>
        <pt x="649" y="574" on="1"/>
        <pt x="649" y="524" on="0"/>
        <pt x="554" y="446" on="0"/>
        <pt x="431" y="410" on="0"/>
        <pt x="374" y="410" on="1"/>
        <pt x="359" y="410" on="0"/>
        <pt x="352" y="411" on="1"/>
        <pt x="352" y="445" on="1"/>
        <pt x="354" y="445" on="0"/>
        <pt x="466" y="464" on="0"/>
        <pt x="543" y="512" on="0"/>
        <pt x="543" y="542" on="1"/>
        <pt x="543" y="578" on="0"/>
        <pt x="489" y="578" on="1"/>
        <pt x="416" y="578" on="0"/>
        <pt x="286" y="478" on="0"/>
        <pt x="286" y="368" on="0"/>
        <pt x="354" y="352" on="1"/>
        <pt x="369" y="348" on="0"/>
        <pt x="379" y="340" on="0"/>
        <pt x="379" y="320" on="0"/>
        <pt x="360" y="307" on="0"/>
        <pt x="326" y="295" on="1"/>
        <pt x="142" y="232" on="0"/>
        <pt x="142" y="99" on="1"/>
        <pt x="142" y="72" on="0"/>
        <pt x="152" y="53" on="1"/>
        <pt x="213" y="131" on="0"/>
        <pt x="407" y="229" on="0"/>
        <pt x="497" y="229" on="1"/>
        <pt x="544" y="229" on="0"/>
        <pt x="600" y="188" on="0"/>
        <pt x="600" y="152" on="1"/>
        <pt x="600" y="96" on="0"/>
        <pt x="496" y="-16" on="0"/>
        <pt x="331" y="-87" on="0"/>
        <pt x="168" y="-87" on="0"/>
        <pt x="121" y="-57" on="1"/>
        <pt x="120" y="-58" on="0"/>
        <pt x="112" y="-72" on="1"/>
        <pt x="92" y="-112" on="0"/>
        <pt x="78" y="-128" on="1"/>
        <pt x="45" y="-114" on="1"/>
        <pt x="52" y="-86" on="0"/>
        <pt x="86" y="-29" on="1"/>
        <pt x="40" y="23" on="0"/>
        <pt x="40" y="152" on="0"/>
        <pt x="145" y="269" on="0"/>
        <pt x="239" y="307" on="1"/>
        <pt x="192" y="346" on="0"/>
        <pt x="192" y="388" on="1"/>
        <pt x="192" y="445" on="0"/>
        <pt x="312" y="564" on="0"/>
        <pt x="485" y="638" on="0"/>
        <pt x="561" y="638" on="1"/>
        <pt x="601" y="638" on="0"/>
        <pt x="649" y="603" on="0"/>
      </contour>
      <contour>
        <pt x="439" y="169" on="1"/>
        <pt x="380" y="169" on="0"/>
        <pt x="223" y="79" on="0"/>
        <pt x="174" y="17" on="1"/>
        <pt x="214" y="-28" on="0"/>
        <pt x="361" y="-28" on="0"/>
        <pt x="502" y="67" on="0"/>
        <pt x="502" y="122" on="1"/>
        <pt x="502" y="144" on="0"/>
        <pt x="468" y="169" on="0"/>
      </contour>
      <contour>
        <pt x="568" y="683" on="1"/>
        <pt x="397" y="739" on="1"/>
        <pt x="465" y="779" on="1"/>
        <pt x="597" y="701" on="1"/>
      </contour>
    </TTGlyph>
    <TTGlyph name="Emacron" xMin="25" yMin="-128" xMax="634" yMax="755">
      <contour>
        <pt x="634" y="574" on="1"/>
        <pt x="634" y="524" on="0"/>
        <pt x="539" y="446" on="0"/>
        <pt x="416" y="410" on="0"/>
        <pt x="359" y="410" on="1"/>
        <pt x="344" y="410" on="0"/>
        <pt x="337" y="411" on="1"/>
        <pt x="337" y="445" on="1"/>
        <pt x="339" y="445" on="0"/>
        <pt x="451" y="464" on="0"/>
        <pt x="528" y="512" on="0"/>
        <pt x="528" y="542" on="1"/>
        <pt x="528" y="578" on="0"/>
        <pt x="474" y="578" on="1"/>
        <pt x="401" y="578" on="0"/>
        <pt x="271" y="478" on="0"/>
        <pt x="271" y="368" on="0"/>
        <pt x="339" y="352" on="1"/>
        <pt x="354" y="348" on="0"/>
        <pt x="364" y="340" on="0"/>
        <pt x="364" y="320" on="0"/>
        <pt x="345" y="307" on="0"/>
        <pt x="311" y="295" on="1"/>
        <pt x="127" y="232" on="0"/>
        <pt x="127" y="99" on="1"/>
        <pt x="127" y="72" on="0"/>
        <pt x="137" y="53" on="1"/>
        <pt x="198" y="131" on="0"/>
        <pt x="392" y="229" on="0"/>
        <pt x="482" y="229" on="1"/>
        <pt x="529" y="229" on="0"/>
        <pt x="585" y="188" on="0"/>
        <pt x="585" y="152" on="1"/>
        <pt x="585" y="96" on="0"/>
        <pt x="481" y="-16" on="0"/>
        <pt x="316" y="-87" on="0"/>
        <pt x="152" y="-87" on="0"/>
        <pt x="106" y="-57" on="1"/>
        <pt x="105" y="-58" on="0"/>
        <pt x="98" y="-72" on="1"/>
        <pt x="77" y="-112" on="0"/>
        <pt x="63" y="-128" on="1"/>
        <pt x="30" y="-114" on="1"/>
        <pt x="37" y="-86" on="0"/>
        <pt x="71" y="-29" on="1"/>
        <pt x="25" y="23" on="0"/>
        <pt x="25" y="152" on="0"/>
        <pt x="130" y="269" on="0"/>
        <pt x="224" y="307" on="1"/>
        <pt x="177" y="346" on="0"/>
        <pt x="177" y="388" on="1"/>
        <pt x="177" y="445" on="0"/>
        <pt x="297" y="564" on="0"/>
        <pt x="470" y="638" on="0"/>
        <pt x="546" y="638" on="1"/>
        <pt x="586" y="638" on="0"/>
        <pt x="634" y="603" on="0"/>
      </contour>
      <contour>
        <pt x="424" y="169" on="1"/>
        <pt x="365" y="169" on="0"/>
        <pt x="208" y="79" on="0"/>
        <pt x="159" y="17" on="1"/>
        <pt x="199" y="-28" on="0"/>
        <pt x="346" y="-28" on="0"/>
        <pt x="487" y="67" on="0"/>
        <pt x="487" y="122" on="1"/>
        <pt x="487" y="144" on="0"/>
        <pt x="453" y="169" on="0"/>
      </contour>
      <contour>
        <pt x="563" y="755" on="1"/>
        <pt x="563" y="719" on="1"/>
        <pt x="386" y="713" on="1"/>
        <pt x="377" y="744" on="1"/>
        <pt x="410" y="751" on="0"/>
      </contour>
    </TTGlyph>
    <TTGlyph name="Eogonek" xMin="9" yMin="-220" xMax="649" yMax="638">
      <contour>
        <pt x="220" y="-102" on="1"/>
        <pt x="240" y="-118" on="1"/>
        <pt x="210" y="-158" on="0"/>
        <pt x="105" y="-220" on="0"/>
        <pt x="42" y="-220" on="0"/>
        <pt x="9" y="-193" on="0"/>
        <pt x="9" y="-174" on="1"/>
        <pt x="9" y="-108" on="0"/>
        <pt x="84" y="-27" on="1"/>
        <pt x="40" y="23" on="0"/>
        <pt x="40" y="152" on="0"/>
        <pt x="145" y="269" on="0"/>
        <pt x="239" y="307" on="1"/>
        <pt x="192" y="346" on="0"/>
        <pt x="192" y="388" on="1"/>
        <pt x="192" y="445" on="0"/>
        <pt x="312" y="564" on="0"/>
        <pt x="485" y="638" on="0"/>
        <pt x="561" y="638" on="1"/>
        <pt x="601" y="638" on="0"/>
        <pt x="649" y="603" on="0"/>
        <pt x="649" y="574" on="1"/>
        <pt x="649" y="524" on="0"/>
        <pt x="554" y="446" on="0"/>
        <pt x="431" y="410" on="0"/>
        <pt x="374" y="410" on="1"/>
        <pt x="359" y="410" on="0"/>
        <pt x="352" y="411" on="1"/>
        <pt x="352" y="445" on="1"/>
        <pt x="354" y="445" on="0"/>
        <pt x="466" y="464" on="0"/>
        <pt x="543" y="512" on="0"/>
        <pt x="543" y="542" on="1"/>
        <pt x="543" y="578" on="0"/>
        <pt x="489" y="578" on="1"/>
        <pt x="416" y="578" on="0"/>
        <pt x="286" y="478" on="0"/>
        <pt x="286" y="368" on="0"/>
        <pt x="354" y="352" on="1"/>
        <pt x="369" y="348" on="0"/>
        <pt x="379" y="340" on="0"/>
        <pt x="379" y="320" on="0"/>
        <pt x="360" y="307" on="0"/>
        <pt x="326" y="295" on="1"/>
        <pt x="142" y="232" on="0"/>
        <pt x="142" y="99" on="1"/>
        <pt x="142" y="72" on="0"/>
        <pt x="152" y="53" on="1"/>
        <pt x="213" y="131" on="0"/>
        <pt x="407" y="229" on="0"/>
        <pt x="497" y="229" on="1"/>
        <pt x="544" y="229" on="0"/>
        <pt x="600" y="188" on="0"/>
        <pt x="600" y="152" on="1"/>
        <pt x="600" y="96" on="0"/>
        <pt x="496" y="-16" on="0"/>
        <pt x="331" y="-87" on="0"/>
        <pt x="168" y="-87" on="0"/>
        <pt x="121" y="-57" on="1"/>
        <pt x="104" y="-88" on="1"/>
        <pt x="95" y="-105" on="0"/>
        <pt x="95" y="-127" on="0"/>
        <pt x="109" y="-143" on="0"/>
        <pt x="125" y="-143" on="1"/>
        <pt x="161" y="-143" on="0"/>
      </contour>
      <contour>
        <pt x="439" y="169" on="1"/>
        <pt x="380" y="169" on="0"/>
        <pt x="223" y="79" on="0"/>
        <pt x="174" y="17" on="1"/>
        <pt x="214" y="-28" on="0"/>
        <pt x="361" y="-28" on="0"/>
        <pt x="502" y="67" on="0"/>
        <pt x="502" y="122" on="1"/>
        <pt x="502" y="144" on="0"/>
        <pt x="468" y="169" on="0"/>
      </contour>
    </TTGlyph>
    <TTGlyph name="Eth" xMin="40" yMin="-2" xMax="704" yMax="638">
      <contour>
        <pt x="283" y="638" on="1"/>
        <pt x="457" y="638" on="0"/>
        <pt x="704" y="432" on="0"/>
        <pt x="704" y="156" on="0"/>
        <pt x="536" y="-4" on="0"/>
        <pt x="407" y="-2" on="1"/>
        <pt x="338" y="-1" on="0"/>
        <pt x="297" y="-1" on="1"/>
        <pt x="250" y="-1" on="1"/>
        <pt x="221" y="-1" on="0"/>
        <pt x="221" y="21" on="1"/>
        <pt x="221" y="26" on="0"/>
        <pt x="271" y="132" on="0"/>
        <pt x="280" y="155" on="1"/>
        <pt x="171" y="139" on="1"/>
        <pt x="181" y="200" on="1"/>
        <pt x="245" y="211" on="0"/>
        <pt x="302" y="217" on="1"/>
        <pt x="314" y="252" on="0"/>
        <pt x="323" y="291" on="1"/>
        <pt x="220" y="291" on="0"/>
        <pt x="40" y="405" on="0"/>
        <pt x="40" y="550" on="0"/>
        <pt x="176" y="638" on="0"/>
      </contour>
      <contour>
        <pt x="496" y="235" on="1"/>
        <pt x="496" y="188" on="1"/>
        <pt x="345" y="165" on="1"/>
        <pt x="326" y="118" on="0"/>
        <pt x="306" y="73" on="1"/>
        <pt x="406" y="65" on="0"/>
        <pt x="539" y="65" on="0"/>
        <pt x="617" y="164" on="0"/>
        <pt x="617" y="248" on="1"/>
        <pt x="617" y="393" on="0"/>
        <pt x="419" y="597" on="0"/>
        <pt x="279" y="597" on="1"/>
        <pt x="213" y="597" on="0"/>
        <pt x="137" y="541" on="0"/>
        <pt x="137" y="432" on="0"/>
        <pt x="242" y="347" on="0"/>
        <pt x="330" y="336" on="1"/>
        <pt x="361" y="467" on="0"/>
        <pt x="366" y="505" on="1"/>
        <pt x="426" y="499" on="1"/>
        <pt x="426" y="437" on="0"/>
        <pt x="400" y="335" on="1"/>
        <pt x="408" y="335" on="0"/>
        <pt x="493" y="345" on="1"/>
        <pt x="498" y="312" on="1"/>
        <pt x="478" y="305" on="0"/>
        <pt x="387" y="291" on="1"/>
        <pt x="371" y="240" on="0"/>
        <pt x="366" y="225" on="1"/>
        <pt x="416" y="230" on="0"/>
      </contour>
    </TTGlyph>
    <TTGlyph name="Euro" xMin="-1" yMin="0" xMax="584" yMax="617">
      <contour>
        <pt x="358" y="216" on="1"/>
        <pt x="161" y="218" on="1"/>
        <pt x="161" y="79" on="0"/>
        <pt x="314" y="79" on="1"/>
        <pt x="374" y="79" on="0"/>
        <pt x="443" y="114" on="0"/>
        <pt x="443" y="162" on="1"/>
        <pt x="443" y="173" on="0"/>
        <pt x="442" y="180" on="1"/>
        <pt x="487" y="186" on="1"/>
        <pt x="495" y="157" on="0"/>
        <pt x="495" y="136" on="1"/>
        <pt x="495" y="72" on="0"/>
        <pt x="384" y="0" on="0"/>
        <pt x="193" y="0" on="0"/>
        <pt x="81" y="86" on="0"/>
        <pt x="81" y="165" on="1"/>
        <pt x="81" y="190" on="0"/>
        <pt x="87" y="220" on="1"/>
        <pt x="33" y="220" on="0"/>
        <pt x="-1" y="219" on="1"/>
        <pt x="3" y="253" on="1"/>
        <pt x="36" y="255" on="0"/>
        <pt x="96" y="255" on="1"/>
        <pt x="106" y="285" on="0"/>
        <pt x="127" y="326" on="1"/>
        <pt x="12" y="321" on="1"/>
        <pt x="16" y="352" on="1"/>
        <pt x="71" y="361" on="0"/>
        <pt x="147" y="361" on="1"/>
        <pt x="189" y="438" on="0"/>
        <pt x="328" y="559" on="0"/>
        <pt x="460" y="617" on="0"/>
        <pt x="544" y="617" on="0"/>
        <pt x="584" y="578" on="0"/>
        <pt x="584" y="498" on="0"/>
        <pt x="549" y="466" on="1"/>
        <pt x="489" y="410" on="0"/>
        <pt x="397" y="410" on="1"/>
        <pt x="392" y="443" on="1"/>
        <pt x="395" y="444" on="0"/>
        <pt x="432" y="447" on="0"/>
        <pt x="453" y="453" on="0"/>
        <pt x="468" y="460" on="1"/>
        <pt x="498" y="472" on="0"/>
        <pt x="498" y="511" on="1"/>
        <pt x="498" y="529" on="0"/>
        <pt x="471" y="552" on="0"/>
        <pt x="451" y="552" on="1"/>
        <pt x="400" y="552" on="0"/>
        <pt x="295" y="482" on="0"/>
        <pt x="230" y="403" on="0"/>
        <pt x="206" y="361" on="1"/>
        <pt x="346" y="361" on="0"/>
        <pt x="397" y="354" on="1"/>
        <pt x="392" y="318" on="1"/>
        <pt x="327" y="326" on="0"/>
        <pt x="187" y="326" on="1"/>
        <pt x="171" y="292" on="0"/>
        <pt x="164" y="256" on="1"/>
        <pt x="336" y="254" on="0"/>
        <pt x="363" y="251" on="1"/>
      </contour>
    </TTGlyph>
    <TTGlyph name="F" xMin="30" yMin="-120" xMax="833" yMax="631">
      <contour>
        <pt x="494" y="621" on="1"/>
        <pt x="731" y="614" on="1"/>
        <pt x="749" y="614" on="0"/>
        <pt x="804" y="631" on="0"/>
        <pt x="822" y="631" on="0"/>
        <pt x="833" y="620" on="0"/>
        <pt x="833" y="612" on="1"/>
        <pt x="833" y="591" on="0"/>
        <pt x="795" y="562" on="0"/>
        <pt x="764" y="556" on="1"/>
        <pt x="706" y="543" on="0"/>
        <pt x="661" y="543" on="1"/>
        <pt x="600" y="501" on="0"/>
        <pt x="542" y="301" on="1"/>
        <pt x="641" y="301" on="0"/>
        <pt x="665" y="298" on="1"/>
        <pt x="663" y="251" on="1"/>
        <pt x="648" y="250" on="0"/>
        <pt x="618" y="250" on="1"/>
        <pt x="527" y="253" on="1"/>
        <pt x="471" y="82" on="0"/>
        <pt x="281" y="-120" on="0"/>
        <pt x="175" y="-120" on="1"/>
        <pt x="110" y="-120" on="0"/>
        <pt x="30" y="-42" on="0"/>
        <pt x="30" y="22" on="1"/>
        <pt x="30" y="125" on="0"/>
        <pt x="276" y="294" on="0"/>
        <pt x="456" y="299" on="1"/>
        <pt x="517" y="491" on="0"/>
        <pt x="599" y="543" on="1"/>
        <pt x="438" y="549" on="1"/>
        <pt x="337" y="549" on="0"/>
        <pt x="238" y="497" on="0"/>
        <pt x="238" y="454" on="1"/>
        <pt x="238" y="431" on="0"/>
        <pt x="276" y="400" on="0"/>
        <pt x="314" y="400" on="0"/>
        <pt x="333" y="403" on="0"/>
        <pt x="362" y="414" on="0"/>
        <pt x="368" y="416" on="1"/>
        <pt x="389" y="423" on="0"/>
        <pt x="419" y="438" on="1"/>
        <pt x="440" y="412" on="1"/>
        <pt x="364" y="336" on="0"/>
        <pt x="274" y="336" on="1"/>
        <pt x="234" y="336" on="0"/>
        <pt x="182" y="386" on="0"/>
        <pt x="182" y="424" on="1"/>
        <pt x="182" y="507" on="0"/>
        <pt x="352" y="621" on="0"/>
      </contour>
      <contour>
        <pt x="354" y="62" on="1"/>
        <pt x="408" y="146" on="0"/>
        <pt x="440" y="250" on="1"/>
        <pt x="316" y="240" on="0"/>
        <pt x="127" y="102" on="0"/>
        <pt x="127" y="23" on="1"/>
        <pt x="127" y="-8" on="0"/>
        <pt x="170" y="-48" on="0"/>
        <pt x="240" y="-48" on="0"/>
        <pt x="322" y="11" on="0"/>
      </contour>
    </TTGlyph>
    <TTGlyph name="G" xMin="-90" yMin="-311" xMax="649" yMax="638">
      <contour>
        <pt x="525" y="-8" on="1"/>
        <pt x="510" y="-42" on="1"/>
        <pt x="412" y="-25" on="0"/>
        <pt x="397" y="-24" on="1"/>
        <pt x="348" y="-157" on="0"/>
        <pt x="166" y="-311" on="0"/>
        <pt x="53" y="-311" on="1"/>
        <pt x="-8" y="-311" on="0"/>
        <pt x="-90" y="-245" on="0"/>
        <pt x="-90" y="-196" on="1"/>
        <pt x="-90" y="-110" on="0"/>
        <pt x="147" y="20" on="0"/>
        <pt x="316" y="20" on="1"/>
        <pt x="339" y="20" on="0"/>
        <pt x="351" y="19" on="1"/>
        <pt x="369" y="57" on="0"/>
        <pt x="380" y="100" on="1"/>
        <pt x="316" y="57" on="0"/>
        <pt x="171" y="57" on="0"/>
        <pt x="74" y="160" on="0"/>
        <pt x="74" y="329" on="0"/>
        <pt x="187" y="516" on="0"/>
        <pt x="372" y="638" on="0"/>
        <pt x="468" y="638" on="1"/>
        <pt x="524" y="638" on="0"/>
        <pt x="624" y="599" on="0"/>
        <pt x="649" y="572" on="1"/>
        <pt x="595" y="507" on="1"/>
        <pt x="554" y="539" on="0"/>
        <pt x="537" y="550" on="1"/>
        <pt x="493" y="580" on="0"/>
        <pt x="443" y="580" on="1"/>
        <pt x="340" y="580" on="0"/>
        <pt x="164" y="381" on="0"/>
        <pt x="164" y="264" on="1"/>
        <pt x="164" y="200" on="0"/>
        <pt x="236" y="126" on="0"/>
        <pt x="353" y="126" on="0"/>
        <pt x="400" y="154" on="1"/>
        <pt x="458" y="307" on="0"/>
        <pt x="508" y="307" on="1"/>
        <pt x="537" y="307" on="0"/>
        <pt x="537" y="251" on="0"/>
        <pt x="494" y="178" on="0"/>
        <pt x="460" y="149" on="1"/>
        <pt x="419" y="39" on="0"/>
        <pt x="412" y="17" on="1"/>
        <pt x="482" y="9" on="0"/>
      </contour>
      <contour>
        <pt x="102" y="-243" on="1"/>
        <pt x="170" y="-243" on="0"/>
        <pt x="303" y="-117" on="0"/>
        <pt x="337" y="-22" on="1"/>
        <pt x="202" y="-22" on="0"/>
        <pt x="15" y="-113" on="0"/>
        <pt x="15" y="-178" on="1"/>
        <pt x="15" y="-208" on="0"/>
        <pt x="62" y="-243" on="0"/>
      </contour>
    </TTGlyph>
    <TTGlyph name="Gbreve" xMin="-80" yMin="-311" xMax="659" yMax="790">
      <contour>
        <pt x="535" y="-8" on="1"/>
        <pt x="520" y="-42" on="1"/>
        <pt x="422" y="-25" on="0"/>
        <pt x="407" y="-24" on="1"/>
        <pt x="358" y="-157" on="0"/>
        <pt x="176" y="-311" on="0"/>
        <pt x="63" y="-311" on="1"/>
        <pt x="2" y="-311" on="0"/>
        <pt x="-80" y="-245" on="0"/>
        <pt x="-80" y="-196" on="1"/>
        <pt x="-80" y="-110" on="0"/>
        <pt x="157" y="20" on="0"/>
        <pt x="326" y="20" on="1"/>
        <pt x="349" y="20" on="0"/>
        <pt x="361" y="19" on="1"/>
        <pt x="379" y="57" on="0"/>
        <pt x="390" y="100" on="1"/>
        <pt x="326" y="57" on="0"/>
        <pt x="181" y="57" on="0"/>
        <pt x="84" y="160" on="0"/>
        <pt x="84" y="329" on="0"/>
        <pt x="197" y="516" on="0"/>
        <pt x="382" y="638" on="0"/>
        <pt x="478" y="638" on="1"/>
        <pt x="534" y="638" on="0"/>
        <pt x="634" y="599" on="0"/>
        <pt x="659" y="572" on="1"/>
        <pt x="605" y="507" on="1"/>
        <pt x="564" y="539" on="0"/>
        <pt x="547" y="550" on="1"/>
        <pt x="503" y="580" on="0"/>
        <pt x="453" y="580" on="1"/>
        <pt x="350" y="580" on="0"/>
        <pt x="174" y="381" on="0"/>
        <pt x="174" y="264" on="1"/>
        <pt x="174" y="200" on="0"/>
        <pt x="246" y="126" on="0"/>
        <pt x="363" y="126" on="0"/>
        <pt x="410" y="154" on="1"/>
        <pt x="468" y="307" on="0"/>
        <pt x="518" y="307" on="1"/>
        <pt x="547" y="307" on="0"/>
        <pt x="547" y="251" on="0"/>
        <pt x="504" y="178" on="0"/>
        <pt x="470" y="149" on="1"/>
        <pt x="429" y="39" on="0"/>
        <pt x="422" y="17" on="1"/>
        <pt x="492" y="9" on="0"/>
      </contour>
      <contour>
        <pt x="112" y="-243" on="1"/>
        <pt x="180" y="-243" on="0"/>
        <pt x="313" y="-117" on="0"/>
        <pt x="347" y="-22" on="1"/>
        <pt x="212" y="-22" on="0"/>
        <pt x="25" y="-113" on="0"/>
        <pt x="25" y="-178" on="1"/>
        <pt x="25" y="-208" on="0"/>
        <pt x="72" y="-243" on="0"/>
      </contour>
      <contour>
        <pt x="546" y="787" on="1"/>
        <pt x="576" y="771" on="1"/>
        <pt x="556" y="740" on="0"/>
        <pt x="493" y="692" on="0"/>
        <pt x="431" y="692" on="0"/>
        <pt x="363" y="739" on="0"/>
        <pt x="342" y="763" on="1"/>
        <pt x="374" y="790" on="1"/>
        <pt x="426" y="739" on="0"/>
        <pt x="459" y="739" on="1"/>
        <pt x="510" y="739" on="0"/>
      </contour>
    </TTGlyph>
    <TTGlyph name="Gcircumflex" xMin="-95" yMin="-311" xMax="644" yMax="824">
      <contour>
        <pt x="520" y="-8" on="1"/>
        <pt x="505" y="-42" on="1"/>
        <pt x="407" y="-25" on="0"/>
        <pt x="392" y="-24" on="1"/>
        <pt x="343" y="-157" on="0"/>
        <pt x="161" y="-311" on="0"/>
        <pt x="48" y="-311" on="1"/>
        <pt x="-13" y="-311" on="0"/>
        <pt x="-95" y="-245" on="0"/>
        <pt x="-95" y="-196" on="1"/>
        <pt x="-95" y="-110" on="0"/>
        <pt x="142" y="20" on="0"/>
        <pt x="311" y="20" on="1"/>
        <pt x="334" y="20" on="0"/>
        <pt x="346" y="19" on="1"/>
        <pt x="364" y="57" on="0"/>
        <pt x="375" y="100" on="1"/>
        <pt x="310" y="57" on="0"/>
        <pt x="166" y="57" on="0"/>
        <pt x="69" y="160" on="0"/>
        <pt x="69" y="329" on="0"/>
        <pt x="182" y="516" on="0"/>
        <pt x="367" y="638" on="0"/>
        <pt x="463" y="638" on="1"/>
        <pt x="519" y="638" on="0"/>
        <pt x="619" y="599" on="0"/>
        <pt x="644" y="572" on="1"/>
        <pt x="590" y="507" on="1"/>
        <pt x="549" y="539" on="0"/>
        <pt x="532" y="550" on="1"/>
        <pt x="488" y="580" on="0"/>
        <pt x="438" y="580" on="1"/>
        <pt x="335" y="580" on="0"/>
        <pt x="159" y="381" on="0"/>
        <pt x="159" y="264" on="1"/>
        <pt x="159" y="200" on="0"/>
        <pt x="231" y="126" on="0"/>
        <pt x="348" y="126" on="0"/>
        <pt x="395" y="154" on="1"/>
        <pt x="453" y="307" on="0"/>
        <pt x="503" y="307" on="1"/>
        <pt x="532" y="307" on="0"/>
        <pt x="532" y="251" on="0"/>
        <pt x="489" y="178" on="0"/>
        <pt x="455" y="149" on="1"/>
        <pt x="414" y="39" on="0"/>
        <pt x="407" y="17" on="1"/>
        <pt x="477" y="9" on="0"/>
      </contour>
      <contour>
        <pt x="97" y="-243" on="1"/>
        <pt x="165" y="-243" on="0"/>
        <pt x="298" y="-117" on="0"/>
        <pt x="332" y="-22" on="1"/>
        <pt x="197" y="-22" on="0"/>
        <pt x="10" y="-113" on="0"/>
        <pt x="10" y="-178" on="1"/>
        <pt x="10" y="-208" on="0"/>
        <pt x="57" y="-243" on="0"/>
      </contour>
      <contour>
        <pt x="275" y="710" on="1"/>
        <pt x="422" y="824" on="1"/>
        <pt x="530" y="738" on="0"/>
        <pt x="551" y="716" on="1"/>
        <pt x="521" y="692" on="1"/>
        <pt x="436" y="743" on="0"/>
        <pt x="418" y="756" on="1"/>
        <pt x="319" y="686" on="1"/>
      </contour>
    </TTGlyph>
    <TTGlyph name="Gdotaccent" xMin="-95" yMin="-311" xMax="644" yMax="776">
      <contour>
        <pt x="520" y="-8" on="1"/>
        <pt x="505" y="-42" on="1"/>
        <pt x="407" y="-25" on="0"/>
        <pt x="392" y="-24" on="1"/>
        <pt x="343" y="-157" on="0"/>
        <pt x="161" y="-311" on="0"/>
        <pt x="48" y="-311" on="1"/>
        <pt x="-13" y="-311" on="0"/>
        <pt x="-95" y="-245" on="0"/>
        <pt x="-95" y="-196" on="1"/>
        <pt x="-95" y="-110" on="0"/>
        <pt x="142" y="20" on="0"/>
        <pt x="311" y="20" on="1"/>
        <pt x="334" y="20" on="0"/>
        <pt x="346" y="19" on="1"/>
        <pt x="364" y="57" on="0"/>
        <pt x="375" y="100" on="1"/>
        <pt x="310" y="57" on="0"/>
        <pt x="166" y="57" on="0"/>
        <pt x="69" y="160" on="0"/>
        <pt x="69" y="329" on="0"/>
        <pt x="182" y="516" on="0"/>
        <pt x="367" y="638" on="0"/>
        <pt x="463" y="638" on="1"/>
        <pt x="519" y="638" on="0"/>
        <pt x="619" y="599" on="0"/>
        <pt x="644" y="572" on="1"/>
        <pt x="590" y="507" on="1"/>
        <pt x="549" y="539" on="0"/>
        <pt x="532" y="550" on="1"/>
        <pt x="488" y="580" on="0"/>
        <pt x="438" y="580" on="1"/>
        <pt x="335" y="580" on="0"/>
        <pt x="159" y="381" on="0"/>
        <pt x="159" y="264" on="1"/>
        <pt x="159" y="200" on="0"/>
        <pt x="231" y="126" on="0"/>
        <pt x="348" y="126" on="0"/>
        <pt x="395" y="154" on="1"/>
        <pt x="453" y="307" on="0"/>
        <pt x="503" y="307" on="1"/>
        <pt x="532" y="307" on="0"/>
        <pt x="532" y="251" on="0"/>
        <pt x="489" y="178" on="0"/>
        <pt x="455" y="149" on="1"/>
        <pt x="414" y="39" on="0"/>
        <pt x="407" y="17" on="1"/>
        <pt x="477" y="9" on="0"/>
      </contour>
      <contour>
        <pt x="97" y="-243" on="1"/>
        <pt x="165" y="-243" on="0"/>
        <pt x="298" y="-117" on="0"/>
        <pt x="332" y="-22" on="1"/>
        <pt x="197" y="-22" on="0"/>
        <pt x="10" y="-113" on="0"/>
        <pt x="10" y="-178" on="1"/>
        <pt x="10" y="-208" on="0"/>
        <pt x="57" y="-243" on="0"/>
      </contour>
      <contour>
        <pt x="406" y="697" on="0"/>
        <pt x="384" y="720" on="0"/>
        <pt x="384" y="753" on="0"/>
        <pt x="407" y="776" on="0"/>
        <pt x="440" y="776" on="0"/>
        <pt x="463" y="752" on="0"/>
        <pt x="463" y="720" on="0"/>
        <pt x="440" y="697" on="0"/>
      </contour>
    </TTGlyph>
    <TTGlyph name="H" xMin="-90" yMin="-147" xMax="795" yMax="637">
      <contour>
        <pt x="750" y="637" on="1"/>
        <pt x="795" y="615" on="1"/>
        <pt x="728" y="484" on="0"/>
        <pt x="656" y="278" on="1"/>
        <pt x="702" y="278" on="0"/>
        <pt x="719" y="274" on="1"/>
        <pt x="715" y="217" on="1"/>
        <pt x="694" y="210" on="0"/>
        <pt x="633" y="210" on="1"/>
        <pt x="612" y="152" on="0"/>
        <pt x="604" y="80" on="0"/>
        <pt x="599" y="12" on="0"/>
        <pt x="598" y="0" on="1"/>
        <pt x="542" y="0" on="1"/>
        <pt x="537" y="17" on="0"/>
        <pt x="537" y="35" on="1"/>
        <pt x="537" y="97" on="0"/>
        <pt x="570" y="210" on="1"/>
        <pt x="510" y="210" on="0"/>
        <pt x="388" y="196" on="1"/>
        <pt x="383" y="180" on="0"/>
        <pt x="343" y="93" on="0"/>
        <pt x="304" y="29" on="0"/>
        <pt x="238" y="-47" on="0"/>
        <pt x="202" y="-73" on="1"/>
        <pt x="99" y="-147" on="0"/>
        <pt x="2" y="-147" on="1"/>
        <pt x="-38" y="-147" on="0"/>
        <pt x="-90" y="-97" on="0"/>
        <pt x="-90" y="-59" on="1"/>
        <pt x="-90" y="37" on="0"/>
        <pt x="131" y="194" on="0"/>
        <pt x="327" y="241" on="1"/>
        <pt x="401" y="457" on="0"/>
        <pt x="535" y="549" on="1"/>
        <pt x="390" y="547" on="0"/>
        <pt x="202" y="453" on="0"/>
        <pt x="202" y="380" on="1"/>
        <pt x="202" y="357" on="0"/>
        <pt x="216" y="324" on="0"/>
        <pt x="242" y="289" on="1"/>
        <pt x="208" y="257" on="1"/>
        <pt x="164" y="285" on="0"/>
        <pt x="118" y="365" on="0"/>
        <pt x="118" y="402" on="1"/>
        <pt x="118" y="464" on="0"/>
        <pt x="250" y="569" on="0"/>
        <pt x="446" y="626" on="0"/>
        <pt x="547" y="626" on="1"/>
        <pt x="598" y="626" on="0"/>
        <pt x="637" y="611" on="0"/>
        <pt x="637" y="570" on="0"/>
        <pt x="608" y="552" on="1"/>
        <pt x="483" y="474" on="0"/>
        <pt x="407" y="256" on="1"/>
        <pt x="466" y="266" on="0"/>
        <pt x="590" y="278" on="1"/>
        <pt x="638" y="418" on="0"/>
        <pt x="697" y="553" on="0"/>
      </contour>
      <contour>
        <pt x="119" y="-78" on="0"/>
        <pt x="218" y="-13" on="0"/>
        <pt x="285" y="92" on="0"/>
        <pt x="309" y="184" on="1"/>
        <pt x="176" y="162" on="0"/>
        <pt x="13" y="51" on="0"/>
        <pt x="13" y="-19" on="1"/>
        <pt x="13" y="-47" on="0"/>
        <pt x="46" y="-78" on="0"/>
      </contour>
    </TTGlyph>
    <TTGlyph name="Hbar" xMin="-95" yMin="-147" xMax="790" yMax="637">
      <contour>
        <pt x="785" y="441" on="1"/>
        <pt x="785" y="394" on="1"/>
        <pt x="691" y="387" on="1"/>
        <pt x="673" y="342" on="0"/>
        <pt x="651" y="278" on="1"/>
        <pt x="697" y="278" on="0"/>
        <pt x="714" y="274" on="1"/>
        <pt x="710" y="217" on="1"/>
        <pt x="689" y="210" on="0"/>
        <pt x="628" y="210" on="1"/>
        <pt x="607" y="152" on="0"/>
        <pt x="599" y="80" on="0"/>
        <pt x="594" y="12" on="0"/>
        <pt x="593" y="0" on="1"/>
        <pt x="537" y="0" on="1"/>
        <pt x="532" y="17" on="0"/>
        <pt x="532" y="35" on="1"/>
        <pt x="532" y="97" on="0"/>
        <pt x="565" y="210" on="1"/>
        <pt x="505" y="210" on="0"/>
        <pt x="383" y="196" on="1"/>
        <pt x="378" y="180" on="0"/>
        <pt x="338" y="93" on="0"/>
        <pt x="299" y="29" on="0"/>
        <pt x="233" y="-47" on="0"/>
        <pt x="197" y="-73" on="1"/>
        <pt x="94" y="-147" on="0"/>
        <pt x="-3" y="-147" on="1"/>
        <pt x="-43" y="-147" on="0"/>
        <pt x="-95" y="-97" on="0"/>
        <pt x="-95" y="-59" on="1"/>
        <pt x="-95" y="37" on="0"/>
        <pt x="126" y="194" on="0"/>
        <pt x="322" y="241" on="1"/>
        <pt x="347" y="313" on="0"/>
        <pt x="372" y="360" on="1"/>
        <pt x="294" y="348" on="1"/>
        <pt x="276" y="383" on="1"/>
        <pt x="294" y="387" on="0"/>
        <pt x="380" y="408" on="0"/>
        <pt x="400" y="411" on="1"/>
        <pt x="456" y="499" on="0"/>
        <pt x="530" y="549" on="1"/>
        <pt x="385" y="547" on="0"/>
        <pt x="197" y="453" on="0"/>
        <pt x="197" y="380" on="1"/>
        <pt x="197" y="357" on="0"/>
        <pt x="211" y="324" on="0"/>
        <pt x="237" y="289" on="1"/>
        <pt x="203" y="257" on="1"/>
        <pt x="159" y="285" on="0"/>
        <pt x="113" y="365" on="0"/>
        <pt x="113" y="402" on="1"/>
        <pt x="113" y="464" on="0"/>
        <pt x="245" y="569" on="0"/>
        <pt x="441" y="626" on="0"/>
        <pt x="542" y="626" on="1"/>
        <pt x="593" y="626" on="0"/>
        <pt x="632" y="611" on="0"/>
        <pt x="632" y="570" on="0"/>
        <pt x="603" y="552" on="1"/>
        <pt x="533" y="508" on="0"/>
        <pt x="479" y="422" on="1"/>
        <pt x="561" y="433" on="0"/>
        <pt x="642" y="436" on="1"/>
        <pt x="682" y="537" on="0"/>
        <pt x="745" y="637" on="1"/>
        <pt x="790" y="615" on="1"/>
        <pt x="752" y="540" on="0"/>
        <pt x="711" y="439" on="1"/>
        <pt x="741" y="441" on="0"/>
      </contour>
      <contour>
        <pt x="114" y="-78" on="0"/>
        <pt x="213" y="-13" on="0"/>
        <pt x="280" y="92" on="0"/>
        <pt x="304" y="184" on="1"/>
        <pt x="171" y="162" on="0"/>
        <pt x="8" y="51" on="0"/>
        <pt x="8" y="-19" on="1"/>
        <pt x="8" y="-47" on="0"/>
        <pt x="41" y="-78" on="0"/>
      </contour>
      <contour>
        <pt x="585" y="278" on="1"/>
        <pt x="603" y="331" on="0"/>
        <pt x="621" y="381" on="1"/>
        <pt x="448" y="366" on="1"/>
        <pt x="423" y="316" on="0"/>
        <pt x="402" y="256" on="1"/>
        <pt x="461" y="266" on="0"/>
      </contour>
    </TTGlyph>
    <TTGlyph name="Hcircumflex" xMin="-85" yMin="-147" xMax="800" yMax="817">
      <contour>
        <pt x="755" y="637" on="1"/>
        <pt x="800" y="615" on="1"/>
        <pt x="733" y="484" on="0"/>
        <pt x="661" y="278" on="1"/>
        <pt x="707" y="278" on="0"/>
        <pt x="724" y="274" on="1"/>
        <pt x="720" y="217" on="1"/>
        <pt x="699" y="210" on="0"/>
        <pt x="638" y="210" on="1"/>
        <pt x="617" y="152" on="0"/>
        <pt x="609" y="80" on="0"/>
        <pt x="604" y="12" on="0"/>
        <pt x="603" y="0" on="1"/>
        <pt x="547" y="0" on="1"/>
        <pt x="542" y="17" on="0"/>
        <pt x="542" y="35" on="1"/>
        <pt x="542" y="97" on="0"/>
        <pt x="575" y="210" on="1"/>
        <pt x="515" y="210" on="0"/>
        <pt x="393" y="196" on="1"/>
        <pt x="388" y="180" on="0"/>
        <pt x="348" y="93" on="0"/>
        <pt x="309" y="29" on="0"/>
        <pt x="243" y="-47" on="0"/>
        <pt x="207" y="-73" on="1"/>
        <pt x="104" y="-147" on="0"/>
        <pt x="7" y="-147" on="1"/>
        <pt x="-33" y="-147" on="0"/>
        <pt x="-85" y="-97" on="0"/>
        <pt x="-85" y="-59" on="1"/>
        <pt x="-85" y="37" on="0"/>
        <pt x="136" y="194" on="0"/>
        <pt x="332" y="241" on="1"/>
        <pt x="406" y="457" on="0"/>
        <pt x="540" y="549" on="1"/>
        <pt x="395" y="547" on="0"/>
        <pt x="207" y="453" on="0"/>
        <pt x="207" y="380" on="1"/>
        <pt x="207" y="357" on="0"/>
        <pt x="221" y="324" on="0"/>
        <pt x="247" y="289" on="1"/>
        <pt x="213" y="257" on="1"/>
        <pt x="169" y="285" on="0"/>
        <pt x="123" y="365" on="0"/>
        <pt x="123" y="402" on="1"/>
        <pt x="123" y="464" on="0"/>
        <pt x="255" y="569" on="0"/>
        <pt x="451" y="626" on="0"/>
        <pt x="552" y="626" on="1"/>
        <pt x="603" y="626" on="0"/>
        <pt x="642" y="611" on="0"/>
        <pt x="642" y="570" on="0"/>
        <pt x="613" y="552" on="1"/>
        <pt x="488" y="474" on="0"/>
        <pt x="412" y="256" on="1"/>
        <pt x="471" y="266" on="0"/>
        <pt x="595" y="278" on="1"/>
        <pt x="643" y="418" on="0"/>
        <pt x="702" y="553" on="0"/>
      </contour>
      <contour>
        <pt x="124" y="-78" on="0"/>
        <pt x="223" y="-13" on="0"/>
        <pt x="290" y="92" on="0"/>
        <pt x="314" y="184" on="1"/>
        <pt x="181" y="162" on="0"/>
        <pt x="18" y="51" on="0"/>
        <pt x="18" y="-19" on="1"/>
        <pt x="18" y="-47" on="0"/>
        <pt x="51" y="-78" on="0"/>
      </contour>
      <contour>
        <pt x="458" y="703" on="1"/>
        <pt x="605" y="817" on="1"/>
        <pt x="713" y="731" on="0"/>
        <pt x="734" y="709" on="1"/>
        <pt x="704" y="685" on="1"/>
        <pt x="619" y="736" on="0"/>
        <pt x="601" y="749" on="1"/>
        <pt x="502" y="679" on="1"/>
      </contour>
    </TTGlyph>
    <TTGlyph name="I" xMin="30" yMin="3" xMax="606" yMax="619">
      <contour>
        <pt x="589" y="616" on="1"/>
        <pt x="606" y="611" on="0"/>
        <pt x="606" y="598" on="1"/>
        <pt x="606" y="594" on="0"/>
        <pt x="594" y="580" on="1"/>
        <pt x="548" y="521" on="0"/>
        <pt x="511" y="463" on="0"/>
        <pt x="460" y="327" on="0"/>
        <pt x="419" y="202" on="0"/>
        <pt x="419" y="201" on="1"/>
        <pt x="378" y="109" on="0"/>
        <pt x="234" y="3" on="0"/>
        <pt x="155" y="3" on="1"/>
        <pt x="99" y="3" on="0"/>
        <pt x="30" y="58" on="0"/>
        <pt x="30" y="104" on="1"/>
        <pt x="30" y="176" on="0"/>
        <pt x="216" y="296" on="0"/>
        <pt x="309" y="296" on="1"/>
        <pt x="313" y="263" on="1"/>
        <pt x="239" y="248" on="0"/>
        <pt x="132" y="168" on="0"/>
        <pt x="132" y="121" on="1"/>
        <pt x="132" y="91" on="0"/>
        <pt x="167" y="53" on="0"/>
        <pt x="194" y="53" on="1"/>
        <pt x="245" y="53" on="0"/>
        <pt x="319" y="148" on="0"/>
        <pt x="396" y="390" on="0"/>
        <pt x="459" y="502" on="0"/>
        <pt x="507" y="540" on="1"/>
        <pt x="493" y="541" on="0"/>
        <pt x="476" y="541" on="1"/>
        <pt x="390" y="541" on="0"/>
        <pt x="227" y="487" on="0"/>
        <pt x="227" y="442" on="1"/>
        <pt x="227" y="414" on="0"/>
        <pt x="252" y="389" on="1"/>
        <pt x="230" y="362" on="1"/>
        <pt x="163" y="409" on="0"/>
        <pt x="163" y="471" on="1"/>
        <pt x="163" y="512" on="0"/>
        <pt x="234" y="572" on="0"/>
        <pt x="294" y="588" on="1"/>
        <pt x="409" y="619" on="0"/>
        <pt x="552" y="619" on="1"/>
        <pt x="583" y="619" on="0"/>
      </contour>
    </TTGlyph>
    <TTGlyph name="Iacute" xMin="40" yMin="3" xMax="616" yMax="768">
      <contour>
        <pt x="599" y="616" on="1"/>
        <pt x="616" y="611" on="0"/>
        <pt x="616" y="598" on="1"/>
        <pt x="616" y="594" on="0"/>
        <pt x="604" y="580" on="1"/>
        <pt x="558" y="521" on="0"/>
        <pt x="521" y="463" on="0"/>
        <pt x="470" y="327" on="0"/>
        <pt x="429" y="202" on="0"/>
        <pt x="429" y="201" on="1"/>
        <pt x="388" y="109" on="0"/>
        <pt x="244" y="3" on="0"/>
        <pt x="165" y="3" on="1"/>
        <pt x="109" y="3" on="0"/>
        <pt x="40" y="58" on="0"/>
        <pt x="40" y="104" on="1"/>
        <pt x="40" y="176" on="0"/>
        <pt x="226" y="296" on="0"/>
        <pt x="319" y="296" on="1"/>
        <pt x="323" y="263" on="1"/>
        <pt x="249" y="248" on="0"/>
        <pt x="142" y="168" on="0"/>
        <pt x="142" y="121" on="1"/>
        <pt x="142" y="91" on="0"/>
        <pt x="177" y="53" on="0"/>
        <pt x="204" y="53" on="1"/>
        <pt x="255" y="53" on="0"/>
        <pt x="329" y="148" on="0"/>
        <pt x="406" y="390" on="0"/>
        <pt x="469" y="502" on="0"/>
        <pt x="517" y="540" on="1"/>
        <pt x="503" y="541" on="0"/>
        <pt x="486" y="541" on="1"/>
        <pt x="400" y="541" on="0"/>
        <pt x="237" y="487" on="0"/>
        <pt x="237" y="442" on="1"/>
        <pt x="237" y="414" on="0"/>
        <pt x="262" y="389" on="1"/>
        <pt x="240" y="362" on="1"/>
        <pt x="173" y="409" on="0"/>
        <pt x="173" y="471" on="1"/>
        <pt x="173" y="512" on="0"/>
        <pt x="244" y="572" on="0"/>
        <pt x="304" y="588" on="1"/>
        <pt x="419" y="619" on="0"/>
        <pt x="562" y="619" on="1"/>
        <pt x="593" y="619" on="0"/>
      </contour>
      <contour>
        <pt x="567" y="728" on="1"/>
        <pt x="396" y="672" on="1"/>
        <pt x="367" y="690" on="1"/>
        <pt x="499" y="768" on="1"/>
      </contour>
    </TTGlyph>
    <TTGlyph name="Ibreve" xMin="25" yMin="3" xMax="601" yMax="789">
      <contour>
        <pt x="584" y="616" on="1"/>
        <pt x="601" y="611" on="0"/>
        <pt x="601" y="598" on="1"/>
        <pt x="601" y="594" on="0"/>
        <pt x="590" y="580" on="1"/>
        <pt x="543" y="521" on="0"/>
        <pt x="506" y="463" on="0"/>
        <pt x="455" y="327" on="0"/>
        <pt x="414" y="202" on="0"/>
        <pt x="414" y="201" on="1"/>
        <pt x="373" y="109" on="0"/>
        <pt x="229" y="3" on="0"/>
        <pt x="150" y="3" on="1"/>
        <pt x="94" y="3" on="0"/>
        <pt x="25" y="58" on="0"/>
        <pt x="25" y="104" on="1"/>
        <pt x="25" y="176" on="0"/>
        <pt x="211" y="296" on="0"/>
        <pt x="304" y="296" on="1"/>
        <pt x="308" y="263" on="1"/>
        <pt x="234" y="248" on="0"/>
        <pt x="127" y="168" on="0"/>
        <pt x="127" y="121" on="1"/>
        <pt x="127" y="91" on="0"/>
        <pt x="162" y="53" on="0"/>
        <pt x="189" y="53" on="1"/>
        <pt x="240" y="53" on="0"/>
        <pt x="314" y="148" on="0"/>
        <pt x="391" y="390" on="0"/>
        <pt x="454" y="502" on="0"/>
        <pt x="502" y="540" on="1"/>
        <pt x="488" y="541" on="0"/>
        <pt x="471" y="541" on="1"/>
        <pt x="385" y="541" on="0"/>
        <pt x="222" y="487" on="0"/>
        <pt x="222" y="442" on="1"/>
        <pt x="222" y="414" on="0"/>
        <pt x="247" y="389" on="1"/>
        <pt x="225" y="362" on="1"/>
        <pt x="158" y="409" on="0"/>
        <pt x="158" y="471" on="1"/>
        <pt x="158" y="512" on="0"/>
        <pt x="229" y="572" on="0"/>
        <pt x="288" y="588" on="1"/>
        <pt x="404" y="619" on="0"/>
        <pt x="547" y="619" on="1"/>
        <pt x="578" y="619" on="0"/>
      </contour>
      <contour>
        <pt x="529" y="786" on="1"/>
        <pt x="559" y="770" on="1"/>
        <pt x="539" y="739" on="0"/>
        <pt x="476" y="691" on="0"/>
        <pt x="414" y="691" on="0"/>
        <pt x="346" y="738" on="0"/>
        <pt x="325" y="762" on="1"/>
        <pt x="357" y="789" on="1"/>
        <pt x="409" y="738" on="0"/>
        <pt x="442" y="738" on="1"/>
        <pt x="493" y="738" on="0"/>
      </contour>
    </TTGlyph>
    <TTGlyph name="Icircumflex" xMin="40" yMin="3" xMax="616" yMax="802">
      <contour>
        <pt x="599" y="616" on="1"/>
        <pt x="616" y="611" on="0"/>
        <pt x="616" y="598" on="1"/>
        <pt x="616" y="594" on="0"/>
        <pt x="604" y="580" on="1"/>
        <pt x="558" y="521" on="0"/>
        <pt x="521" y="463" on="0"/>
        <pt x="470" y="327" on="0"/>
        <pt x="429" y="202" on="0"/>
        <pt x="429" y="201" on="1"/>
        <pt x="388" y="109" on="0"/>
        <pt x="244" y="3" on="0"/>
        <pt x="165" y="3" on="1"/>
        <pt x="109" y="3" on="0"/>
        <pt x="40" y="58" on="0"/>
        <pt x="40" y="104" on="1"/>
        <pt x="40" y="176" on="0"/>
        <pt x="226" y="296" on="0"/>
        <pt x="319" y="296" on="1"/>
        <pt x="323" y="263" on="1"/>
        <pt x="249" y="248" on="0"/>
        <pt x="142" y="168" on="0"/>
        <pt x="142" y="121" on="1"/>
        <pt x="142" y="91" on="0"/>
        <pt x="177" y="53" on="0"/>
        <pt x="204" y="53" on="1"/>
        <pt x="255" y="53" on="0"/>
        <pt x="329" y="148" on="0"/>
        <pt x="406" y="390" on="0"/>
        <pt x="469" y="502" on="0"/>
        <pt x="517" y="540" on="1"/>
        <pt x="503" y="541" on="0"/>
        <pt x="486" y="541" on="1"/>
        <pt x="400" y="541" on="0"/>
        <pt x="237" y="487" on="0"/>
        <pt x="237" y="442" on="1"/>
        <pt x="237" y="414" on="0"/>
        <pt x="262" y="389" on="1"/>
        <pt x="240" y="362" on="1"/>
        <pt x="173" y="409" on="0"/>
        <pt x="173" y="471" on="1"/>
        <pt x="173" y="512" on="0"/>
        <pt x="244" y="572" on="0"/>
        <pt x="304" y="588" on="1"/>
        <pt x="419" y="619" on="0"/>
        <pt x="562" y="619" on="1"/>
        <pt x="593" y="619" on="0"/>
      </contour>
      <contour>
        <pt x="306" y="688" on="1"/>
        <pt x="453" y="802" on="1"/>
        <pt x="561" y="716" on="0"/>
        <pt x="582" y="694" on="1"/>
        <pt x="552" y="670" on="1"/>
        <pt x="467" y="721" on="0"/>
        <pt x="449" y="734" on="1"/>
        <pt x="350" y="664" on="1"/>
      </contour>
    </TTGlyph>
    <TTGlyph name="Idieresis" xMin="40" yMin="3" xMax="616" yMax="763">
      <contour>
        <pt x="599" y="616" on="1"/>
        <pt x="616" y="611" on="0"/>
        <pt x="616" y="598" on="1"/>
        <pt x="616" y="594" on="0"/>
        <pt x="604" y="580" on="1"/>
        <pt x="558" y="521" on="0"/>
        <pt x="521" y="463" on="0"/>
        <pt x="470" y="327" on="0"/>
        <pt x="429" y="202" on="0"/>
        <pt x="429" y="201" on="1"/>
        <pt x="388" y="109" on="0"/>
        <pt x="244" y="3" on="0"/>
        <pt x="165" y="3" on="1"/>
        <pt x="109" y="3" on="0"/>
        <pt x="40" y="58" on="0"/>
        <pt x="40" y="104" on="1"/>
        <pt x="40" y="176" on="0"/>
        <pt x="226" y="296" on="0"/>
        <pt x="319" y="296" on="1"/>
        <pt x="323" y="263" on="1"/>
        <pt x="249" y="248" on="0"/>
        <pt x="142" y="168" on="0"/>
        <pt x="142" y="121" on="1"/>
        <pt x="142" y="91" on="0"/>
        <pt x="177" y="53" on="0"/>
        <pt x="204" y="53" on="1"/>
        <pt x="255" y="53" on="0"/>
        <pt x="329" y="148" on="0"/>
        <pt x="406" y="390" on="0"/>
        <pt x="469" y="502" on="0"/>
        <pt x="517" y="540" on="1"/>
        <pt x="503" y="541" on="0"/>
        <pt x="486" y="541" on="1"/>
        <pt x="400" y="541" on="0"/>
        <pt x="237" y="487" on="0"/>
        <pt x="237" y="442" on="1"/>
        <pt x="237" y="414" on="0"/>
        <pt x="262" y="389" on="1"/>
        <pt x="240" y="362" on="1"/>
        <pt x="173" y="409" on="0"/>
        <pt x="173" y="471" on="1"/>
        <pt x="173" y="512" on="0"/>
        <pt x="244" y="572" on="0"/>
        <pt x="304" y="588" on="1"/>
        <pt x="419" y="619" on="0"/>
        <pt x="562" y="619" on="1"/>
        <pt x="593" y="619" on="0"/>
      </contour>
      <contour>
        <pt x="354" y="706" on="0"/>
        <pt x="354" y="740" on="0"/>
        <pt x="377" y="763" on="0"/>
        <pt x="410" y="763" on="0"/>
        <pt x="433" y="740" on="0"/>
        <pt x="433" y="707" on="0"/>
        <pt x="410" y="684" on="0"/>
        <pt x="376" y="684" on="0"/>
      </contour>
      <contour>
        <pt x="481" y="706" on="0"/>
        <pt x="481" y="740" on="0"/>
        <pt x="504" y="763" on="0"/>
        <pt x="536" y="763" on="0"/>
        <pt x="560" y="740" on="0"/>
        <pt x="560" y="707" on="0"/>
        <pt x="537" y="684" on="0"/>
        <pt x="504" y="684" on="0"/>
      </contour>
    </TTGlyph>
    <TTGlyph name="Idotaccent" xMin="40" yMin="3" xMax="616" yMax="773">
      <contour>
        <pt x="599" y="616" on="1"/>
        <pt x="616" y="611" on="0"/>
        <pt x="616" y="598" on="1"/>
        <pt x="616" y="594" on="0"/>
        <pt x="604" y="580" on="1"/>
        <pt x="558" y="521" on="0"/>
        <pt x="521" y="463" on="0"/>
        <pt x="470" y="327" on="0"/>
        <pt x="429" y="202" on="0"/>
        <pt x="429" y="201" on="1"/>
        <pt x="388" y="109" on="0"/>
        <pt x="244" y="3" on="0"/>
        <pt x="165" y="3" on="1"/>
        <pt x="109" y="3" on="0"/>
        <pt x="40" y="58" on="0"/>
        <pt x="40" y="104" on="1"/>
        <pt x="40" y="176" on="0"/>
        <pt x="226" y="296" on="0"/>
        <pt x="319" y="296" on="1"/>
        <pt x="323" y="263" on="1"/>
        <pt x="249" y="248" on="0"/>
        <pt x="142" y="168" on="0"/>
        <pt x="142" y="121" on="1"/>
        <pt x="142" y="91" on="0"/>
        <pt x="177" y="53" on="0"/>
        <pt x="204" y="53" on="1"/>
        <pt x="255" y="53" on="0"/>
        <pt x="329" y="148" on="0"/>
        <pt x="406" y="390" on="0"/>
        <pt x="469" y="502" on="0"/>
        <pt x="517" y="540" on="1"/>
        <pt x="503" y="541" on="0"/>
        <pt x="486" y="541" on="1"/>
        <pt x="400" y="541" on="0"/>
        <pt x="237" y="487" on="0"/>
        <pt x="237" y="442" on="1"/>
        <pt x="237" y="414" on="0"/>
        <pt x="262" y="389" on="1"/>
        <pt x="240" y="362" on="1"/>
        <pt x="173" y="409" on="0"/>
        <pt x="173" y="471" on="1"/>
        <pt x="173" y="512" on="0"/>
        <pt x="244" y="572" on="0"/>
        <pt x="304" y="588" on="1"/>
        <pt x="419" y="619" on="0"/>
        <pt x="562" y="619" on="1"/>
        <pt x="593" y="619" on="0"/>
      </contour>
      <contour>
        <pt x="417" y="716" on="0"/>
        <pt x="417" y="750" on="0"/>
        <pt x="440" y="773" on="0"/>
        <pt x="472" y="773" on="0"/>
        <pt x="496" y="750" on="0"/>
        <pt x="496" y="717" on="0"/>
        <pt x="473" y="694" on="0"/>
        <pt x="440" y="694" on="0"/>
      </contour>
    </TTGlyph>
    <TTGlyph name="Igrave" xMin="40" yMin="3" xMax="616" yMax="763">
      <contour>
        <pt x="599" y="616" on="1"/>
        <pt x="616" y="611" on="0"/>
        <pt x="616" y="598" on="1"/>
        <pt x="616" y="594" on="0"/>
        <pt x="604" y="580" on="1"/>
        <pt x="558" y="521" on="0"/>
        <pt x="521" y="463" on="0"/>
        <pt x="470" y="327" on="0"/>
        <pt x="429" y="202" on="0"/>
        <pt x="429" y="201" on="1"/>
        <pt x="388" y="109" on="0"/>
        <pt x="244" y="3" on="0"/>
        <pt x="165" y="3" on="1"/>
        <pt x="109" y="3" on="0"/>
        <pt x="40" y="58" on="0"/>
        <pt x="40" y="104" on="1"/>
        <pt x="40" y="176" on="0"/>
        <pt x="226" y="296" on="0"/>
        <pt x="319" y="296" on="1"/>
        <pt x="323" y="263" on="1"/>
        <pt x="249" y="248" on="0"/>
        <pt x="142" y="168" on="0"/>
        <pt x="142" y="121" on="1"/>
        <pt x="142" y="91" on="0"/>
        <pt x="177" y="53" on="0"/>
        <pt x="204" y="53" on="1"/>
        <pt x="255" y="53" on="0"/>
        <pt x="329" y="148" on="0"/>
        <pt x="406" y="390" on="0"/>
        <pt x="469" y="502" on="0"/>
        <pt x="517" y="540" on="1"/>
        <pt x="503" y="541" on="0"/>
        <pt x="486" y="541" on="1"/>
        <pt x="400" y="541" on="0"/>
        <pt x="237" y="487" on="0"/>
        <pt x="237" y="442" on="1"/>
        <pt x="237" y="414" on="0"/>
        <pt x="262" y="389" on="1"/>
        <pt x="240" y="362" on="1"/>
        <pt x="173" y="409" on="0"/>
        <pt x="173" y="471" on="1"/>
        <pt x="173" y="512" on="0"/>
        <pt x="244" y="572" on="0"/>
        <pt x="304" y="588" on="1"/>
        <pt x="419" y="619" on="0"/>
        <pt x="562" y="619" on="1"/>
        <pt x="593" y="619" on="0"/>
      </contour>
      <contour>
        <pt x="553" y="667" on="1"/>
        <pt x="382" y="723" on="1"/>
        <pt x="450" y="763" on="1"/>
        <pt x="582" y="685" on="1"/>
      </contour>
    </TTGlyph>
    <TTGlyph name="Imacron" xMin="25" yMin="3" xMax="601" yMax="714">
      <contour>
        <pt x="584" y="616" on="1"/>
        <pt x="601" y="611" on="0"/>
        <pt x="601" y="598" on="1"/>
        <pt x="601" y="594" on="0"/>
        <pt x="590" y="580" on="1"/>
        <pt x="543" y="521" on="0"/>
        <pt x="506" y="463" on="0"/>
        <pt x="455" y="327" on="0"/>
        <pt x="414" y="202" on="0"/>
        <pt x="414" y="201" on="1"/>
        <pt x="373" y="109" on="0"/>
        <pt x="229" y="3" on="0"/>
        <pt x="150" y="3" on="1"/>
        <pt x="94" y="3" on="0"/>
        <pt x="25" y="58" on="0"/>
        <pt x="25" y="104" on="1"/>
        <pt x="25" y="176" on="0"/>
        <pt x="211" y="296" on="0"/>
        <pt x="304" y="296" on="1"/>
        <pt x="308" y="263" on="1"/>
        <pt x="234" y="248" on="0"/>
        <pt x="127" y="168" on="0"/>
        <pt x="127" y="121" on="1"/>
        <pt x="127" y="91" on="0"/>
        <pt x="162" y="53" on="0"/>
        <pt x="189" y="53" on="1"/>
        <pt x="240" y="53" on="0"/>
        <pt x="314" y="148" on="0"/>
        <pt x="391" y="390" on="0"/>
        <pt x="454" y="502" on="0"/>
        <pt x="502" y="540" on="1"/>
        <pt x="488" y="541" on="0"/>
        <pt x="471" y="541" on="1"/>
        <pt x="385" y="541" on="0"/>
        <pt x="222" y="487" on="0"/>
        <pt x="222" y="442" on="1"/>
        <pt x="222" y="414" on="0"/>
        <pt x="247" y="389" on="1"/>
        <pt x="225" y="362" on="1"/>
        <pt x="158" y="409" on="0"/>
        <pt x="158" y="471" on="1"/>
        <pt x="158" y="512" on="0"/>
        <pt x="229" y="572" on="0"/>
        <pt x="288" y="588" on="1"/>
        <pt x="404" y="619" on="0"/>
        <pt x="547" y="619" on="1"/>
        <pt x="578" y="619" on="0"/>
      </contour>
      <contour>
        <pt x="553" y="714" on="1"/>
        <pt x="553" y="678" on="1"/>
        <pt x="376" y="672" on="1"/>
        <pt x="367" y="703" on="1"/>
        <pt x="400" y="710" on="0"/>
      </contour>
    </TTGlyph>
    <TTGlyph name="Iogonek" xMin="25" yMin="-191" xMax="601" yMax="619">
      <contour>
        <pt x="252" y="-73" on="1"/>
        <pt x="272" y="-89" on="1"/>
        <pt x="242" y="-129" on="0"/>
        <pt x="137" y="-191" on="0"/>
        <pt x="74" y="-191" on="0"/>
        <pt x="41" y="-164" on="0"/>
        <pt x="41" y="-145" on="1"/>
        <pt x="41" y="-76" on="0"/>
        <pt x="120" y="5" on="1"/>
        <pt x="76" y="12" on="0"/>
        <pt x="25" y="65" on="0"/>
        <pt x="25" y="104" on="1"/>
        <pt x="25" y="176" on="0"/>
        <pt x="211" y="296" on="0"/>
        <pt x="304" y="296" on="1"/>
        <pt x="308" y="263" on="1"/>
        <pt x="234" y="248" on="0"/>
        <pt x="127" y="168" on="0"/>
        <pt x="127" y="121" on="1"/>
        <pt x="127" y="91" on="0"/>
        <pt x="162" y="53" on="0"/>
        <pt x="189" y="53" on="1"/>
        <pt x="240" y="53" on="0"/>
        <pt x="314" y="148" on="0"/>
        <pt x="391" y="390" on="0"/>
        <pt x="454" y="502" on="0"/>
        <pt x="502" y="540" on="1"/>
        <pt x="488" y="541" on="0"/>
        <pt x="471" y="541" on="1"/>
        <pt x="385" y="541" on="0"/>
        <pt x="222" y="487" on="0"/>
        <pt x="222" y="442" on="1"/>
        <pt x="222" y="414" on="0"/>
        <pt x="247" y="389" on="1"/>
        <pt x="225" y="362" on="1"/>
        <pt x="158" y="409" on="0"/>
        <pt x="158" y="471" on="1"/>
        <pt x="158" y="512" on="0"/>
        <pt x="229" y="572" on="0"/>
        <pt x="288" y="588" on="1"/>
        <pt x="404" y="619" on="0"/>
        <pt x="547" y="619" on="1"/>
        <pt x="578" y="619" on="0"/>
        <pt x="584" y="616" on="1"/>
        <pt x="601" y="611" on="0"/>
        <pt x="601" y="598" on="1"/>
        <pt x="601" y="594" on="0"/>
        <pt x="590" y="580" on="1"/>
        <pt x="543" y="521" on="0"/>
        <pt x="506" y="463" on="0"/>
        <pt x="455" y="327" on="0"/>
        <pt x="414" y="202" on="0"/>
        <pt x="414" y="201" on="1"/>
        <pt x="376" y="115" on="0"/>
        <pt x="247" y="12" on="0"/>
        <pt x="174" y="4" on="1"/>
        <pt x="155" y="-20" on="0"/>
        <pt x="127" y="-78" on="0"/>
        <pt x="127" y="-98" on="0"/>
        <pt x="141" y="-114" on="0"/>
        <pt x="157" y="-114" on="1"/>
        <pt x="193" y="-114" on="0"/>
      </contour>
    </TTGlyph>
    <TTGlyph name="Itilde" xMin="25" yMin="3" xMax="601" yMax="785">
      <contour>
        <pt x="584" y="616" on="1"/>
        <pt x="601" y="611" on="0"/>
        <pt x="601" y="598" on="1"/>
        <pt x="601" y="594" on="0"/>
        <pt x="590" y="580" on="1"/>
        <pt x="543" y="521" on="0"/>
        <pt x="506" y="463" on="0"/>
        <pt x="455" y="327" on="0"/>
        <pt x="414" y="202" on="0"/>
        <pt x="414" y="201" on="1"/>
        <pt x="373" y="109" on="0"/>
        <pt x="229" y="3" on="0"/>
        <pt x="150" y="3" on="1"/>
        <pt x="94" y="3" on="0"/>
        <pt x="25" y="58" on="0"/>
        <pt x="25" y="104" on="1"/>
        <pt x="25" y="176" on="0"/>
        <pt x="211" y="296" on="0"/>
        <pt x="304" y="296" on="1"/>
        <pt x="308" y="263" on="1"/>
        <pt x="234" y="248" on="0"/>
        <pt x="127" y="168" on="0"/>
        <pt x="127" y="121" on="1"/>
        <pt x="127" y="91" on="0"/>
        <pt x="162" y="53" on="0"/>
        <pt x="189" y="53" on="1"/>
        <pt x="240" y="53" on="0"/>
        <pt x="314" y="148" on="0"/>
        <pt x="391" y="390" on="0"/>
        <pt x="454" y="502" on="0"/>
        <pt x="502" y="540" on="1"/>
        <pt x="488" y="541" on="0"/>
        <pt x="471" y="541" on="1"/>
        <pt x="385" y="541" on="0"/>
        <pt x="222" y="487" on="0"/>
        <pt x="222" y="442" on="1"/>
        <pt x="222" y="414" on="0"/>
        <pt x="247" y="389" on="1"/>
        <pt x="225" y="362" on="1"/>
        <pt x="158" y="409" on="0"/>
        <pt x="158" y="471" on="1"/>
        <pt x="158" y="512" on="0"/>
        <pt x="229" y="572" on="0"/>
        <pt x="288" y="588" on="1"/>
        <pt x="404" y="619" on="0"/>
        <pt x="547" y="619" on="1"/>
        <pt x="578" y="619" on="0"/>
      </contour>
      <contour>
        <pt x="533" y="758" on="1"/>
        <pt x="556" y="739" on="1"/>
        <pt x="537" y="709" on="0"/>
        <pt x="488" y="667" on="0"/>
        <pt x="447" y="667" on="0"/>
        <pt x="399" y="736" on="0"/>
        <pt x="379" y="736" on="1"/>
        <pt x="369" y="736" on="0"/>
        <pt x="349" y="722" on="0"/>
        <pt x="338" y="714" on="0"/>
        <pt x="318" y="698" on="0"/>
        <pt x="312" y="694" on="1"/>
        <pt x="284" y="720" on="1"/>
        <pt x="358" y="785" on="0"/>
        <pt x="409" y="785" on="0"/>
        <pt x="467" y="715" on="0"/>
        <pt x="482" y="715" on="1"/>
        <pt x="492" y="715" on="0"/>
        <pt x="525" y="751" on="0"/>
      </contour>
    </TTGlyph>
    <TTGlyph name="J" xMin="-90" yMin="-316" xMax="712" yMax="622">
      <contour>
        <pt x="574" y="622" on="1"/>
        <pt x="635" y="622" on="0"/>
        <pt x="712" y="607" on="0"/>
        <pt x="712" y="584" on="1"/>
        <pt x="712" y="564" on="0"/>
        <pt x="680" y="545" on="1"/>
        <pt x="601" y="497" on="0"/>
        <pt x="478" y="282" on="0"/>
        <pt x="413" y="72" on="1"/>
        <pt x="472" y="72" on="0"/>
        <pt x="502" y="67" on="1"/>
        <pt x="496" y="27" on="1"/>
        <pt x="468" y="32" on="0"/>
        <pt x="424" y="32" on="0"/>
        <pt x="397" y="27" on="1"/>
        <pt x="366" y="-58" on="0"/>
        <pt x="297" y="-164" on="0"/>
        <pt x="189" y="-256" on="0"/>
        <pt x="57" y="-316" on="0"/>
        <pt x="-36" y="-316" on="0"/>
        <pt x="-90" y="-265" on="0"/>
        <pt x="-90" y="-223" on="1"/>
        <pt x="-90" y="-159" on="0"/>
        <pt x="30" y="-33" on="0"/>
        <pt x="227" y="53" on="0"/>
        <pt x="336" y="64" on="1"/>
        <pt x="338" y="68" on="0"/>
        <pt x="367" y="159" on="1"/>
        <pt x="413" y="309" on="0"/>
        <pt x="528" y="486" on="0"/>
        <pt x="609" y="544" on="1"/>
        <pt x="592" y="546" on="0"/>
        <pt x="564" y="546" on="1"/>
        <pt x="391" y="546" on="0"/>
        <pt x="169" y="420" on="0"/>
        <pt x="169" y="341" on="1"/>
        <pt x="169" y="290" on="0"/>
        <pt x="230" y="203" on="0"/>
        <pt x="286" y="157" on="1"/>
        <pt x="262" y="124" on="1"/>
        <pt x="99" y="212" on="0"/>
        <pt x="99" y="346" on="1"/>
        <pt x="99" y="424" on="0"/>
        <pt x="232" y="552" on="0"/>
        <pt x="449" y="622" on="0"/>
      </contour>
      <contour>
        <pt x="115" y="-248" on="0"/>
        <pt x="216" y="-184" on="0"/>
        <pt x="305" y="-60" on="0"/>
        <pt x="323" y="20" on="1"/>
        <pt x="193" y="7" on="0"/>
        <pt x="12" y="-116" on="0"/>
        <pt x="12" y="-192" on="1"/>
        <pt x="12" y="-218" on="0"/>
        <pt x="42" y="-248" on="0"/>
        <pt x="69" y="-248" on="1"/>
      </contour>
    </TTGlyph>
    <TTGlyph name="Jcircumflex" xMin="-95" yMin="-316" xMax="707" yMax="809">
      <contour>
        <pt x="569" y="622" on="1"/>
        <pt x="630" y="622" on="0"/>
        <pt x="707" y="607" on="0"/>
        <pt x="707" y="584" on="1"/>
        <pt x="707" y="564" on="0"/>
        <pt x="675" y="545" on="1"/>
        <pt x="596" y="497" on="0"/>
        <pt x="473" y="282" on="0"/>
        <pt x="408" y="72" on="1"/>
        <pt x="467" y="72" on="0"/>
        <pt x="497" y="67" on="1"/>
        <pt x="491" y="27" on="1"/>
        <pt x="463" y="32" on="0"/>
        <pt x="419" y="32" on="0"/>
        <pt x="392" y="27" on="1"/>
        <pt x="361" y="-58" on="0"/>
        <pt x="292" y="-164" on="0"/>
        <pt x="184" y="-256" on="0"/>
        <pt x="52" y="-316" on="0"/>
        <pt x="-41" y="-316" on="0"/>
        <pt x="-95" y="-265" on="0"/>
        <pt x="-95" y="-223" on="1"/>
        <pt x="-95" y="-159" on="0"/>
        <pt x="25" y="-33" on="0"/>
        <pt x="222" y="53" on="0"/>
        <pt x="331" y="64" on="1"/>
        <pt x="333" y="68" on="0"/>
        <pt x="362" y="159" on="1"/>
        <pt x="408" y="309" on="0"/>
        <pt x="523" y="486" on="0"/>
        <pt x="604" y="544" on="1"/>
        <pt x="587" y="546" on="0"/>
        <pt x="559" y="546" on="1"/>
        <pt x="386" y="546" on="0"/>
        <pt x="164" y="420" on="0"/>
        <pt x="164" y="341" on="1"/>
        <pt x="164" y="290" on="0"/>
        <pt x="225" y="203" on="0"/>
        <pt x="281" y="157" on="1"/>
        <pt x="257" y="124" on="1"/>
        <pt x="94" y="212" on="0"/>
        <pt x="94" y="346" on="1"/>
        <pt x="94" y="424" on="0"/>
        <pt x="227" y="552" on="0"/>
        <pt x="444" y="622" on="0"/>
      </contour>
      <contour>
        <pt x="110" y="-248" on="0"/>
        <pt x="211" y="-184" on="0"/>
        <pt x="300" y="-60" on="0"/>
        <pt x="318" y="20" on="1"/>
        <pt x="188" y="7" on="0"/>
        <pt x="7" y="-116" on="0"/>
        <pt x="7" y="-192" on="1"/>
        <pt x="7" y="-218" on="0"/>
        <pt x="37" y="-248" on="0"/>
        <pt x="64" y="-248" on="1"/>
      </contour>
      <contour>
        <pt x="337" y="695" on="1"/>
        <pt x="484" y="809" on="1"/>
        <pt x="592" y="723" on="0"/>
        <pt x="613" y="701" on="1"/>
        <pt x="583" y="677" on="1"/>
        <pt x="498" y="728" on="0"/>
        <pt x="480" y="741" on="1"/>
        <pt x="381" y="671" on="1"/>
      </contour>
    </TTGlyph>
    <TTGlyph name="K" xMin="-10" yMin="-154" xMax="887" yMax="615">
      <contour>
        <pt x="824" y="600" on="1"/>
        <pt x="887" y="569" on="1"/>
        <pt x="823" y="465" on="0"/>
        <pt x="648" y="303" on="0"/>
        <pt x="503" y="223" on="1"/>
        <pt x="531" y="78" on="0"/>
        <pt x="613" y="-97" on="0"/>
        <pt x="679" y="-107" on="1"/>
        <pt x="679" y="-153" on="1"/>
        <pt x="671" y="-154" on="0"/>
        <pt x="658" y="-154" on="1"/>
        <pt x="591" y="-154" on="0"/>
        <pt x="466" y="32" on="0"/>
        <pt x="416" y="214" on="1"/>
        <pt x="373" y="79" on="0"/>
        <pt x="197" y="-78" on="0"/>
        <pt x="102" y="-78" on="1"/>
        <pt x="53" y="-78" on="0"/>
        <pt x="-10" y="-25" on="0"/>
        <pt x="-10" y="68" on="0"/>
        <pt x="74" y="168" on="0"/>
        <pt x="147" y="202" on="1"/>
        <pt x="170" y="166" on="1"/>
        <pt x="80" y="102" on="0"/>
        <pt x="80" y="46" on="1"/>
        <pt x="80" y="19" on="0"/>
        <pt x="116" y="-14" on="0"/>
        <pt x="145" y="-14" on="1"/>
        <pt x="213" y="-14" on="0"/>
        <pt x="312" y="101" on="0"/>
        <pt x="351" y="245" on="1"/>
        <pt x="400" y="426" on="0"/>
        <pt x="451" y="482" on="1"/>
        <pt x="474" y="508" on="0"/>
        <pt x="518" y="539" on="1"/>
        <pt x="449" y="537" on="0"/>
        <pt x="305" y="494" on="0"/>
        <pt x="197" y="409" on="0"/>
        <pt x="197" y="357" on="1"/>
        <pt x="197" y="290" on="0"/>
        <pt x="258" y="250" on="1"/>
        <pt x="238" y="219" on="1"/>
        <pt x="182" y="246" on="0"/>
        <pt x="118" y="332" on="0"/>
        <pt x="118" y="378" on="1"/>
        <pt x="118" y="441" on="0"/>
        <pt x="256" y="553" on="0"/>
        <pt x="457" y="615" on="0"/>
        <pt x="554" y="615" on="1"/>
        <pt x="614" y="615" on="0"/>
        <pt x="614" y="589" on="1"/>
        <pt x="614" y="572" on="0"/>
        <pt x="579" y="546" on="1"/>
        <pt x="515" y="498" on="0"/>
        <pt x="446" y="344" on="0"/>
        <pt x="424" y="241" on="1"/>
        <pt x="538" y="283" on="0"/>
        <pt x="747" y="478" on="0"/>
      </contour>
    </TTGlyph>
    <TTGlyph name="L" xMin="10" yMin="12" xMax="571" yMax="615">
      <contour>
        <pt x="175" y="93" on="1"/>
        <pt x="383" y="87" on="1"/>
        <pt x="427" y="87" on="0"/>
        <pt x="468" y="116" on="1"/>
        <pt x="495" y="80" on="1"/>
        <pt x="475" y="57" on="0"/>
        <pt x="451" y="34" on="0"/>
        <pt x="404" y="12" on="0"/>
        <pt x="375" y="12" on="1"/>
        <pt x="188" y="20" on="1"/>
        <pt x="63" y="20" on="0"/>
        <pt x="66" y="17" on="1"/>
        <pt x="29" y="18" on="0"/>
        <pt x="29" y="50" on="1"/>
        <pt x="32" y="70" on="0"/>
        <pt x="80" y="163" on="0"/>
        <pt x="121" y="285" on="1"/>
        <pt x="59" y="285" on="0"/>
        <pt x="10" y="322" on="1"/>
        <pt x="31" y="359" on="1"/>
        <pt x="74" y="331" on="0"/>
        <pt x="136" y="331" on="1"/>
        <pt x="194" y="473" on="0"/>
        <pt x="372" y="615" on="0"/>
        <pt x="469" y="615" on="1"/>
        <pt x="515" y="615" on="0"/>
        <pt x="571" y="568" on="0"/>
        <pt x="571" y="529" on="1"/>
        <pt x="571" y="445" on="0"/>
        <pt x="350" y="298" on="0"/>
        <pt x="209" y="289" on="1"/>
        <pt x="163" y="143" on="0"/>
        <pt x="106" y="90" on="1"/>
        <pt x="131" y="93" on="0"/>
      </contour>
      <contour>
        <pt x="414" y="561" on="1"/>
        <pt x="352" y="561" on="0"/>
        <pt x="246" y="435" on="0"/>
        <pt x="223" y="335" on="1"/>
        <pt x="323" y="342" on="0"/>
        <pt x="473" y="448" on="0"/>
        <pt x="473" y="506" on="1"/>
        <pt x="473" y="529" on="0"/>
        <pt x="439" y="561" on="0"/>
      </contour>
    </TTGlyph>
    <TTGlyph name="Lacute" xMin="20" yMin="12" xMax="581" yMax="760">
      <contour>
        <pt x="185" y="93" on="1"/>
        <pt x="393" y="87" on="1"/>
        <pt x="437" y="87" on="0"/>
        <pt x="478" y="116" on="1"/>
        <pt x="505" y="80" on="1"/>
        <pt x="485" y="57" on="0"/>
        <pt x="461" y="34" on="0"/>
        <pt x="414" y="12" on="0"/>
        <pt x="385" y="12" on="1"/>
        <pt x="198" y="20" on="1"/>
        <pt x="73" y="20" on="0"/>
        <pt x="76" y="17" on="1"/>
        <pt x="39" y="18" on="0"/>
        <pt x="39" y="50" on="1"/>
        <pt x="42" y="70" on="0"/>
        <pt x="90" y="163" on="0"/>
        <pt x="131" y="285" on="1"/>
        <pt x="69" y="285" on="0"/>
        <pt x="20" y="322" on="1"/>
        <pt x="41" y="359" on="1"/>
        <pt x="84" y="331" on="0"/>
        <pt x="146" y="331" on="1"/>
        <pt x="204" y="473" on="0"/>
        <pt x="382" y="615" on="0"/>
        <pt x="479" y="615" on="1"/>
        <pt x="525" y="615" on="0"/>
        <pt x="581" y="568" on="0"/>
        <pt x="581" y="529" on="1"/>
        <pt x="581" y="445" on="0"/>
        <pt x="360" y="298" on="0"/>
        <pt x="219" y="289" on="1"/>
        <pt x="173" y="143" on="0"/>
        <pt x="116" y="90" on="1"/>
        <pt x="141" y="93" on="0"/>
      </contour>
      <contour>
        <pt x="424" y="561" on="1"/>
        <pt x="362" y="561" on="0"/>
        <pt x="256" y="435" on="0"/>
        <pt x="233" y="335" on="1"/>
        <pt x="333" y="342" on="0"/>
        <pt x="483" y="448" on="0"/>
        <pt x="483" y="506" on="1"/>
        <pt x="483" y="529" on="0"/>
        <pt x="449" y="561" on="0"/>
      </contour>
      <contour>
        <pt x="519" y="720" on="1"/>
        <pt x="348" y="664" on="1"/>
        <pt x="319" y="682" on="1"/>
        <pt x="451" y="760" on="1"/>
      </contour>
    </TTGlyph>
    <TTGlyph name="Lcaron" xMin="20" yMin="12" xMax="581" yMax="788">
      <contour>
        <pt x="185" y="93" on="1"/>
        <pt x="393" y="87" on="1"/>
        <pt x="437" y="87" on="0"/>
        <pt x="478" y="116" on="1"/>
        <pt x="505" y="80" on="1"/>
        <pt x="485" y="57" on="0"/>
        <pt x="461" y="34" on="0"/>
        <pt x="414" y="12" on="0"/>
        <pt x="385" y="12" on="1"/>
        <pt x="198" y="20" on="1"/>
        <pt x="73" y="20" on="0"/>
        <pt x="76" y="17" on="1"/>
        <pt x="39" y="18" on="0"/>
        <pt x="39" y="50" on="1"/>
        <pt x="42" y="70" on="0"/>
        <pt x="90" y="163" on="0"/>
        <pt x="131" y="285" on="1"/>
        <pt x="69" y="285" on="0"/>
        <pt x="20" y="322" on="1"/>
        <pt x="41" y="359" on="1"/>
        <pt x="84" y="331" on="0"/>
        <pt x="146" y="331" on="1"/>
        <pt x="204" y="473" on="0"/>
        <pt x="382" y="615" on="0"/>
        <pt x="479" y="615" on="1"/>
        <pt x="525" y="615" on="0"/>
        <pt x="581" y="568" on="0"/>
        <pt x="581" y="529" on="1"/>
        <pt x="581" y="445" on="0"/>
        <pt x="360" y="298" on="0"/>
        <pt x="219" y="289" on="1"/>
        <pt x="173" y="143" on="0"/>
        <pt x="116" y="90" on="1"/>
        <pt x="141" y="93" on="0"/>
      </contour>
      <contour>
        <pt x="424" y="561" on="1"/>
        <pt x="362" y="561" on="0"/>
        <pt x="256" y="435" on="0"/>
        <pt x="233" y="335" on="1"/>
        <pt x="333" y="342" on="0"/>
        <pt x="483" y="448" on="0"/>
        <pt x="483" y="506" on="1"/>
        <pt x="483" y="529" on="0"/>
        <pt x="449" y="561" on="0"/>
      </contour>
      <contour>
        <pt x="438" y="650" on="1"/>
        <pt x="291" y="764" on="1"/>
        <pt x="335" y="788" on="1"/>
        <pt x="390" y="746" on="0"/>
        <pt x="434" y="718" on="1"/>
        <pt x="452" y="731" on="0"/>
        <pt x="537" y="782" on="1"/>
        <pt x="567" y="758" on="1"/>
        <pt x="552" y="741" on="0"/>
        <pt x="466" y="672" on="1"/>
      </contour>
    </TTGlyph>
    <TTGlyph name="Ldot" xMin="5" yMin="12" xMax="566" yMax="615">
      <contour>
        <pt x="170" y="93" on="1"/>
        <pt x="378" y="87" on="1"/>
        <pt x="422" y="87" on="0"/>
        <pt x="463" y="116" on="1"/>
        <pt x="490" y="80" on="1"/>
        <pt x="470" y="57" on="0"/>
        <pt x="446" y="34" on="0"/>
        <pt x="399" y="12" on="0"/>
        <pt x="370" y="12" on="1"/>
        <pt x="183" y="20" on="1"/>
        <pt x="58" y="20" on="0"/>
        <pt x="61" y="17" on="1"/>
        <pt x="24" y="18" on="0"/>
        <pt x="24" y="50" on="1"/>
        <pt x="27" y="70" on="0"/>
        <pt x="75" y="163" on="0"/>
        <pt x="116" y="285" on="1"/>
        <pt x="54" y="285" on="0"/>
        <pt x="5" y="322" on="1"/>
        <pt x="26" y="359" on="1"/>
        <pt x="69" y="331" on="0"/>
        <pt x="131" y="331" on="1"/>
        <pt x="189" y="473" on="0"/>
        <pt x="367" y="615" on="0"/>
        <pt x="464" y="615" on="1"/>
        <pt x="510" y="615" on="0"/>
        <pt x="566" y="568" on="0"/>
        <pt x="566" y="529" on="1"/>
        <pt x="566" y="445" on="0"/>
        <pt x="345" y="298" on="0"/>
        <pt x="204" y="289" on="1"/>
        <pt x="158" y="143" on="0"/>
        <pt x="101" y="90" on="1"/>
        <pt x="126" y="93" on="0"/>
      </contour>
      <contour>
        <pt x="409" y="561" on="1"/>
        <pt x="347" y="561" on="0"/>
        <pt x="241" y="435" on="0"/>
        <pt x="218" y="335" on="1"/>
        <pt x="318" y="342" on="0"/>
        <pt x="468" y="448" on="0"/>
        <pt x="468" y="506" on="1"/>
        <pt x="468" y="529" on="0"/>
        <pt x="434" y="561" on="0"/>
      </contour>
      <contour>
        <pt x="403" y="221" on="0"/>
        <pt x="403" y="259" on="0"/>
        <pt x="430" y="286" on="0"/>
        <pt x="468" y="286" on="0"/>
        <pt x="495" y="259" on="0"/>
        <pt x="495" y="221" on="0"/>
        <pt x="468" y="194" on="0"/>
        <pt x="430" y="194" on="0"/>
      </contour>
    </TTGlyph>
    <TTGlyph name="Lslash" xMin="5" yMin="12" xMax="581" yMax="615">
      <contour>
        <pt x="185" y="93" on="1"/>
        <pt x="393" y="87" on="1"/>
        <pt x="437" y="87" on="0"/>
        <pt x="478" y="116" on="1"/>
        <pt x="505" y="80" on="1"/>
        <pt x="485" y="57" on="0"/>
        <pt x="461" y="34" on="0"/>
        <pt x="414" y="12" on="0"/>
        <pt x="385" y="12" on="1"/>
        <pt x="198" y="20" on="1"/>
        <pt x="73" y="20" on="0"/>
        <pt x="76" y="17" on="1"/>
        <pt x="39" y="18" on="0"/>
        <pt x="39" y="50" on="1"/>
        <pt x="41" y="70" on="0"/>
        <pt x="92" y="172" on="1"/>
        <pt x="17" y="165" on="1"/>
        <pt x="5" y="219" on="1"/>
        <pt x="35" y="225" on="0"/>
        <pt x="113" y="232" on="1"/>
        <pt x="131" y="285" on="1"/>
        <pt x="69" y="285" on="0"/>
        <pt x="20" y="322" on="1"/>
        <pt x="41" y="359" on="1"/>
        <pt x="84" y="331" on="0"/>
        <pt x="146" y="331" on="1"/>
        <pt x="204" y="473" on="0"/>
        <pt x="382" y="615" on="0"/>
        <pt x="479" y="615" on="1"/>
        <pt x="525" y="615" on="0"/>
        <pt x="581" y="568" on="0"/>
        <pt x="581" y="529" on="1"/>
        <pt x="581" y="445" on="0"/>
        <pt x="360" y="298" on="0"/>
        <pt x="219" y="289" on="1"/>
        <pt x="202" y="239" on="1"/>
        <pt x="241" y="241" on="0"/>
        <pt x="341" y="244" on="1"/>
        <pt x="341" y="197" on="1"/>
        <pt x="178" y="181" on="1"/>
        <pt x="148" y="119" on="0"/>
        <pt x="116" y="90" on="1"/>
        <pt x="141" y="93" on="0"/>
      </contour>
      <contour>
        <pt x="424" y="561" on="1"/>
        <pt x="362" y="561" on="0"/>
        <pt x="256" y="435" on="0"/>
        <pt x="233" y="335" on="1"/>
        <pt x="333" y="342" on="0"/>
        <pt x="483" y="448" on="0"/>
        <pt x="483" y="506" on="1"/>
        <pt x="483" y="529" on="0"/>
        <pt x="449" y="561" on="0"/>
      </contour>
    </TTGlyph>
    <TTGlyph name="M" xMin="-10" yMin="-142" xMax="817" yMax="638">
      <contour>
        <pt x="817" y="-103" on="1"/>
        <pt x="805" y="-140" on="1"/>
        <pt x="779" y="-142" on="0"/>
        <pt x="766" y="-142" on="1"/>
        <pt x="706" y="-142" on="0"/>
        <pt x="631" y="-41" on="0"/>
        <pt x="631" y="40" on="1"/>
        <pt x="631" y="89" on="0"/>
        <pt x="676" y="362" on="0"/>
        <pt x="706" y="475" on="1"/>
        <pt x="712" y="500" on="0"/>
        <pt x="712" y="516" on="0"/>
        <pt x="698" y="516" on="0"/>
        <pt x="623" y="367" on="0"/>
        <pt x="519" y="150" on="0"/>
        <pt x="504" y="119" on="0"/>
        <pt x="495" y="100" on="0"/>
        <pt x="468" y="51" on="0"/>
        <pt x="456" y="32" on="1"/>
        <pt x="423" y="-18" on="0"/>
        <pt x="404" y="-18" on="1"/>
        <pt x="391" y="-18" on="0"/>
        <pt x="360" y="-4" on="0"/>
        <pt x="355" y="4" on="1"/>
        <pt x="344" y="21" on="0"/>
        <pt x="344" y="110" on="1"/>
        <pt x="344" y="296" on="0"/>
        <pt x="374" y="465" on="1"/>
        <pt x="384" y="521" on="0"/>
        <pt x="384" y="524" on="1"/>
        <pt x="384" y="534" on="0"/>
        <pt x="376" y="534" on="1"/>
        <pt x="360" y="534" on="0"/>
        <pt x="325" y="434" on="1"/>
        <pt x="296" y="351" on="1"/>
        <pt x="232" y="170" on="0"/>
        <pt x="101" y="-32" on="0"/>
        <pt x="16" y="-73" on="1"/>
        <pt x="-10" y="-18" on="1"/>
        <pt x="87" y="54" on="0"/>
        <pt x="192" y="204" on="0"/>
        <pt x="254" y="371" on="1"/>
        <pt x="288" y="462" on="1"/>
        <pt x="323" y="557" on="0"/>
        <pt x="375" y="638" on="0"/>
        <pt x="407" y="638" on="1"/>
        <pt x="460" y="638" on="0"/>
        <pt x="460" y="574" on="1"/>
        <pt x="460" y="569" on="0"/>
        <pt x="422" y="174" on="0"/>
        <pt x="422" y="111" on="1"/>
        <pt x="422" y="93" on="0"/>
        <pt x="428" y="92" on="1"/>
        <pt x="433" y="92" on="0"/>
        <pt x="439" y="102" on="1"/>
        <pt x="520" y="237" on="0"/>
        <pt x="594" y="396" on="1"/>
        <pt x="603" y="416" on="0"/>
        <pt x="647" y="514" on="0"/>
        <pt x="689" y="590" on="0"/>
        <pt x="711" y="607" on="0"/>
        <pt x="759" y="607" on="0"/>
        <pt x="794" y="572" on="0"/>
        <pt x="794" y="524" on="0"/>
        <pt x="787" y="493" on="1"/>
        <pt x="709" y="112" on="0"/>
        <pt x="709" y="-37" on="0"/>
        <pt x="757" y="-92" on="0"/>
      </contour>
    </TTGlyph>
    <TTGlyph name="N" xMin="-10" yMin="-31" xMax="734" yMax="657">
      <contour>
        <pt x="676" y="611" on="1"/>
        <pt x="734" y="604" on="1"/>
        <pt x="716" y="526" on="0"/>
        <pt x="655" y="317" on="0"/>
        <pt x="605" y="188" on="0"/>
        <pt x="546" y="61" on="0"/>
        <pt x="480" y="-12" on="0"/>
        <pt x="418" y="-12" on="0"/>
        <pt x="389" y="34" on="0"/>
        <pt x="389" y="151" on="0"/>
        <pt x="423" y="526" on="0"/>
        <pt x="424" y="559" on="0"/>
        <pt x="415" y="559" on="1"/>
        <pt x="404" y="559" on="0"/>
        <pt x="374" y="498" on="0"/>
        <pt x="366" y="482" on="1"/>
        <pt x="345" y="435" on="0"/>
        <pt x="339" y="416" on="1"/>
        <pt x="283" y="290" on="0"/>
        <pt x="195" y="126" on="0"/>
        <pt x="138" y="56" on="1"/>
        <pt x="118" y="32" on="0"/>
        <pt x="44" y="-18" on="0"/>
        <pt x="12" y="-31" on="1"/>
        <pt x="-10" y="28" on="1"/>
        <pt x="73" y="63" on="0"/>
        <pt x="207" y="236" on="0"/>
        <pt x="350" y="546" on="0"/>
        <pt x="381" y="600" on="1"/>
        <pt x="416" y="657" on="0"/>
        <pt x="452" y="657" on="1"/>
        <pt x="475" y="657" on="0"/>
        <pt x="501" y="625" on="0"/>
        <pt x="501" y="574" on="0"/>
        <pt x="466" y="204" on="0"/>
        <pt x="466" y="100" on="0"/>
        <pt x="475" y="69" on="0"/>
        <pt x="486" y="69" on="1"/>
        <pt x="500" y="69" on="0"/>
        <pt x="516" y="99" on="1"/>
        <pt x="571" y="206" on="0"/>
      </contour>
    </TTGlyph>
    <TTGlyph name="Nacute" xMin="0" yMin="-31" xMax="744" yMax="773">
      <contour>
        <pt x="686" y="611" on="1"/>
        <pt x="744" y="604" on="1"/>
        <pt x="726" y="526" on="0"/>
        <pt x="665" y="317" on="0"/>
        <pt x="615" y="188" on="0"/>
        <pt x="556" y="61" on="0"/>
        <pt x="490" y="-12" on="0"/>
        <pt x="428" y="-12" on="0"/>
        <pt x="399" y="34" on="0"/>
        <pt x="399" y="151" on="0"/>
        <pt x="433" y="526" on="0"/>
        <pt x="434" y="559" on="0"/>
        <pt x="425" y="559" on="1"/>
        <pt x="414" y="559" on="0"/>
        <pt x="384" y="498" on="0"/>
        <pt x="376" y="482" on="1"/>
        <pt x="355" y="435" on="0"/>
        <pt x="349" y="416" on="1"/>
        <pt x="293" y="290" on="0"/>
        <pt x="205" y="126" on="0"/>
        <pt x="148" y="56" on="1"/>
        <pt x="128" y="32" on="0"/>
        <pt x="54" y="-18" on="0"/>
        <pt x="22" y="-31" on="1"/>
        <pt x="0" y="28" on="1"/>
        <pt x="83" y="63" on="0"/>
        <pt x="217" y="236" on="0"/>
        <pt x="360" y="546" on="0"/>
        <pt x="391" y="600" on="1"/>
        <pt x="426" y="657" on="0"/>
        <pt x="462" y="657" on="1"/>
        <pt x="485" y="657" on="0"/>
        <pt x="511" y="625" on="0"/>
        <pt x="511" y="574" on="0"/>
        <pt x="476" y="204" on="0"/>
        <pt x="476" y="100" on="0"/>
        <pt x="485" y="69" on="0"/>
        <pt x="496" y="69" on="1"/>
        <pt x="510" y="69" on="0"/>
        <pt x="526" y="99" on="1"/>
        <pt x="581" y="206" on="0"/>
      </contour>
      <contour>
        <pt x="696" y="733" on="1"/>
        <pt x="525" y="677" on="1"/>
        <pt x="496" y="695" on="1"/>
        <pt x="628" y="773" on="1"/>
      </contour>
    </TTGlyph>
    <TTGlyph name="Ncaron" xMin="0" yMin="-31" xMax="744" yMax="814">
      <contour>
        <pt x="686" y="611" on="1"/>
        <pt x="744" y="604" on="1"/>
        <pt x="726" y="526" on="0"/>
        <pt x="665" y="317" on="0"/>
        <pt x="615" y="188" on="0"/>
        <pt x="556" y="61" on="0"/>
        <pt x="490" y="-12" on="0"/>
        <pt x="428" y="-12" on="0"/>
        <pt x="399" y="34" on="0"/>
        <pt x="399" y="151" on="0"/>
        <pt x="433" y="526" on="0"/>
        <pt x="434" y="559" on="0"/>
        <pt x="425" y="559" on="1"/>
        <pt x="414" y="559" on="0"/>
        <pt x="384" y="498" on="0"/>
        <pt x="376" y="482" on="1"/>
        <pt x="355" y="435" on="0"/>
        <pt x="349" y="416" on="1"/>
        <pt x="293" y="290" on="0"/>
        <pt x="205" y="126" on="0"/>
        <pt x="148" y="56" on="1"/>
        <pt x="128" y="32" on="0"/>
        <pt x="54" y="-18" on="0"/>
        <pt x="22" y="-31" on="1"/>
        <pt x="0" y="28" on="1"/>
        <pt x="83" y="63" on="0"/>
        <pt x="217" y="236" on="0"/>
        <pt x="360" y="546" on="0"/>
        <pt x="391" y="600" on="1"/>
        <pt x="426" y="657" on="0"/>
        <pt x="462" y="657" on="1"/>
        <pt x="485" y="657" on="0"/>
        <pt x="511" y="625" on="0"/>
        <pt x="511" y="574" on="0"/>
        <pt x="476" y="204" on="0"/>
        <pt x="476" y="100" on="0"/>
        <pt x="485" y="69" on="0"/>
        <pt x="496" y="69" on="1"/>
        <pt x="510" y="69" on="0"/>
        <pt x="526" y="99" on="1"/>
        <pt x="581" y="206" on="0"/>
      </contour>
      <contour>
        <pt x="610" y="676" on="1"/>
        <pt x="463" y="790" on="1"/>
        <pt x="507" y="814" on="1"/>
        <pt x="562" y="772" on="0"/>
        <pt x="606" y="744" on="1"/>
        <pt x="624" y="757" on="0"/>
        <pt x="709" y="808" on="1"/>
        <pt x="739" y="784" on="1"/>
        <pt x="724" y="767" on="0"/>
        <pt x="638" y="698" on="1"/>
      </contour>
    </TTGlyph>
    <TTGlyph name="Ntilde" xMin="0" yMin="-31" xMax="744" yMax="808">
      <contour>
        <pt x="686" y="611" on="1"/>
        <pt x="744" y="604" on="1"/>
        <pt x="726" y="526" on="0"/>
        <pt x="665" y="317" on="0"/>
        <pt x="615" y="188" on="0"/>
        <pt x="556" y="61" on="0"/>
        <pt x="490" y="-12" on="0"/>
        <pt x="428" y="-12" on="0"/>
        <pt x="399" y="34" on="0"/>
        <pt x="399" y="151" on="0"/>
        <pt x="433" y="526" on="0"/>
        <pt x="434" y="559" on="0"/>
        <pt x="425" y="559" on="1"/>
        <pt x="414" y="559" on="0"/>
        <pt x="384" y="498" on="0"/>
        <pt x="376" y="482" on="1"/>
        <pt x="355" y="435" on="0"/>
        <pt x="349" y="416" on="1"/>
        <pt x="293" y="290" on="0"/>
        <pt x="205" y="126" on="0"/>
        <pt x="148" y="56" on="1"/>
        <pt x="128" y="32" on="0"/>
        <pt x="54" y="-18" on="0"/>
        <pt x="22" y="-31" on="1"/>
        <pt x="0" y="28" on="1"/>
        <pt x="83" y="63" on="0"/>
        <pt x="217" y="236" on="0"/>
        <pt x="360" y="546" on="0"/>
        <pt x="391" y="600" on="1"/>
        <pt x="426" y="657" on="0"/>
        <pt x="462" y="657" on="1"/>
        <pt x="485" y="657" on="0"/>
        <pt x="511" y="625" on="0"/>
        <pt x="511" y="574" on="0"/>
        <pt x="476" y="204" on="0"/>
        <pt x="476" y="100" on="0"/>
        <pt x="485" y="69" on="0"/>
        <pt x="496" y="69" on="1"/>
        <pt x="510" y="69" on="0"/>
        <pt x="526" y="99" on="1"/>
        <pt x="581" y="206" on="0"/>
      </contour>
      <contour>
        <pt x="679" y="781" on="1"/>
        <pt x="702" y="762" on="1"/>
        <pt x="683" y="732" on="0"/>
        <pt x="634" y="690" on="0"/>
        <pt x="593" y="690" on="0"/>
        <pt x="545" y="759" on="0"/>
        <pt x="525" y="759" on="1"/>
        <pt x="515" y="759" on="0"/>
        <pt x="495" y="745" on="0"/>
        <pt x="484" y="737" on="0"/>
        <pt x="464" y="721" on="0"/>
        <pt x="458" y="717" on="1"/>
        <pt x="430" y="743" on="1"/>
        <pt x="504" y="808" on="0"/>
        <pt x="555" y="808" on="0"/>
        <pt x="613" y="738" on="0"/>
        <pt x="628" y="738" on="1"/>
        <pt x="638" y="738" on="0"/>
        <pt x="671" y="774" on="0"/>
      </contour>
    </TTGlyph>
    <TTGlyph name="O" xMin="30" yMin="6" xMax="704" yMax="644">
      <contour>
        <pt x="704" y="492" on="1"/>
        <pt x="704" y="444" on="1"/>
        <pt x="659" y="418" on="0"/>
        <pt x="538" y="373" on="1"/>
        <pt x="484" y="238" on="0"/>
        <pt x="250" y="6" on="0"/>
        <pt x="153" y="6" on="1"/>
        <pt x="98" y="6" on="0"/>
        <pt x="30" y="84" on="0"/>
        <pt x="30" y="221" on="0"/>
        <pt x="122" y="414" on="0"/>
        <pt x="272" y="583" on="0"/>
        <pt x="350" y="623" on="1"/>
        <pt x="382" y="644" on="0"/>
        <pt x="450" y="644" on="1"/>
        <pt x="501" y="644" on="0"/>
        <pt x="566" y="565" on="0"/>
        <pt x="566" y="458" on="0"/>
        <pt x="558" y="431" on="1"/>
        <pt x="634" y="456" on="0"/>
      </contour>
      <contour>
        <pt x="307" y="527" on="1"/>
        <pt x="274" y="493" on="0"/>
        <pt x="274" y="430" on="0"/>
        <pt x="338" y="393" on="0"/>
        <pt x="435" y="393" on="0"/>
        <pt x="471" y="402" on="1"/>
        <pt x="477" y="432" on="0"/>
        <pt x="477" y="460" on="1"/>
        <pt x="477" y="559" on="0"/>
        <pt x="392" y="559" on="1"/>
        <pt x="353" y="559" on="0"/>
      </contour>
      <contour>
        <pt x="320" y="149" on="1"/>
        <pt x="418" y="246" on="0"/>
        <pt x="457" y="351" on="1"/>
        <pt x="432" y="346" on="0"/>
        <pt x="393" y="346" on="1"/>
        <pt x="225" y="346" on="0"/>
        <pt x="203" y="421" on="1"/>
        <pt x="119" y="304" on="0"/>
        <pt x="119" y="191" on="1"/>
        <pt x="119" y="146" on="0"/>
        <pt x="162" y="92" on="0"/>
        <pt x="204" y="92" on="1"/>
        <pt x="263" y="92" on="0"/>
      </contour>
    </TTGlyph>
    <TTGlyph name="OE" xMin="7" yMin="-43" xMax="1090" yMax="723">
      <contour>
        <pt x="1090" y="659" on="1"/>
        <pt x="1090" y="609" on="0"/>
        <pt x="995" y="531" on="0"/>
        <pt x="872" y="495" on="0"/>
        <pt x="815" y="495" on="1"/>
        <pt x="800" y="495" on="0"/>
        <pt x="793" y="496" on="1"/>
        <pt x="793" y="530" on="1"/>
        <pt x="795" y="530" on="0"/>
        <pt x="907" y="549" on="0"/>
        <pt x="984" y="597" on="0"/>
        <pt x="984" y="627" on="1"/>
        <pt x="984" y="663" on="0"/>
        <pt x="930" y="663" on="1"/>
        <pt x="857" y="663" on="0"/>
        <pt x="727" y="563" on="0"/>
        <pt x="727" y="453" on="0"/>
        <pt x="795" y="437" on="1"/>
        <pt x="810" y="433" on="0"/>
        <pt x="820" y="425" on="0"/>
        <pt x="820" y="405" on="0"/>
        <pt x="801" y="392" on="0"/>
        <pt x="767" y="380" on="1"/>
        <pt x="583" y="317" on="0"/>
        <pt x="583" y="184" on="1"/>
        <pt x="583" y="157" on="0"/>
        <pt x="593" y="138" on="1"/>
        <pt x="654" y="216" on="0"/>
        <pt x="848" y="314" on="0"/>
        <pt x="938" y="314" on="1"/>
        <pt x="985" y="314" on="0"/>
        <pt x="1041" y="273" on="0"/>
        <pt x="1041" y="237" on="1"/>
        <pt x="1041" y="181" on="0"/>
        <pt x="937" y="69" on="0"/>
        <pt x="772" y="-2" on="0"/>
        <pt x="608" y="-2" on="0"/>
        <pt x="562" y="28" on="1"/>
        <pt x="561" y="27" on="0"/>
        <pt x="554" y="12" on="1"/>
        <pt x="533" y="-27" on="0"/>
        <pt x="519" y="-43" on="1"/>
        <pt x="486" y="-29" on="1"/>
        <pt x="493" y="-1" on="0"/>
        <pt x="527" y="56" on="1"/>
        <pt x="481" y="108" on="0"/>
        <pt x="481" y="237" on="0"/>
        <pt x="586" y="354" on="0"/>
        <pt x="680" y="392" on="1"/>
        <pt x="657" y="411" on="0"/>
        <pt x="647" y="426" on="1"/>
        <pt x="607" y="407" on="0"/>
        <pt x="515" y="373" on="1"/>
        <pt x="461" y="238" on="0"/>
        <pt x="227" y="6" on="0"/>
        <pt x="130" y="6" on="1"/>
        <pt x="75" y="6" on="0"/>
        <pt x="7" y="84" on="0"/>
        <pt x="7" y="221" on="0"/>
        <pt x="99" y="414" on="0"/>
        <pt x="249" y="583" on="0"/>
        <pt x="327" y="623" on="1"/>
        <pt x="359" y="644" on="0"/>
        <pt x="427" y="644" on="1"/>
        <pt x="478" y="644" on="0"/>
        <pt x="543" y="565" on="0"/>
        <pt x="543" y="458" on="0"/>
        <pt x="535" y="431" on="1"/>
        <pt x="576" y="445" on="0"/>
        <pt x="633" y="472" on="0"/>
        <pt x="633" y="473" on="1"/>
        <pt x="633" y="529" on="0"/>
        <pt x="753" y="647" on="0"/>
        <pt x="927" y="723" on="0"/>
        <pt x="1002" y="723" on="1"/>
        <pt x="1042" y="723" on="0"/>
        <pt x="1090" y="688" on="0"/>
      </contour>
      <contour>
        <pt x="297" y="149" on="1"/>
        <pt x="395" y="246" on="0"/>
        <pt x="434" y="351" on="1"/>
        <pt x="409" y="346" on="0"/>
        <pt x="370" y="346" on="1"/>
        <pt x="202" y="346" on="0"/>
        <pt x="180" y="421" on="1"/>
        <pt x="96" y="304" on="0"/>
        <pt x="96" y="191" on="1"/>
        <pt x="96" y="146" on="0"/>
        <pt x="139" y="92" on="0"/>
        <pt x="181" y="92" on="1"/>
        <pt x="240" y="92" on="0"/>
      </contour>
      <contour>
        <pt x="880" y="254" on="1"/>
        <pt x="821" y="254" on="0"/>
        <pt x="664" y="164" on="0"/>
        <pt x="615" y="102" on="1"/>
        <pt x="655" y="57" on="0"/>
        <pt x="802" y="57" on="0"/>
        <pt x="943" y="152" on="0"/>
        <pt x="943" y="207" on="1"/>
        <pt x="943" y="229" on="0"/>
        <pt x="909" y="254" on="0"/>
      </contour>
      <contour>
        <pt x="284" y="527" on="1"/>
        <pt x="251" y="493" on="0"/>
        <pt x="251" y="430" on="0"/>
        <pt x="315" y="393" on="0"/>
        <pt x="412" y="393" on="0"/>
        <pt x="448" y="402" on="1"/>
        <pt x="454" y="432" on="0"/>
        <pt x="454" y="460" on="1"/>
        <pt x="454" y="559" on="0"/>
        <pt x="369" y="559" on="1"/>
        <pt x="330" y="559" on="0"/>
      </contour>
    </TTGlyph>
    <TTGlyph name="Oacute" xMin="40" yMin="6" xMax="714" yMax="769">
      <contour>
        <pt x="714" y="492" on="1"/>
        <pt x="714" y="444" on="1"/>
        <pt x="669" y="418" on="0"/>
        <pt x="548" y="373" on="1"/>
        <pt x="494" y="238" on="0"/>
        <pt x="260" y="6" on="0"/>
        <pt x="163" y="6" on="1"/>
        <pt x="108" y="6" on="0"/>
        <pt x="40" y="84" on="0"/>
        <pt x="40" y="221" on="0"/>
        <pt x="132" y="414" on="0"/>
        <pt x="282" y="583" on="0"/>
        <pt x="360" y="623" on="1"/>
        <pt x="392" y="644" on="0"/>
        <pt x="460" y="644" on="1"/>
        <pt x="511" y="644" on="0"/>
        <pt x="576" y="565" on="0"/>
        <pt x="576" y="458" on="0"/>
        <pt x="568" y="431" on="1"/>
        <pt x="644" y="456" on="0"/>
      </contour>
      <contour>
        <pt x="317" y="527" on="1"/>
        <pt x="284" y="493" on="0"/>
        <pt x="284" y="430" on="0"/>
        <pt x="348" y="393" on="0"/>
        <pt x="445" y="393" on="0"/>
        <pt x="481" y="402" on="1"/>
        <pt x="487" y="432" on="0"/>
        <pt x="487" y="460" on="1"/>
        <pt x="487" y="559" on="0"/>
        <pt x="402" y="559" on="1"/>
        <pt x="363" y="559" on="0"/>
      </contour>
      <contour>
        <pt x="330" y="149" on="1"/>
        <pt x="428" y="246" on="0"/>
        <pt x="467" y="351" on="1"/>
        <pt x="442" y="346" on="0"/>
        <pt x="403" y="346" on="1"/>
        <pt x="235" y="346" on="0"/>
        <pt x="213" y="421" on="1"/>
        <pt x="129" y="304" on="0"/>
        <pt x="129" y="191" on="1"/>
        <pt x="129" y="146" on="0"/>
        <pt x="172" y="92" on="0"/>
        <pt x="214" y="92" on="1"/>
        <pt x="273" y="92" on="0"/>
      </contour>
      <contour>
        <pt x="527" y="729" on="1"/>
        <pt x="356" y="673" on="1"/>
        <pt x="327" y="691" on="1"/>
        <pt x="459" y="769" on="1"/>
      </contour>
    </TTGlyph>
    <TTGlyph name="Obreve" xMin="25" yMin="6" xMax="699" yMax="805">
      <contour>
        <pt x="699" y="492" on="1"/>
        <pt x="699" y="444" on="1"/>
        <pt x="654" y="418" on="0"/>
        <pt x="533" y="373" on="1"/>
        <pt x="479" y="238" on="0"/>
        <pt x="245" y="6" on="0"/>
        <pt x="148" y="6" on="1"/>
        <pt x="93" y="6" on="0"/>
        <pt x="25" y="84" on="0"/>
        <pt x="25" y="221" on="0"/>
        <pt x="117" y="414" on="0"/>
        <pt x="267" y="583" on="0"/>
        <pt x="345" y="623" on="1"/>
        <pt x="377" y="644" on="0"/>
        <pt x="445" y="644" on="1"/>
        <pt x="496" y="644" on="0"/>
        <pt x="561" y="565" on="0"/>
        <pt x="561" y="458" on="0"/>
        <pt x="553" y="431" on="1"/>
        <pt x="629" y="456" on="0"/>
      </contour>
      <contour>
        <pt x="302" y="527" on="1"/>
        <pt x="269" y="493" on="0"/>
        <pt x="269" y="430" on="0"/>
        <pt x="333" y="393" on="0"/>
        <pt x="430" y="393" on="0"/>
        <pt x="466" y="402" on="1"/>
        <pt x="472" y="432" on="0"/>
        <pt x="472" y="460" on="1"/>
        <pt x="472" y="559" on="0"/>
        <pt x="387" y="559" on="1"/>
        <pt x="348" y="559" on="0"/>
      </contour>
      <contour>
        <pt x="315" y="149" on="1"/>
        <pt x="413" y="246" on="0"/>
        <pt x="452" y="351" on="1"/>
        <pt x="427" y="346" on="0"/>
        <pt x="388" y="346" on="1"/>
        <pt x="220" y="346" on="0"/>
        <pt x="198" y="421" on="1"/>
        <pt x="114" y="304" on="0"/>
        <pt x="114" y="191" on="1"/>
        <pt x="114" y="146" on="0"/>
        <pt x="157" y="92" on="0"/>
        <pt x="199" y="92" on="1"/>
        <pt x="258" y="92" on="0"/>
      </contour>
      <contour>
        <pt x="526" y="802" on="1"/>
        <pt x="556" y="786" on="1"/>
        <pt x="536" y="755" on="0"/>
        <pt x="473" y="707" on="0"/>
        <pt x="411" y="707" on="0"/>
        <pt x="343" y="754" on="0"/>
        <pt x="322" y="778" on="1"/>
        <pt x="354" y="805" on="1"/>
        <pt x="406" y="754" on="0"/>
        <pt x="439" y="754" on="1"/>
        <pt x="490" y="754" on="0"/>
      </contour>
    </TTGlyph>
    <TTGlyph name="Ocircumflex" xMin="40" yMin="6" xMax="714" yMax="808">
      <contour>
        <pt x="714" y="492" on="1"/>
        <pt x="714" y="444" on="1"/>
        <pt x="669" y="418" on="0"/>
        <pt x="548" y="373" on="1"/>
        <pt x="494" y="238" on="0"/>
        <pt x="260" y="6" on="0"/>
        <pt x="163" y="6" on="1"/>
        <pt x="108" y="6" on="0"/>
        <pt x="40" y="84" on="0"/>
        <pt x="40" y="221" on="0"/>
        <pt x="132" y="414" on="0"/>
        <pt x="282" y="583" on="0"/>
        <pt x="360" y="623" on="1"/>
        <pt x="392" y="644" on="0"/>
        <pt x="460" y="644" on="1"/>
        <pt x="511" y="644" on="0"/>
        <pt x="576" y="565" on="0"/>
        <pt x="576" y="458" on="0"/>
        <pt x="568" y="431" on="1"/>
        <pt x="644" y="456" on="0"/>
      </contour>
      <contour>
        <pt x="317" y="527" on="1"/>
        <pt x="284" y="493" on="0"/>
        <pt x="284" y="430" on="0"/>
        <pt x="348" y="393" on="0"/>
        <pt x="445" y="393" on="0"/>
        <pt x="481" y="402" on="1"/>
        <pt x="487" y="432" on="0"/>
        <pt x="487" y="460" on="1"/>
        <pt x="487" y="559" on="0"/>
        <pt x="402" y="559" on="1"/>
        <pt x="363" y="559" on="0"/>
      </contour>
      <contour>
        <pt x="330" y="149" on="1"/>
        <pt x="428" y="246" on="0"/>
        <pt x="467" y="351" on="1"/>
        <pt x="442" y="346" on="0"/>
        <pt x="403" y="346" on="1"/>
        <pt x="235" y="346" on="0"/>
        <pt x="213" y="421" on="1"/>
        <pt x="129" y="304" on="0"/>
        <pt x="129" y="191" on="1"/>
        <pt x="129" y="146" on="0"/>
        <pt x="172" y="92" on="0"/>
        <pt x="214" y="92" on="1"/>
        <pt x="273" y="92" on="0"/>
      </contour>
      <contour>
        <pt x="291" y="694" on="1"/>
        <pt x="438" y="808" on="1"/>
        <pt x="546" y="722" on="0"/>
        <pt x="567" y="700" on="1"/>
        <pt x="537" y="676" on="1"/>
        <pt x="452" y="727" on="0"/>
        <pt x="434" y="740" on="1"/>
        <pt x="335" y="670" on="1"/>
      </contour>
    </TTGlyph>
    <TTGlyph name="Odieresis" xMin="40" yMin="6" xMax="714" yMax="758">
      <contour>
        <pt x="714" y="492" on="1"/>
        <pt x="714" y="444" on="1"/>
        <pt x="669" y="418" on="0"/>
        <pt x="548" y="373" on="1"/>
        <pt x="494" y="238" on="0"/>
        <pt x="260" y="6" on="0"/>
        <pt x="163" y="6" on="1"/>
        <pt x="108" y="6" on="0"/>
        <pt x="40" y="84" on="0"/>
        <pt x="40" y="221" on="0"/>
        <pt x="132" y="414" on="0"/>
        <pt x="282" y="583" on="0"/>
        <pt x="360" y="623" on="1"/>
        <pt x="392" y="644" on="0"/>
        <pt x="460" y="644" on="1"/>
        <pt x="511" y="644" on="0"/>
        <pt x="576" y="565" on="0"/>
        <pt x="576" y="458" on="0"/>
        <pt x="568" y="431" on="1"/>
        <pt x="644" y="456" on="0"/>
      </contour>
      <contour>
        <pt x="317" y="527" on="1"/>
        <pt x="284" y="493" on="0"/>
        <pt x="284" y="430" on="0"/>
        <pt x="348" y="393" on="0"/>
        <pt x="445" y="393" on="0"/>
        <pt x="481" y="402" on="1"/>
        <pt x="487" y="432" on="0"/>
        <pt x="487" y="460" on="1"/>
        <pt x="487" y="559" on="0"/>
        <pt x="402" y="559" on="1"/>
        <pt x="363" y="559" on="0"/>
      </contour>
      <contour>
        <pt x="330" y="149" on="1"/>
        <pt x="428" y="246" on="0"/>
        <pt x="467" y="351" on="1"/>
        <pt x="442" y="346" on="0"/>
        <pt x="403" y="346" on="1"/>
        <pt x="235" y="346" on="0"/>
        <pt x="213" y="421" on="1"/>
        <pt x="129" y="304" on="0"/>
        <pt x="129" y="191" on="1"/>
        <pt x="129" y="146" on="0"/>
        <pt x="172" y="92" on="0"/>
        <pt x="214" y="92" on="1"/>
        <pt x="273" y="92" on="0"/>
      </contour>
      <contour>
        <pt x="350" y="679" on="0"/>
        <pt x="328" y="702" on="0"/>
        <pt x="328" y="735" on="0"/>
        <pt x="351" y="758" on="0"/>
        <pt x="384" y="758" on="0"/>
        <pt x="407" y="734" on="0"/>
        <pt x="407" y="702" on="0"/>
        <pt x="384" y="679" on="0"/>
      </contour>
      <contour>
        <pt x="478" y="679" on="0"/>
        <pt x="455" y="702" on="0"/>
        <pt x="455" y="735" on="0"/>
        <pt x="478" y="758" on="0"/>
        <pt x="510" y="758" on="0"/>
        <pt x="534" y="734" on="0"/>
        <pt x="534" y="702" on="0"/>
        <pt x="511" y="679" on="0"/>
      </contour>
    </TTGlyph>
    <TTGlyph name="Ograve" xMin="40" yMin="6" xMax="714" yMax="771">
      <contour>
        <pt x="714" y="492" on="1"/>
        <pt x="714" y="444" on="1"/>
        <pt x="669" y="418" on="0"/>
        <pt x="548" y="373" on="1"/>
        <pt x="494" y="238" on="0"/>
        <pt x="260" y="6" on="0"/>
        <pt x="163" y="6" on="1"/>
        <pt x="108" y="6" on="0"/>
        <pt x="40" y="84" on="0"/>
        <pt x="40" y="221" on="0"/>
        <pt x="132" y="414" on="0"/>
        <pt x="282" y="583" on="0"/>
        <pt x="360" y="623" on="1"/>
        <pt x="392" y="644" on="0"/>
        <pt x="460" y="644" on="1"/>
        <pt x="511" y="644" on="0"/>
        <pt x="576" y="565" on="0"/>
        <pt x="576" y="458" on="0"/>
        <pt x="568" y="431" on="1"/>
        <pt x="644" y="456" on="0"/>
      </contour>
      <contour>
        <pt x="317" y="527" on="1"/>
        <pt x="284" y="493" on="0"/>
        <pt x="284" y="430" on="0"/>
        <pt x="348" y="393" on="0"/>
        <pt x="445" y="393" on="0"/>
        <pt x="481" y="402" on="1"/>
        <pt x="487" y="432" on="0"/>
        <pt x="487" y="460" on="1"/>
        <pt x="487" y="559" on="0"/>
        <pt x="402" y="559" on="1"/>
        <pt x="363" y="559" on="0"/>
      </contour>
      <contour>
        <pt x="330" y="149" on="1"/>
        <pt x="428" y="246" on="0"/>
        <pt x="467" y="351" on="1"/>
        <pt x="442" y="346" on="0"/>
        <pt x="403" y="346" on="1"/>
        <pt x="235" y="346" on="0"/>
        <pt x="213" y="421" on="1"/>
        <pt x="129" y="304" on="0"/>
        <pt x="129" y="191" on="1"/>
        <pt x="129" y="146" on="0"/>
        <pt x="172" y="92" on="0"/>
        <pt x="214" y="92" on="1"/>
        <pt x="273" y="92" on="0"/>
      </contour>
      <contour>
        <pt x="486" y="675" on="1"/>
        <pt x="315" y="731" on="1"/>
        <pt x="383" y="771" on="1"/>
        <pt x="515" y="693" on="1"/>
      </contour>
    </TTGlyph>
    <TTGlyph name="Ohungarumlaut" xMin="40" yMin="6" xMax="714" yMax="795">
      <contour>
        <pt x="714" y="492" on="1"/>
        <pt x="714" y="444" on="1"/>
        <pt x="669" y="418" on="0"/>
        <pt x="548" y="373" on="1"/>
        <pt x="494" y="238" on="0"/>
        <pt x="260" y="6" on="0"/>
        <pt x="163" y="6" on="1"/>
        <pt x="108" y="6" on="0"/>
        <pt x="40" y="84" on="0"/>
        <pt x="40" y="221" on="0"/>
        <pt x="132" y="414" on="0"/>
        <pt x="282" y="583" on="0"/>
        <pt x="360" y="623" on="1"/>
        <pt x="392" y="644" on="0"/>
        <pt x="460" y="644" on="1"/>
        <pt x="511" y="644" on="0"/>
        <pt x="576" y="565" on="0"/>
        <pt x="576" y="458" on="0"/>
        <pt x="568" y="431" on="1"/>
        <pt x="644" y="456" on="0"/>
      </contour>
      <contour>
        <pt x="317" y="527" on="1"/>
        <pt x="284" y="493" on="0"/>
        <pt x="284" y="430" on="0"/>
        <pt x="348" y="393" on="0"/>
        <pt x="445" y="393" on="0"/>
        <pt x="481" y="402" on="1"/>
        <pt x="487" y="432" on="0"/>
        <pt x="487" y="460" on="1"/>
        <pt x="487" y="559" on="0"/>
        <pt x="402" y="559" on="1"/>
        <pt x="363" y="559" on="0"/>
      </contour>
      <contour>
        <pt x="330" y="149" on="1"/>
        <pt x="428" y="246" on="0"/>
        <pt x="467" y="351" on="1"/>
        <pt x="442" y="346" on="0"/>
        <pt x="403" y="346" on="1"/>
        <pt x="235" y="346" on="0"/>
        <pt x="213" y="421" on="1"/>
        <pt x="129" y="304" on="0"/>
        <pt x="129" y="191" on="1"/>
        <pt x="129" y="146" on="0"/>
        <pt x="172" y="92" on="0"/>
        <pt x="214" y="92" on="1"/>
        <pt x="273" y="92" on="0"/>
      </contour>
      <contour>
        <pt x="472" y="770" on="1"/>
        <pt x="336" y="685" on="1"/>
        <pt x="295" y="699" on="1"/>
        <pt x="387" y="795" on="1"/>
      </contour>
      <contour>
        <pt x="608" y="760" on="1"/>
        <pt x="468" y="683" on="1"/>
        <pt x="426" y="699" on="1"/>
        <pt x="539" y="788" on="1"/>
      </contour>
    </TTGlyph>
    <TTGlyph name="Omacron" xMin="25" yMin="6" xMax="699" yMax="756">
      <contour>
        <pt x="699" y="492" on="1"/>
        <pt x="699" y="444" on="1"/>
        <pt x="654" y="418" on="0"/>
        <pt x="533" y="373" on="1"/>
        <pt x="479" y="238" on="0"/>
        <pt x="245" y="6" on="0"/>
        <pt x="148" y="6" on="1"/>
        <pt x="93" y="6" on="0"/>
        <pt x="25" y="84" on="0"/>
        <pt x="25" y="221" on="0"/>
        <pt x="117" y="414" on="0"/>
        <pt x="267" y="583" on="0"/>
        <pt x="345" y="623" on="1"/>
        <pt x="377" y="644" on="0"/>
        <pt x="445" y="644" on="1"/>
        <pt x="496" y="644" on="0"/>
        <pt x="561" y="565" on="0"/>
        <pt x="561" y="458" on="0"/>
        <pt x="553" y="431" on="1"/>
        <pt x="629" y="456" on="0"/>
      </contour>
      <contour>
        <pt x="302" y="527" on="1"/>
        <pt x="269" y="493" on="0"/>
        <pt x="269" y="430" on="0"/>
        <pt x="333" y="393" on="0"/>
        <pt x="430" y="393" on="0"/>
        <pt x="466" y="402" on="1"/>
        <pt x="472" y="432" on="0"/>
        <pt x="472" y="460" on="1"/>
        <pt x="472" y="559" on="0"/>
        <pt x="387" y="559" on="1"/>
        <pt x="348" y="559" on="0"/>
      </contour>
      <contour>
        <pt x="315" y="149" on="1"/>
        <pt x="413" y="246" on="0"/>
        <pt x="452" y="351" on="1"/>
        <pt x="427" y="346" on="0"/>
        <pt x="388" y="346" on="1"/>
        <pt x="220" y="346" on="0"/>
        <pt x="198" y="421" on="1"/>
        <pt x="114" y="304" on="0"/>
        <pt x="114" y="191" on="1"/>
        <pt x="114" y="146" on="0"/>
        <pt x="157" y="92" on="0"/>
        <pt x="199" y="92" on="1"/>
        <pt x="258" y="92" on="0"/>
      </contour>
      <contour>
        <pt x="501" y="756" on="1"/>
        <pt x="501" y="720" on="1"/>
        <pt x="324" y="714" on="1"/>
        <pt x="315" y="745" on="1"/>
        <pt x="348" y="752" on="0"/>
      </contour>
    </TTGlyph>
    <TTGlyph name="Oslash" xMin="33" yMin="-92" xMax="540" yMax="701">
      <contour>
        <pt x="227" y="-92" on="1"/>
        <pt x="189" y="-85" on="1"/>
        <pt x="193" y="-46" on="0"/>
        <pt x="203" y="18" on="1"/>
        <pt x="176" y="9" on="0"/>
        <pt x="149" y="9" on="1"/>
        <pt x="97" y="9" on="0"/>
        <pt x="33" y="86" on="0"/>
        <pt x="33" y="152" on="1"/>
        <pt x="33" y="294" on="0"/>
        <pt x="223" y="564" on="0"/>
        <pt x="347" y="610" on="1"/>
        <pt x="376" y="701" on="1"/>
        <pt x="415" y="692" on="1"/>
        <pt x="394" y="624" on="1"/>
        <pt x="422" y="628" on="0"/>
        <pt x="437" y="628" on="1"/>
        <pt x="492" y="628" on="0"/>
        <pt x="540" y="555" on="0"/>
        <pt x="540" y="505" on="1"/>
        <pt x="540" y="424" on="0"/>
        <pt x="454" y="232" on="0"/>
        <pt x="317" y="73" on="0"/>
        <pt x="245" y="35" on="1"/>
        <pt x="234" y="-26" on="0"/>
      </contour>
      <contour>
        <pt x="183" y="108" on="1"/>
        <pt x="199" y="108" on="0"/>
        <pt x="219" y="113" on="1"/>
        <pt x="256" y="315" on="0"/>
        <pt x="321" y="528" on="1"/>
        <pt x="241" y="488" on="0"/>
        <pt x="106" y="288" on="0"/>
        <pt x="106" y="202" on="1"/>
        <pt x="106" y="159" on="0"/>
        <pt x="151" y="108" on="0"/>
      </contour>
      <contour>
        <pt x="378" y="542" on="1"/>
        <pt x="368" y="542" on="1"/>
        <pt x="296" y="305" on="0"/>
        <pt x="261" y="131" on="1"/>
        <pt x="342" y="177" on="0"/>
        <pt x="468" y="397" on="0"/>
        <pt x="468" y="476" on="1"/>
        <pt x="468" y="508" on="0"/>
        <pt x="419" y="542" on="0"/>
      </contour>
    </TTGlyph>
    <TTGlyph name="Oslashacute" xMin="25" yMin="-126" xMax="699" yMax="773">
      <contour>
        <pt x="583" y="721" on="1"/>
        <pt x="622" y="700" on="1"/>
        <pt x="580" y="645" on="0"/>
        <pt x="540" y="588" on="1"/>
        <pt x="561" y="551" on="0"/>
        <pt x="561" y="458" on="0"/>
        <pt x="553" y="431" on="1"/>
        <pt x="629" y="456" on="0"/>
        <pt x="699" y="492" on="1"/>
        <pt x="699" y="444" on="1"/>
        <pt x="654" y="418" on="0"/>
        <pt x="533" y="373" on="1"/>
        <pt x="483" y="248" on="0"/>
        <pt x="271" y="25" on="0"/>
        <pt x="176" y="8" on="1"/>
        <pt x="152" y="-34" on="0"/>
        <pt x="105" y="-126" on="1"/>
        <pt x="61" y="-113" on="1"/>
        <pt x="89" y="-57" on="0"/>
        <pt x="124" y="8" on="1"/>
        <pt x="79" y="16" on="0"/>
        <pt x="25" y="91" on="0"/>
        <pt x="25" y="221" on="0"/>
        <pt x="117" y="414" on="0"/>
        <pt x="267" y="583" on="0"/>
        <pt x="345" y="623" on="1"/>
        <pt x="377" y="644" on="0"/>
        <pt x="445" y="644" on="1"/>
        <pt x="482" y="644" on="0"/>
        <pt x="510" y="622" on="1"/>
      </contour>
      <contour>
        <pt x="114" y="191" on="1"/>
        <pt x="114" y="111" on="0"/>
        <pt x="172" y="95" on="1"/>
        <pt x="241" y="220" on="0"/>
        <pt x="324" y="349" on="1"/>
        <pt x="214" y="364" on="0"/>
        <pt x="198" y="421" on="1"/>
        <pt x="114" y="304" on="0"/>
      </contour>
      <contour>
        <pt x="302" y="527" on="1"/>
        <pt x="269" y="493" on="0"/>
        <pt x="269" y="464" on="1"/>
        <pt x="269" y="408" on="0"/>
        <pt x="353" y="395" on="1"/>
        <pt x="389" y="449" on="0"/>
        <pt x="449" y="535" on="1"/>
        <pt x="427" y="559" on="0"/>
        <pt x="348" y="559" on="0"/>
      </contour>
      <contour>
        <pt x="315" y="149" on="1"/>
        <pt x="413" y="246" on="0"/>
        <pt x="452" y="351" on="1"/>
        <pt x="427" y="346" on="0"/>
        <pt x="388" y="346" on="1"/>
        <pt x="374" y="346" on="1"/>
        <pt x="288" y="210" on="0"/>
        <pt x="223" y="95" on="1"/>
        <pt x="270" y="104" on="0"/>
      </contour>
      <contour>
        <pt x="488" y="733" on="1"/>
        <pt x="317" y="677" on="1"/>
        <pt x="288" y="695" on="1"/>
        <pt x="420" y="773" on="1"/>
      </contour>
      <contour>
        <pt x="466" y="402" on="1"/>
        <pt x="472" y="432" on="0"/>
        <pt x="472" y="471" on="0"/>
        <pt x="470" y="489" on="1"/>
        <pt x="436" y="440" on="0"/>
        <pt x="405" y="393" on="1"/>
        <pt x="439" y="395" on="0"/>
      </contour>
    </TTGlyph>
    <TTGlyph name="Otilde" xMin="40" yMin="6" xMax="714" yMax="805">
      <contour>
        <pt x="714" y="492" on="1"/>
        <pt x="714" y="444" on="1"/>
        <pt x="669" y="418" on="0"/>
        <pt x="548" y="373" on="1"/>
        <pt x="494" y="238" on="0"/>
        <pt x="260" y="6" on="0"/>
        <pt x="163" y="6" on="1"/>
        <pt x="108" y="6" on="0"/>
        <pt x="40" y="84" on="0"/>
        <pt x="40" y="221" on="0"/>
        <pt x="132" y="414" on="0"/>
        <pt x="282" y="583" on="0"/>
        <pt x="360" y="623" on="1"/>
        <pt x="392" y="644" on="0"/>
        <pt x="460" y="644" on="1"/>
        <pt x="511" y="644" on="0"/>
        <pt x="576" y="565" on="0"/>
        <pt x="576" y="458" on="0"/>
        <pt x="568" y="431" on="1"/>
        <pt x="644" y="456" on="0"/>
      </contour>
      <contour>
        <pt x="317" y="527" on="1"/>
        <pt x="284" y="493" on="0"/>
        <pt x="284" y="430" on="0"/>
        <pt x="348" y="393" on="0"/>
        <pt x="445" y="393" on="0"/>
        <pt x="481" y="402" on="1"/>
        <pt x="487" y="432" on="0"/>
        <pt x="487" y="460" on="1"/>
        <pt x="487" y="559" on="0"/>
        <pt x="402" y="559" on="1"/>
        <pt x="363" y="559" on="0"/>
      </contour>
      <contour>
        <pt x="330" y="149" on="1"/>
        <pt x="428" y="246" on="0"/>
        <pt x="467" y="351" on="1"/>
        <pt x="442" y="346" on="0"/>
        <pt x="403" y="346" on="1"/>
        <pt x="235" y="346" on="0"/>
        <pt x="213" y="421" on="1"/>
        <pt x="129" y="304" on="0"/>
        <pt x="129" y="191" on="1"/>
        <pt x="129" y="146" on="0"/>
        <pt x="172" y="92" on="0"/>
        <pt x="214" y="92" on="1"/>
        <pt x="273" y="92" on="0"/>
      </contour>
      <contour>
        <pt x="545" y="778" on="1"/>
        <pt x="568" y="759" on="1"/>
        <pt x="549" y="729" on="0"/>
        <pt x="500" y="687" on="0"/>
        <pt x="459" y="687" on="0"/>
        <pt x="411" y="756" on="0"/>
        <pt x="391" y="756" on="1"/>
        <pt x="381" y="756" on="0"/>
        <pt x="361" y="742" on="0"/>
        <pt x="350" y="734" on="0"/>
        <pt x="330" y="718" on="0"/>
        <pt x="324" y="714" on="1"/>
        <pt x="296" y="740" on="1"/>
        <pt x="370" y="805" on="0"/>
        <pt x="421" y="805" on="0"/>
        <pt x="479" y="735" on="0"/>
        <pt x="494" y="735" on="1"/>
        <pt x="504" y="735" on="0"/>
        <pt x="537" y="771" on="0"/>
      </contour>
    </TTGlyph>
    <TTGlyph name="P" xMin="-20" yMin="-137" xMax="628" yMax="638">
      <contour>
        <pt x="443" y="606" on="0"/>
        <pt x="503" y="631" on="0"/>
        <pt x="584" y="631" on="0"/>
        <pt x="628" y="575" on="0"/>
        <pt x="628" y="523" on="1"/>
        <pt x="628" y="430" on="0"/>
        <pt x="508" y="216" on="0"/>
        <pt x="328" y="71" on="0"/>
        <pt x="248" y="71" on="1"/>
        <pt x="228" y="71" on="0"/>
        <pt x="202" y="73" on="1"/>
        <pt x="153" y="-31" on="0"/>
        <pt x="73" y="-137" on="0"/>
        <pt x="33" y="-137" on="1"/>
        <pt x="8" y="-137" on="0"/>
        <pt x="-20" y="-101" on="0"/>
        <pt x="-20" y="-69" on="1"/>
        <pt x="-20" y="34" on="0"/>
        <pt x="170" y="379" on="0"/>
        <pt x="284" y="483" on="1"/>
        <pt x="300" y="549" on="0"/>
        <pt x="300" y="610" on="0"/>
        <pt x="298" y="626" on="1"/>
        <pt x="370" y="638" on="1"/>
        <pt x="370" y="631" on="0"/>
        <pt x="361" y="550" on="1"/>
      </contour>
      <contour>
        <pt x="132" y="145" on="1"/>
        <pt x="160" y="131" on="1"/>
        <pt x="223" y="254" on="0"/>
        <pt x="266" y="407" on="1"/>
        <pt x="174" y="292" on="0"/>
        <pt x="56" y="54" on="0"/>
        <pt x="56" y="-10" on="1"/>
        <pt x="56" y="-29" on="0"/>
        <pt x="68" y="-29" on="1"/>
        <pt x="77" y="-29" on="0"/>
        <pt x="123" y="46" on="0"/>
        <pt x="139" y="85" on="1"/>
        <pt x="126" y="91" on="0"/>
        <pt x="114" y="103" on="1"/>
      </contour>
      <contour>
        <pt x="223" y="117" on="1"/>
        <pt x="242" y="116" on="1"/>
        <pt x="339" y="116" on="0"/>
        <pt x="424" y="218" on="1"/>
        <pt x="472" y="277" on="0"/>
        <pt x="539" y="429" on="0"/>
        <pt x="539" y="482" on="1"/>
        <pt x="539" y="511" on="0"/>
        <pt x="508" y="545" on="0"/>
        <pt x="481" y="545" on="1"/>
        <pt x="432" y="545" on="0"/>
        <pt x="351" y="491" on="1"/>
        <pt x="333" y="356" on="0"/>
      </contour>
    </TTGlyph>
    <TTGlyph name="Q" xMin="30" yMin="-27" xMax="685" yMax="639">
      <contour>
        <pt x="625" y="111" on="1"/>
        <pt x="685" y="77" on="1"/>
        <pt x="614" y="-27" on="0"/>
        <pt x="531" y="-27" on="1"/>
        <pt x="474" y="-27" on="0"/>
        <pt x="434" y="12" on="1"/>
        <pt x="401" y="44" on="0"/>
        <pt x="356" y="106" on="1"/>
        <pt x="244" y="1" on="0"/>
        <pt x="153" y="1" on="1"/>
        <pt x="98" y="1" on="0"/>
        <pt x="30" y="79" on="0"/>
        <pt x="30" y="209" on="0"/>
        <pt x="107" y="383" on="0"/>
        <pt x="225" y="534" on="0"/>
        <pt x="380" y="639" on="0"/>
        <pt x="450" y="639" on="1"/>
        <pt x="501" y="639" on="0"/>
        <pt x="566" y="560" on="0"/>
        <pt x="566" y="421" on="0"/>
        <pt x="473" y="233" on="0"/>
        <pt x="399" y="150" on="1"/>
        <pt x="422" y="118" on="0"/>
        <pt x="452" y="79" on="0"/>
        <pt x="507" y="35" on="0"/>
        <pt x="560" y="35" on="0"/>
        <pt x="620" y="84" on="0"/>
      </contour>
      <contour>
        <pt x="314" y="545" on="1"/>
        <pt x="243" y="494" on="0"/>
        <pt x="134" y="281" on="0"/>
        <pt x="134" y="197" on="1"/>
        <pt x="134" y="139" on="0"/>
        <pt x="160" y="110" on="1"/>
        <pt x="179" y="176" on="0"/>
        <pt x="247" y="247" on="0"/>
        <pt x="288" y="247" on="1"/>
        <pt x="303" y="247" on="0"/>
        <pt x="312" y="244" on="1"/>
        <pt x="334" y="238" on="0"/>
        <pt x="370" y="189" on="1"/>
        <pt x="414" y="248" on="0"/>
        <pt x="471" y="391" on="0"/>
        <pt x="471" y="498" on="0"/>
        <pt x="426" y="567" on="0"/>
        <pt x="346" y="567" on="0"/>
      </contour>
      <contour>
        <pt x="220" y="81" on="1"/>
        <pt x="228" y="82" on="1"/>
        <pt x="279" y="87" on="0"/>
        <pt x="328" y="144" on="1"/>
        <pt x="300" y="178" on="0"/>
        <pt x="274" y="178" on="1"/>
        <pt x="260" y="178" on="0"/>
        <pt x="243" y="172" on="0"/>
        <pt x="211" y="128" on="0"/>
        <pt x="196" y="85" on="1"/>
        <pt x="210" y="81" on="0"/>
      </contour>
    </TTGlyph>
    <TTGlyph name="R" xMin="30" yMin="-117" xMax="655" yMax="637">
      <contour>
        <pt x="500" y="-65" on="1"/>
        <pt x="505" y="-112" on="1"/>
        <pt x="477" y="-117" on="0"/>
        <pt x="456" y="-117" on="1"/>
        <pt x="409" y="-117" on="0"/>
        <pt x="323" y="8" on="0"/>
        <pt x="274" y="176" on="0"/>
        <pt x="268" y="254" on="1"/>
        <pt x="218" y="124" on="0"/>
        <pt x="129" y="7" on="0"/>
        <pt x="82" y="7" on="1"/>
        <pt x="58" y="7" on="0"/>
        <pt x="30" y="46" on="0"/>
        <pt x="30" y="78" on="1"/>
        <pt x="30" y="152" on="0"/>
        <pt x="167" y="380" on="0"/>
        <pt x="259" y="453" on="1"/>
        <pt x="261" y="459" on="0"/>
        <pt x="292" y="593" on="0"/>
        <pt x="295" y="600" on="1"/>
        <pt x="353" y="605" on="1"/>
        <pt x="353" y="588" on="0"/>
        <pt x="344" y="534" on="1"/>
        <pt x="479" y="637" on="0"/>
        <pt x="566" y="637" on="1"/>
        <pt x="607" y="637" on="0"/>
        <pt x="655" y="592" on="0"/>
        <pt x="655" y="554" on="1"/>
        <pt x="655" y="459" on="0"/>
        <pt x="463" y="266" on="0"/>
        <pt x="354" y="249" on="1"/>
        <pt x="362" y="104" on="0"/>
        <pt x="447" y="-60" on="0"/>
      </contour>
      <contour>
        <pt x="209" y="269" on="1"/>
        <pt x="236" y="341" on="0"/>
        <pt x="246" y="384" on="1"/>
        <pt x="191" y="333" on="0"/>
        <pt x="98" y="163" on="0"/>
        <pt x="98" y="122" on="1"/>
        <pt x="98" y="101" on="0"/>
        <pt x="115" y="101" on="1"/>
        <pt x="145" y="101" on="0"/>
      </contour>
      <contour>
        <pt x="277" y="283" on="1"/>
        <pt x="383" y="283" on="0"/>
        <pt x="551" y="431" on="0"/>
        <pt x="551" y="504" on="1"/>
        <pt x="551" y="531" on="0"/>
        <pt x="524" y="561" on="0"/>
        <pt x="466" y="561" on="0"/>
        <pt x="356" y="496" on="0"/>
        <pt x="332" y="475" on="1"/>
        <pt x="301" y="352" on="0"/>
      </contour>
    </TTGlyph>
    <TTGlyph name="Racute" xMin="40" yMin="-117" xMax="665" yMax="781">
      <contour>
        <pt x="510" y="-65" on="1"/>
        <pt x="515" y="-112" on="1"/>
        <pt x="487" y="-117" on="0"/>
        <pt x="466" y="-117" on="1"/>
        <pt x="419" y="-117" on="0"/>
        <pt x="333" y="8" on="0"/>
        <pt x="284" y="176" on="0"/>
        <pt x="278" y="254" on="1"/>
        <pt x="228" y="124" on="0"/>
        <pt x="139" y="7" on="0"/>
        <pt x="92" y="7" on="1"/>
        <pt x="68" y="7" on="0"/>
        <pt x="40" y="46" on="0"/>
        <pt x="40" y="78" on="1"/>
        <pt x="40" y="152" on="0"/>
        <pt x="177" y="380" on="0"/>
        <pt x="269" y="453" on="1"/>
        <pt x="271" y="459" on="0"/>
        <pt x="302" y="593" on="0"/>
        <pt x="305" y="600" on="1"/>
        <pt x="363" y="605" on="1"/>
        <pt x="363" y="588" on="0"/>
        <pt x="354" y="534" on="1"/>
        <pt x="489" y="637" on="0"/>
        <pt x="576" y="637" on="1"/>
        <pt x="617" y="637" on="0"/>
        <pt x="665" y="592" on="0"/>
        <pt x="665" y="554" on="1"/>
        <pt x="665" y="459" on="0"/>
        <pt x="473" y="266" on="0"/>
        <pt x="364" y="249" on="1"/>
        <pt x="372" y="104" on="0"/>
        <pt x="457" y="-60" on="0"/>
      </contour>
      <contour>
        <pt x="219" y="269" on="1"/>
        <pt x="246" y="341" on="0"/>
        <pt x="256" y="384" on="1"/>
        <pt x="201" y="333" on="0"/>
        <pt x="108" y="163" on="0"/>
        <pt x="108" y="122" on="1"/>
        <pt x="108" y="101" on="0"/>
        <pt x="125" y="101" on="1"/>
        <pt x="155" y="101" on="0"/>
      </contour>
      <contour>
        <pt x="287" y="283" on="1"/>
        <pt x="393" y="283" on="0"/>
        <pt x="561" y="431" on="0"/>
        <pt x="561" y="504" on="1"/>
        <pt x="561" y="531" on="0"/>
        <pt x="534" y="561" on="0"/>
        <pt x="476" y="561" on="0"/>
        <pt x="366" y="496" on="0"/>
        <pt x="342" y="475" on="1"/>
        <pt x="311" y="352" on="0"/>
      </contour>
      <contour>
        <pt x="567" y="741" on="1"/>
        <pt x="396" y="685" on="1"/>
        <pt x="367" y="703" on="1"/>
        <pt x="499" y="781" on="1"/>
      </contour>
    </TTGlyph>
</ttFont>
